<?xml version="1.0" encoding="UTF-8" standalone="no"?>
<!-- Created with Inkscape (http://www.inkscape.org/) -->

<svg
   xmlns:dc="http://purl.org/dc/elements/1.1/"
   xmlns:cc="http://creativecommons.org/ns#"
   xmlns:rdf="http://www.w3.org/1999/02/22-rdf-syntax-ns#"
   xmlns:svg="http://www.w3.org/2000/svg"
   xmlns="http://www.w3.org/2000/svg"
   xmlns:xlink="http://www.w3.org/1999/xlink"
   xmlns:sodipodi="http://sodipodi.sourceforge.net/DTD/sodipodi-0.dtd"
   xmlns:inkscape="http://www.inkscape.org/namespaces/inkscape"
   id="svg2"
   version="1.1"
   inkscape:version="0.47 r22583"
   width="569.42065"
   height="283.89807"
   xml:space="preserve"
   sodipodi:docname="1.svg"><metadata
     id="metadata8"><rdf:RDF><cc:Work
         rdf:about=""><dc:format>image/svg+xml</dc:format><dc:type
           rdf:resource="http://purl.org/dc/dcmitype/StillImage" /><dc:title></dc:title></cc:Work></rdf:RDF></metadata><defs
     id="defs6"><linearGradient
       id="linearGradient3638"><stop
         id="stop3640"
         offset="0"
         style="stop-color:#c4c4c4;stop-opacity:1;" /><stop
         id="stop3642"
         offset="1"
         style="stop-color:#f1f1f1;stop-opacity:1;" /></linearGradient><inkscape:perspective
       sodipodi:type="inkscape:persp3d"
       inkscape:vp_x="0 : 0.5 : 1"
       inkscape:vp_y="0 : 1000 : 0"
       inkscape:vp_z="1 : 0.5 : 1"
       inkscape:persp3d-origin="0.5 : 0.33333333 : 1"
       id="perspective10" /><linearGradient
       inkscape:collect="always"
       xlink:href="#linearGradient3638"
       id="linearGradient3620"
       x1="3885.51"
       y1="1356.3287"
       x2="4615.0298"
       y2="1356.3287"
       gradientUnits="userSpaceOnUse" /><linearGradient
       inkscape:collect="always"
       xlink:href="#linearGradient3638"
       id="linearGradient3622"
       x1="3323.0601"
       y1="1364.8621"
       x2="3897.4822"
       y2="1364.8621"
       gradientUnits="userSpaceOnUse" /><linearGradient
       inkscape:collect="always"
       xlink:href="#linearGradient3638"
       id="linearGradient3624"
       x1="2949.8201"
       y1="1300.1173"
       x2="3126.2761"
       y2="1300.1173"
       gradientUnits="userSpaceOnUse" /><linearGradient
       inkscape:collect="always"
       xlink:href="#linearGradient3638"
       id="linearGradient3626"
       x1="2595.3711"
       y1="2025.8549"
       x2="2753.8535"
       y2="2025.8549"
       gradientUnits="userSpaceOnUse" /><linearGradient
       inkscape:collect="always"
       xlink:href="#linearGradient3638"
       id="linearGradient3628"
       x1="1993.165"
       y1="1510.0098"
       x2="2802.3501"
       y2="1510.0098"
       gradientUnits="userSpaceOnUse" /><linearGradient
       inkscape:collect="always"
       xlink:href="#linearGradient3638"
       id="linearGradient3630"
       x1="1468.5776"
       y1="1770.8043"
       x2="1948.0461"
       y2="1770.8043"
       gradientUnits="userSpaceOnUse" /><linearGradient
       inkscape:collect="always"
       xlink:href="#linearGradient3638"
       id="linearGradient3632"
       x1="1194.7667"
       y1="2156.9182"
       x2="1350.4464"
       y2="2156.9182"
       gradientUnits="userSpaceOnUse" /><linearGradient
       inkscape:collect="always"
       xlink:href="#linearGradient3638"
       id="linearGradient3634"
       x1="1009.1674"
       y1="1530.6617"
       x2="1297.2111"
       y2="1530.6617"
       gradientUnits="userSpaceOnUse" /><linearGradient
       inkscape:collect="always"
       xlink:href="#linearGradient3638"
       id="linearGradient3636"
       x1="45.864811"
       y1="1042.559"
       x2="991.62061"
       y2="1042.559"
       gradientUnits="userSpaceOnUse" /></defs><sodipodi:namedview
     pagecolor="#ffffff"
     bordercolor="#666666"
     borderopacity="1"
     objecttolerance="10"
     gridtolerance="10"
     guidetolerance="10"
     inkscape:pageopacity="0"
     inkscape:pageshadow="2"
     inkscape:window-width="2558"
     inkscape:window-height="1572"
     id="namedview4"
     showgrid="false"
     inkscape:zoom="1.7938242"
     inkscape:cx="262.19937"
     inkscape:cy="158.14812"
     inkscape:window-x="0"
     inkscape:window-y="26"
     inkscape:window-maximized="0"
     inkscape:current-layer="g12" /><g
     id="g12"
     inkscape:groupmode="layer"
     inkscape:label="ink_ext_XXXXXX"
     transform="matrix(1.25,0,0,-1.25,-6.5956014,290.19375)"><g
       id="g14"
       transform="scale(0.1,0.1)"><path
         d="m 1739.18,2316.05 c -0.13,-2.22 -0.18,-4.51 -0.11,-5.34 0.06,-0.79 -1.34,-2.64 -3.12,-4.11 -1.74,-1.44 -3.22,-4.56 -3.22,-6.78 0,-2.23 -1.02,-4.73 -2.23,-5.45 -1.17,-0.71 -2.23,-3.12 -2.25,-5.12 -0.04,-4.89 -16.59,-22.69 -21.1,-22.69 -2,0 -4.14,-1.56 -4.89,-3.56 -0.76,-2.03 -3.14,-5.56 -5.54,-8.23 -8.8,-9.79 -23.52,-29.64 -26.72,-36.03 -1.85,-3.71 -4.62,-12.01 -6.22,-18.69 -1.61,-6.67 -4.23,-14.58 -5.9,-17.79 -1.61,-3.11 -3.02,-7.83 -3.04,-10.23 -0.04,-5.63 -12.7,-42.48 -16.73,-48.71 -1.64,-2.53 -3.69,-8.46 -4.47,-12.9 -0.78,-4.45 -2.88,-9.41 -4.56,-10.79 -1.78,-1.46 -3.12,-3.51 -3.12,-4.78 0,-1.25 -2.44,-7.12 -5.56,-13.35 -3.11,-6.23 -5.56,-12.39 -5.56,-14.01 0,-1.54 -1.55,-4.14 -3.34,-5.56 -1.81,-1.46 -3.33,-4.9 -3.33,-7.57 0,-2.66 -1.37,-6.86 -3,-9.23 -1.68,-2.42 -5.22,-11.23 -8.01,-19.9 -2.79,-8.68 -7.27,-19.52 -10.12,-24.47 -2.82,-4.9 -5.82,-12.4 -6.67,-16.69 -0.85,-4.22 -2.83,-9.3 -4.34,-11.12 -1.53,-1.83 -3.33,-5.33 -4.01,-7.78 -0.67,-2.45 -4.87,-14.46 -9.34,-26.69 -4.47,-12.24 -8.92,-25.25 -9.89,-28.92 -0.99,-3.67 -3.54,-10.67 -5.7,-15.57 -6.84,-15.57 -7.56,-17.59 -9.07,-25.58 -0.8,-4.22 -3.05,-10.83 -4.92,-14.46 -1.87,-3.62 -4.37,-10.23 -5.45,-14.45 -1.09,-4.23 -3.02,-11.35 -4.23,-15.57 -1.23,-4.32 -4.05,-15.46 -6.34,-25.03 -2.28,-9.56 -5.1,-18.47 -6.33,-20.02 -1.23,-1.52 -2.71,-6.78 -3.3,-11.67 -1.78,-14.91 -6.32,-35.19 -9.61,-42.93 -1.71,-4.05 -3.11,-12.24 -3.11,-18.24 0,-6.01 -1,-11.5 -2.23,-12.24 -1.33,-0.8 -1.77,-2.09 -1.11,-3.22 0.62,-1.04 -0.82,-9.46 -3.21,-18.79 -7.09,-27.68 -11.79,-74.74 -11.02,-110.33 0.91,-41.82 4.68,-107.78 6.37,-111.22 0.89,-1.82 1.74,-10.34 1.86,-18.79 0.16,-11.12 1.16,-15.96 3.56,-17.24 2.32,-1.24 2.93,-4.12 2,-9.45 -0.74,-4.23 -0.09,-17.46 1.44,-29.47 1.54,-12.02 2.68,-27.5 2.56,-34.48 -0.12,-6.9 0.85,-13.34 2.12,-14.13 1.3,-0.8 2.35,-6.56 2.38,-13.01 0.15,-39.15 1.73,-45.82 10.85,-45.82 7.9,0 11.49,2.89 15.75,12.68 2.33,5.34 7.2,12.26 10.72,15.24 3.56,3 6.38,6.74 6.29,8.34 -0.29,5.11 6.06,17.12 9.06,17.12 1.65,0 3.46,1.67 4.22,3.89 0.73,2.13 3.31,6.12 5.68,8.79 3.06,3.46 3.94,6.56 3,10.57 -0.79,3.34 -0.42,5.67 0.89,5.67 3.11,0 8.96,14.9 7.42,18.91 -0.76,1.99 0.81,3.63 4.37,4.55 5.8,1.5 8.23,6.57 8.23,17.25 0,4.22 1.18,6 4,6 2.18,0 6.23,1.56 8.9,3.43 5.93,4.15 6.33,12.14 1.33,26.82 -1.98,5.81 -3.86,18.46 -4.23,28.47 -0.36,10.01 -1.22,19.5 -1.92,21.35 -1.89,5.03 -6.26,49.83 -6.88,70.52 -0.3,10 -1.08,18.9 -1.76,20.01 -2.17,3.56 -1.71,29.27 0.56,30.66 1.21,0.75 2.22,4.15 2.22,7.49 0,4.72 3.56,9.5 15.57,20.91 8.67,8.24 15.57,15.38 15.57,16.12 0,6.84 47.82,50.05 55.39,50.05 1.33,0 2.44,0.91 2.44,2.01 0,4.82 24.69,11.34 42.93,11.34 17.27,0 19.35,-0.55 39.15,-10.34 12.46,-6.16 21.31,-11.97 21.91,-14.35 0.53,-2.11 3,-4.65 5.23,-5.38 4.67,-1.52 24.69,-23.76 31.39,-34.88 2.41,-4 5.83,-8.15 7.53,-9.12 1.78,-1.02 3.12,-2.83 3.12,-4.23 0,-1.34 3.64,-9.56 8.08,-18.24 13.25,-25.91 23.34,-58.94 27.24,-89.19 2.98,-23.13 3.12,-56.89 0.28,-64.28 -2.28,-5.95 -22.04,-25.79 -31.16,-31.3 -2.05,-1.25 -9.78,-6.7 -16.9,-11.93 -20.69,-15.19 -50.06,-31.59 -60.06,-33.52 -5.11,-0.99 -12.44,-4.28 -16.68,-7.48 -22.02,-16.62 -54.3,-27.72 -72.73,-25.02 -5.12,0.75 -9.9,2.27 -10.57,3.37 -0.71,1.16 -3.34,1.21 -6.23,0.11 -2.78,-1.05 -9.45,-1.4 -15.01,-0.78 l -10.01,1.11 -2.78,-9 c -1.51,-4.9 -5.32,-12.06 -8.34,-15.68 -4.84,-5.81 -6.56,-6.5 -13.24,-5.34 -7.53,1.31 -7.77,1.11 -13.01,-10.68 -2.97,-6.67 -5.88,-13.74 -6.56,-15.9 -0.69,-2.2 -3.45,-3.9 -6.34,-3.9 -5.75,0 -16.31,-11.79 -19.93,-22.24 -1.31,-3.78 -4.14,-7.65 -6.54,-8.94 -5.71,-3.07 -5.4,-11.75 0.66,-18.64 7.18,-8.16 32.26,-16.16 56.5,-18.02 16.42,-1.26 24.81,-0.65 44.38,3.23 13.35,2.64 26.67,6.07 29.8,7.67 3.15,1.6 9.79,5.03 14.91,7.67 5.11,2.66 11.31,4.79 13.9,4.79 2.67,0 4.67,0.9 4.67,2.11 0,1.16 8.34,6.26 18.35,11.23 10.01,4.98 19.36,10.44 20.58,12.01 1.2,1.56 6.22,5.62 10.9,8.79 4.67,3.18 10.83,7.9 13.34,10.23 2.57,2.39 11.57,10.66 20.02,18.4 21.58,19.76 39.28,38.44 46.33,48.89 3.46,5.11 8.16,11.17 10.71,13.79 9.31,9.56 19.92,22.48 19.92,24.24 0,0.97 4.65,8.45 10.23,16.46 6.2,8.9 10.45,17.58 10.79,22.03 0.34,4.53 4.08,12.01 9.79,19.57 5.03,6.67 9.23,12.74 9.23,13.34 0,0.62 4,7.12 8.9,14.46 4.89,7.34 8.89,15.3 8.89,17.68 0,2.4 1.99,9.01 4.45,14.8 5.69,13.34 5.9,25.18 0.45,24.76 -3.42,-0.27 -3.8,2.37 -3.94,27.51 -0.17,30.02 -2.31,58.23 -5.19,68.28 -0.99,3.48 -1.53,9.57 -1.22,13.79 0.31,4.23 -0.25,9.14 -1.27,11.13 -8.89,17.34 -11.77,34.76 -5.07,30.6 1.04,-0.65 3.45,-0.33 5.01,0.65 2.4,1.51 2.04,3.22 -1.78,8.56 -2.71,3.78 -4.78,7.54 -4.78,8.67 0,3.74 -12.75,27.14 -19.39,35.59 -3.67,4.68 -8,11.04 -9.69,14.24 -5.16,9.79 -22.02,26.66 -29.87,29.89 -4,1.65 -7.86,4.44 -8.49,6.14 -1.71,4.62 -25.32,15.36 -36.44,16.58 -5.11,0.56 -12.39,-0.03 -16.57,-1.34 -4.13,-1.3 -13.9,-2.57 -21.91,-2.87 -15.79,-0.57 -28.69,-4.57 -45.6,-14.1 -6.23,-3.51 -13.86,-7.69 -17.35,-9.49 -17.57,-9.07 -48.34,-32.19 -62.34,-46.83 -6.17,-6.45 -12.88,-11.57 -15.17,-11.57 -2.23,0 -4.12,-1.43 -4.12,-3.11 0,-1.74 -2.45,-5.42 -5.56,-8.34 -3.11,-2.93 -5.56,-6.45 -5.56,-8.01 0,-1.56 -0.93,-2.78 -2.11,-2.78 -1.21,0 -2.64,-1.67 -3.34,-3.89 -0.69,-2.19 -4.14,-7.01 -7.89,-11.01 -3.76,-4.01 -6.68,-8.39 -6.68,-10.01 0,-4.01 -19.13,-25.22 -20.46,-22.69 -2.46,4.68 -1.49,75.18 1.33,96.53 6.26,47.38 10.16,69.05 13.15,72.96 1.18,1.56 2.05,7.45 1.87,12.79 -0.18,5.38 1.56,15.68 3.82,22.58 4.91,14.92 6.83,22.02 14.97,55.16 3.33,13.57 7.2,25.46 8.67,26.69 1.54,1.28 2.25,5.34 1.68,9.57 -0.64,4.67 0.17,8.71 2.22,11.12 1.77,2.07 3.78,9.45 4.45,16.35 0.67,6.89 2.83,15.63 4.78,19.35 1.94,3.7 3.61,10.12 3.67,14.12 0.06,4 1.58,9.31 3.34,11.68 1.76,2.36 3.22,7.67 3.22,11.68 0,8.45 5.96,25.11 10.23,28.59 1.78,1.46 3.12,4.55 3.12,7.22 0,6.45 10.24,29.36 13.12,29.36 1.32,0 2.45,1.89 2.45,4.12 0,2.22 0.66,4.77 1.44,5.55 0.82,0.82 1.66,3.68 1.93,6.57 0.53,5.78 15.57,41.41 18.87,44.7 1.29,1.3 2.27,3.68 2.34,5.68 0.06,1.89 2.01,7.45 4.33,12.34 2.33,4.89 4.28,11.6 4.34,14.91 0.06,3.21 1.25,8.89 2.56,12.23 1.31,3.34 3.49,8.81 4.68,11.79 2.48,6.14 6.72,16.23 10.27,24.46 1.3,3.03 3.06,10.79 3.84,17.02 0.79,6.23 4.9,18.35 9.01,26.58 4.12,8.23 7.56,16.6 7.56,18.35 0,1.79 1.6,5.01 3.59,7.23 4.36,4.87 2.2,8.68 -4.92,8.68 -3.56,0 -5.41,-1.3 -5.56,-3.9"
         style="fill:url(#linearGradient3630);fill-opacity:1;fill-rule:nonzero;stroke:#000000;stroke-width:3.20000005;stroke-miterlimit:4;stroke-opacity:1;stroke-dasharray:none"
         id="path16" /><path
         d="m 1314.56,2227.64 c -1.45,-1.82 -4.89,-3.34 -7.56,-3.34 -3.26,0 -6.09,-2.45 -8.46,-7.34 -3.44,-7.07 -8,-10.43 -20.24,-14.92 -5.52,-2.03 -6,-3.1 -6,-13.33 0,-7.78 -0.9,-11.12 -3,-11.12 -1.68,0 -5.26,-2.45 -8.12,-5.56 -2.87,-3.12 -6.2,-5.56 -7.56,-5.56 -2.92,0 -9.11,-9.12 -8.45,-12.46 0.24,-1.22 -5.57,-7.68 -12.91,-14.35 -7.34,-6.66 -13.34,-13.27 -13.34,-14.68 0,-1.39 -3.85,-6.44 -8.46,-11.12 -7.68,-7.78 -8.24,-9.16 -6.14,-15.23 2.84,-8.23 7.29,-12.06 14.15,-12.16 2.89,-0.04 6.96,-1.06 9.34,-2.33 5.85,-3.11 10.59,-0.42 12.21,6.93 1.62,7.38 12.48,17.25 20.94,19.02 4.33,0.91 7.42,4.55 12.34,14.56 3.61,7.34 8.86,15.15 11.68,17.35 2.89,2.27 5.11,5.5 5.11,7.45 0,2 0.98,4.06 2.34,4.9 1.27,0.78 3.29,3.89 4.43,6.78 2.17,5.54 3.24,6.2 13.92,8.49 5.7,1.23 6.01,1.97 6.01,14.42 0,12.9 0.12,13.15 7.23,14.79 4,0.93 8.91,1.53 11,1.35 6.52,-0.55 8.88,4.99 5.16,12.11 -1.86,3.56 -3.38,8.05 -3.38,10.01 0,3.72 -8.89,8.67 -15.57,8.67 -2.22,0 -5.19,-1.48 -6.67,-3.33 z m -42.26,-98.98 c 0,-1.34 -0.89,-2.23 -2.23,-2.23 -1.33,0 -2.22,0.89 -2.22,2.23 0,1.33 0.89,2.22 2.22,2.22 1.34,0 2.23,-0.89 2.23,-2.22"
         style="fill:url(#linearGradient3632);fill-opacity:1;fill-rule:nonzero;stroke:#000000;stroke-width:3.20000005;stroke-miterlimit:4;stroke-opacity:1;stroke-dasharray:none"
         id="path18" /><path
         d="m 2722.66,2096.62 c -1.54,-1.83 -7.12,-5.42 -12.46,-8 -5.34,-2.58 -14.66,-10.46 -20.8,-17.57 -6.13,-7.12 -14.66,-15.3 -19.02,-18.24 -4.45,-3.01 -7.89,-6.31 -7.89,-7.57 0,-1.2 -3.56,-5.47 -7.79,-9.34 -4.22,-3.86 -7.78,-8.59 -7.78,-10.34 0,-1.74 -4.56,-6.66 -9.9,-10.68 -5.34,-4.02 -11.13,-10.52 -12.57,-14.12 -1.45,-3.64 -6,-9.77 -10.01,-13.49 -10.11,-9.38 -12.69,-17.65 -8.92,-28.55 1.69,-4.9 3.57,-7.42 4.46,-6.01 1.87,2.97 13.58,3.15 18.92,0.29 4.95,-2.64 21.44,4.83 24.88,11.28 1.19,2.22 4.15,4.22 6.26,4.22 5.56,0 21.71,17.8 22,24.25 0.14,2.93 3.81,9.01 8.14,13.46 4.33,4.45 7.89,9.12 7.89,10.34 0.01,2.47 16.69,18.2 23.58,22.22 3.31,1.93 4.16,4.69 3.9,12.7 -0.32,9.79 -0.01,10.35 7.22,12.98 9.12,3.31 14.78,10.76 11.77,15.49 -1.11,1.75 -1.99,5.56 -2.01,8.68 -0.05,8.67 -14.47,14.48 -19.87,8"
         style="fill:url(#linearGradient3626);fill-opacity:1;fill-rule:nonzero;stroke:#000000;stroke-width:3.20000005;stroke-miterlimit:4;stroke-opacity:1;stroke-dasharray:none"
         id="path20" /><path
         d="m 964.012,2025.15 c -4.672,-4.15 -9.446,-7.71 -10.344,-7.71 -0.953,0 -1.668,-1.33 -1.668,-3.11 0,-1.72 -4.004,-6.72 -8.898,-11.13 -4.891,-4.4 -8.895,-8.7 -8.895,-9.56 0,-2.05 -17.129,-18.45 -19.352,-18.54 -2.39,-0.09 -9.566,-15.05 -9.566,-19.94 0,-2.23 -1.383,-5.14 -3.113,-6.56 -1.703,-1.4 -5.176,-6.79 -7.672,-11.9 -2.535,-5.19 -8.566,-13.79 -13.57,-19.35 -5.606,-6.23 -9.008,-12.2 -9.008,-15.8 0,-3.78 -1.735,-6.59 -5.004,-8.12 -3.856,-1.79 -5.668,-5.45 -7.899,-15.9 -1.609,-7.56 -3.679,-13.57 -4.668,-13.57 -2.265,0 -5.25,-8.45 -4.789,-13.57 0.18,-2 -0.761,-4.46 -1.996,-5.22 -1.265,-0.78 -2.336,-3.89 -2.336,-6.79 0,-2.89 -0.968,-5.95 -2.113,-6.67 -1.18,-0.74 -4.672,-6.45 -7.894,-12.9 -3.227,-6.45 -7.508,-13.53 -9.676,-16.01 -2.125,-2.43 -6.371,-9.46 -9.344,-15.46 -2.973,-6.01 -8.633,-14.2 -12.457,-18.02 -3.781,-3.78 -7.723,-9.31 -8.562,-12.01 -0.848,-2.73 -3.731,-8.34 -6.34,-12.35 -2.618,-4.01 -8.309,-13.23 -12.567,-20.35 -4.258,-7.12 -11.058,-17.9 -15.015,-23.8 -4.024,-6.01 -7.227,-11.58 -7.227,-12.57 0,-1.01 -2.894,-4.23 -6.676,-7.45 -3.781,-3.21 -6.672,-7.02 -6.672,-8.78 0,-1.75 -2.445,-5.37 -5.558,-8.23 -3.117,-2.87 -5.563,-6.34 -5.563,-7.9 0,-1.51 -3.554,-7.45 -7.785,-13.01 -4.23,-5.56 -7.785,-11.2 -7.785,-12.35 0,-1.17 -1.777,-3.4 -4.004,-5 -2.172,-1.57 -5.68,-6.45 -7.672,-10.68 -1.992,-4.22 -5.859,-10.12 -8.453,-12.9 -2.703,-2.89 -4.25,-6.42 -3.559,-8.12 0.633,-1.55 -0.222,-3.59 -1.781,-4.22 -1.656,-0.68 -7.289,-7.01 -12.566,-14.13 -5.277,-7.11 -12.856,-16.19 -16.906,-20.24 -4.004,-4 -7.34,-8.7 -7.34,-10.34 0,-1.63 -3.559,-5.7 -7.785,-8.9 -4.227,-3.2 -7.786,-7.22 -7.786,-8.79 0,-1.59 -7.226,-7.72 -16.125,-13.68 -8.898,-5.95 -20.113,-13.91 -25.023,-17.77 -14.457,-11.34 -34.938,-22.64 -45.598,-25.14 -5.562,-1.31 -13.964,-3.55 -18.906,-5.05 -20.242,-6.15 -50.48,-1.13 -63.394,10.53 -9.942,8.97 -18.528,29.76 -18.356,44.44 0.066,5.34 -0.793,10.35 -1.883,11.03 -2.551,1.59 -2.047,37.02 0.571,40.35 1.332,1.7 1.203,4.34 -0.348,7.23 -1.672,3.12 -1.707,5.94 -0.113,8.9 1.316,2.44 1.511,4.87 0.445,5.56 -1.043,0.67 -1.441,8.45 -0.891,17.35 0.555,8.9 1.203,20.26 1.446,25.35 0.246,5.12 1.488,10.58 2.781,12.24 1.301,1.67 3.027,9.9 3.894,18.57 0.868,8.68 2.493,16.51 3.668,17.69 1.176,1.17 2.114,4.78 2.114,8.11 0,3.34 1.336,7.1 3.004,8.46 1.601,1.3 2.847,4.78 2.668,7.45 -0.176,2.67 0.601,6.3 1.668,7.79 1.097,1.51 2.324,7 2.714,12.12 0.692,9.04 11.528,41.15 18.02,53.38 1.652,3.11 3.066,7.63 3.066,9.78 0,6.68 7.438,23.14 10.453,23.14 1.93,0 2.457,1.78 1.586,5.34 -1.738,7.11 0.766,14.68 4.868,14.68 2.152,0 3.113,2.78 3.113,9 0,5.15 2.383,13.68 5.558,19.91 3.067,6.01 5.563,12.45 5.563,14.35 0,1.93 2.445,4.43 5.559,5.67 4.449,1.78 5.296,3.34 4.226,7.79 -0.746,3.11 -0.402,5.56 0.781,5.56 1.176,0 2.754,3.89 3.559,8.78 0.84,5.12 3.305,10.09 5.894,11.91 2.446,1.71 3.848,3.71 3.114,4.44 -0.731,0.74 1.265,4.45 4.426,8.23 6.503,7.79 7.316,13.27 3,20.24 -2.067,3.34 -2.145,4.84 -0.309,6 4.012,2.54 9.348,16.91 10.16,27.37 0.703,9.12 0.383,9.66 -6.933,11.56 -7.254,1.9 -8.196,1.45 -17.129,-8.11 -5.196,-5.57 -10.957,-13.08 -12.789,-16.69 -1.86,-3.65 -6.34,-9.07 -10.122,-12.23 -3.781,-3.16 -6.785,-6.56 -6.785,-7.67 0,-3.34 -21.383,-24.92 -24.687,-24.92 -5.719,0 -13.446,-13.12 -31.692,-53.83 -4.191,-9.34 -10.105,-19.55 -13.019,-22.46 -2.891,-2.89 -5.031,-6.31 -4.668,-7.45 0.367,-1.16 -1.336,-3.96 -3.781,-6.23 -2.45,-2.26 -4.45,-5.02 -4.45,-6.12 0,-1.1 -3.507,-9.11 -7.785,-17.79 -4.277,-8.68 -7.601,-16.9 -7.379,-18.24 0.516,-3.08 -10.105,-38.03 -16.957,-55.83 -5.996,-15.57 -10.007,-27.86 -11.402,-34.92 -0.523,-2.67 -1.773,-5.49 -2.742,-6.22 -2.719,-2.02 -7.379,-16.03 -8.512,-25.59 -0.578,-4.89 -2.004,-9.85 -3.168,-11.01 -1.117,-1.12 -2.113,-3.89 -2.113,-5.89 0,-2 -1.621,-5.09 -3.446,-6.57 -1.941,-1.56 -3.253,-4.33 -3.003,-6.33 0.246,-1.96 -0.629,-7.57 -1.942,-12.46 -3.879,-14.46 -4.941,-30.55 -2.234,-33.81 1.562,-1.89 1.777,-6.56 0.617,-13.45 -0.973,-5.79 -2.059,-13.99 -2.391,-18.13 -1.355,-16.69 -3.656,-26.7 -6.73,-29.27 -3.559,-2.98 -4.246,-13.22 -0.887,-13.22 4.203,0 2.223,-3.89 -2.672,-5.25 -4.668,-1.3 -4.777,-1.68 -1.222,-4.42 2.679,-2.07 3.894,-6.23 3.894,-13.35 0,-8.9 -0.625,-10.34 -4.449,-10.34 -3.852,0 -4.449,-1.45 -4.449,-10.79 0,-6.01 -0.641,-11.43 -1.446,-12.23 -0.793,-0.8 -1.699,-8.24 -2.003,-16.47 -0.305,-8.23 -1.481,-17.52 -2.61,-20.57 -2.074,-5.62 -1.867,-24.69 0.567,-51.82 1.574,-17.58 2.8,-21.58 6.605,-21.58 1.539,0 4.137,-1.56 5.559,-3.34 1.48,-1.85 6.785,-4.47 11.902,-5.89 5.113,-1.42 11.211,-4.3 13.68,-6.45 2.453,-2.15 11.675,-7.58 20.574,-12.12 8.894,-4.55 15.527,-9.23 14.789,-10.46 -0.848,-1.41 -2.223,-1.33 -3.781,0.22 -1.313,1.32 -4.559,2.45 -7.004,2.45 -2.528,0 -7.785,1.99 -11.789,4.45 -4.051,2.49 -10.899,4.4 -15.571,4.34 -8.23,-0.11 -8.273,-0.16 -3.336,-3.56 2.668,-1.84 5.004,-4.7 5.004,-6.12 0,-4.5 15.348,-18.54 21.575,-19.75 9.121,-1.76 29.812,0.58 36.703,4.17 3.336,1.73 7.023,5 8.297,7.35 2.519,4.65 21.73,12.32 40.191,16.06 11.789,2.39 20.203,6.37 26.246,12.41 1.5,1.5 4.34,2.89 5.895,2.89 1.656,0 3.55,1.45 4.226,3.23 0.664,1.75 4.781,4.72 9.008,6.51 9.965,4.2 11.969,5.83 30.043,24.52 35.504,36.7 40.301,41.37 42.469,41.37 1.23,0 2.226,1.44 2.226,3.23 0,1.69 2,3.85 4.227,4.55 2.355,0.75 8.504,6.45 13.902,12.91 5.332,6.37 17.41,19.35 26.914,28.91 9.5,9.57 17.239,17.7 17.239,18.13 0,0.42 3.238,4.23 7.003,8.23 3.914,4.16 10.692,12.9 15.348,19.8 4.66,6.89 9.914,13.62 11.902,15.23 2,1.63 3.559,4.11 3.559,5.67 0,1.55 3.93,7.01 8.895,12.35 4.968,5.34 8.898,10.35 8.898,11.34 0,0.98 4.531,7.12 10.008,13.57 5.48,6.45 11.281,13.3 12.816,15.13 3.93,4.67 17.215,26.47 17.215,28.25 0,2.44 20.734,31.8 22.465,31.8 0.984,0 6.394,6.45 12.121,14.46 5.73,8.01 12.23,15.5 14.57,16.79 2.223,1.23 4.227,3.6 4.227,5.01 0,4.67 11.582,19.83 13.594,17.79 0.964,-0.98 0.304,-7.23 -1.473,-13.9 -1.773,-6.67 -3.227,-15.87 -3.227,-20.46 0,-4.67 -1.074,-11.08 -2.445,-14.57 -1.328,-3.38 -2.902,-9.79 -3.449,-14.01 -0.547,-4.26 -3.016,-13.68 -5.449,-20.8 -2.434,-7.12 -4.801,-17.55 -5.227,-23.02 -0.43,-5.56 -1.863,-11.1 -3.223,-12.46 -1.312,-1.31 -2.449,-4.56 -2.449,-7.01 0,-2.5 -1.961,-8.78 -4.336,-13.9 -2.375,-5.11 -4.246,-12.16 -4.136,-15.57 0.183,-5.75 -2.379,-16.01 -10.731,-42.93 -1.66,-5.34 -3.09,-12.36 -3.148,-15.45 -0.063,-3.12 -1.516,-8.18 -3.227,-11.24 -1.746,-3.11 -3.164,-7.52 -3.226,-10.01 -0.059,-2.4 -1.497,-7.12 -3.114,-10.23 -1.617,-3.11 -3.722,-9.79 -4.558,-14.46 -0.852,-4.73 -3.629,-14.23 -6.118,-20.91 -2.488,-6.67 -4.914,-14.25 -5.339,-16.68 -0.426,-2.44 -3.84,-13.79 -7.563,-25.13 -3.719,-11.35 -6.785,-23 -6.785,-25.81 0,-2.89 -0.723,-5.84 -1.668,-6.78 -0.922,-0.92 -3.16,-5.45 -5.004,-10.12 -1.832,-4.65 -11.348,-17.02 -21.129,-27.47 -9.738,-10.41 -26.254,-29.14 -36.48,-41.37 -10.223,-12.24 -19.539,-22.36 -20.574,-22.36 -1.02,0 -1.891,-1.33 -1.891,-2.89 0,-1.63 -2.891,-5.06 -6.672,-7.89 -3.781,-2.84 -6.672,-6.6 -6.672,-8.68 0,-2.03 -4.672,-8.27 -10.457,-13.96 -15.125,-14.9 -20.859,-21.66 -30.101,-35.53 -4.45,-6.67 -10.176,-13.5 -12.606,-15.01 -2.461,-1.54 -6.133,-6.01 -8.227,-10.01 -2.101,-4.02 -6.847,-10.79 -10.679,-15.24 -3.809,-4.42 -10.875,-13.23 -15.793,-19.69 -4.914,-6.44 -9.918,-12.87 -11.18,-14.34 -4.183,-4.89 -12.176,-16.72 -12.176,-18.02 0,-0.74 -5.683,-8.45 -12.789,-17.35 -7.105,-8.89 -14.371,-19.47 -16.347,-23.8 -1.934,-4.22 -6,-10.43 -8.899,-13.57 -2.98,-3.23 -7.203,-9.11 -9.562,-13.34 -2.317,-4.14 -7.949,-11.79 -12.457,-16.908 -4.551,-5.164 -16.285,-21.574 -26.246,-36.699 -9.961,-15.125 -19.907,-29.844 -22.243,-32.922 -2.359,-3.097 -6.882,-10.676 -10.234,-17.125 -3.348,-6.449 -7.527,-12.797 -9.453,-14.347 -1.891,-1.528 -5.805,-7.895 -8.672,-14.125 -2.867,-6.219 -9.801,-17.571 -15.348,-25.133 -5.55,-7.563 -10.121,-14.645 -10.121,-15.684 0,-1.035 -2.558,-3.043 -5.672,-4.445 -4.449,-2.008 -5.359,-3.543 -4.226,-7.117 0.844,-2.672 0.062,-6.129 -1.891,-8.344 -1.812,-2.051 -4.965,-7.34 -6.894,-11.566 -1.957,-4.282 -6.012,-11.79 -9.012,-16.68 -3.035,-4.957 -8.895,-15.793 -13.234,-24.469 -4.336,-8.676 -9.805,-17.293 -12.344,-19.465 -2.43,-2.074 -4.559,-6.226 -4.559,-8.894 0,-2.719 -2.39,-8.563 -5.226,-12.789 -2.875,-4.286 -7.082,-11.789 -9.344,-16.684 -2.262,-4.894 -6.418,-11.75 -9.231,-15.238 -2.871,-3.559 -5.117,-7.703 -5.117,-9.453 0,-4.446 -7.867,-19.418 -12.011,-22.852 -1.957,-1.621 -3.559,-4.949 -3.559,-7.398 0,-2.442 -2.004,-7.004 -4.445,-10.121 -2.446,-3.114 -4.45,-6.973 -4.45,-8.563 0,-4.004 -7.168,-18.684 -9.121,-18.684 -1.781,0 -8.675,-12.902 -8.675,-16.238 0,-1.121 -1.957,-4.449 -4.446,-7.562 -2.492,-3.114 -3.965,-6.344 -3.347,-7.34 1.66,-2.68 -5.106,-17.043 -8.664,-18.391 -2.04,-0.773 -2.731,-3.183 -2.004,-6.965 0.597,-3.113 -0.086,-7.222 -1.481,-8.898 -4.312,-5.176 -20.496,-39.594 -23.32,-49.602 -0.817,-2.89 -2.363,-5.117 -3.559,-5.117 -1.207,0 -2.113,-1.668 -2.113,-3.89 0,-2.149 -1.496,-6.786 -3.336,-10.344 -1.836,-3.551 -4.937,-11.899 -6.894,-18.574 -1.961,-6.672 -5.559,-14.122 -8.008,-16.571 -2.45,-2.445 -3.899,-5.75 -3.227,-7.34 0.676,-1.597 -0.715,-6.671 -3.113,-11.343 -2.399,-4.672 -4.336,-10.094 -4.336,-12.121 0,-1.989 -1.844,-6.118 -4.02,-9.012 -5.527,-7.34 -10.207,-18.07 -9.507,-21.797 0.5,-2.66 -1.34,-7.34 -9.086,-23.133 -0.985,-2 -1.856,-5.09 -1.856,-6.562 0,-1.532 -2.496,-7.672 -5.562,-13.68 -3.063,-6.004 -5.559,-12.496 -5.559,-14.457 0,-2.016 -1.496,-6.449 -3.449,-10.23 -1.895,-3.672 -4.27,-10.676 -5.277,-15.571 -1.786,-8.679 -7.02,-24.469 -12.5357,-37.812 -1.5,-3.625 -3.5234,-10.235 -4.4296,-14.457 -0.9063,-4.227 -3.1915,-8.918 -5.0039,-10.262 -2.8321,-2.102 -4.5235,-8.426 -8.2657,-30.891 -0.5937,-3.558 -2.5742,-8.691 -4.414,-11.453 -1.7774,-2.672 -3.3633,-6.875 -3.3946,-9.008 -0.0625,-4.226 -4.6133,-18.019 -7.3398,-22.246 -0.9453,-1.465 -1.0703,-5.226 -0.2735,-8.34 0.793,-3.113 0.3399,-7.027 -1.0039,-8.675 -1.3671,-1.676 -2.8867,-6.34 -3.4453,-10.563 -0.5586,-4.226 -1.1015,-7.562 -1.2226,-7.562 -1.7149,0 -1.6367,-27.582 0.1054,-36.7035 4.793,-25.1328 9.8086,-32.6015 26.8086,-39.9179 8.8946,-3.8321 13.211,-4.4571 21.5746,-3.1211 5.781,0.9218 11.449,1.7812 12.679,1.9257 4.668,0.5391 36.161,16.7422 38.836,19.9844 1.469,1.7774 4.004,3.336 5.426,3.336 1.469,0 6.117,2.9453 10.344,6.5625 4.226,3.6132 8.672,6.6054 9.898,6.664 2.852,0.1328 16.68,14.7969 16.68,17.6919 0,1.21 2.227,2.914 4.894,3.746 6.891,2.144 26.817,22.945 31.567,32.953 2.109,4.449 4.59,8.008 5.582,8.008 3.949,0 20.633,19.351 21.859,25.355 0.774,3.781 3.282,6.992 6.387,8.172 4.895,1.855 20.84,22.957 20.887,27.641 0.011,1.218 3.691,5.742 8.14,10.011 4.465,4.282 11.922,13.789 16.571,21.129 4.648,7.34 10.504,16 13.011,19.238 2.582,3.34 4.563,7.055 4.563,8.567 0,1.512 1.785,5.226 4.113,8.562 2.25,3.223 7.391,11.789 11.344,18.907 3.953,7.117 10.656,17.546 14.793,23.023 4.199,5.559 7.562,11.836 7.562,14.121 0,2.266 2,5.219 4.45,6.563 2.445,1.347 4.449,3.8 4.449,5.449 0,1.601 1.555,4.25 3.336,5.672 1.847,1.48 4.476,6.785 5.894,11.902 1.418,5.113 4.739,12.203 7.449,15.902 2.774,3.782 4.942,7.493 5.004,8.563 0.067,1.07 2.528,4.449 5.672,7.785 3.024,3.203 6.68,10.012 8.008,14.902 1.332,4.895 3.922,10.993 5.672,13.348 1.762,2.367 3.262,6.563 3.305,9.231 0.074,4.511 6.968,16.906 13.984,25.136 1.516,1.778 2.902,4.371 2.973,5.559 0.449,7.785 16.047,41.258 20.554,44.125 1.438,0.914 2.672,4.363 2.672,7.48 0,5.485 2.996,13.121 14.664,37.368 2.996,6.226 5.352,13.226 5.352,15.902 0,2.672 1.426,5.914 3.226,7.34 1.813,1.441 3.86,5.672 4.672,9.675 0.813,4.004 2.274,8.141 3.336,9.454 1.039,1.285 4.539,9.789 7.785,18.906 3.243,9.121 7.094,17.605 8.563,18.863 3.336,2.867 10.558,23.313 9.086,25.734 -0.645,1.071 -0.188,2.325 1.144,3.145 4.34,2.656 16.2,32.668 18.977,48.016 0.965,5.339 2.973,8.621 5.715,9.343 2.89,0.758 3.804,2.235 2.89,4.668 -0.75,2.004 -0.121,5.02 1.438,6.899 3.652,4.394 12.133,22.687 14.023,30.25 0.813,3.246 3.641,8.562 6.45,12.121 2.796,3.543 6.183,11.789 7.675,18.684 1.489,6.894 3.602,16.714 4.782,22.242 1.14,5.34 3.546,10.937 5.226,12.156 4.356,3.156 9.008,17.316 7.227,21.988 -0.934,2.446 -0.188,4.254 2.117,5.117 2.086,0.782 3.558,4.004 3.558,7.786 0,7.531 5.672,22.91 11.653,31.582 2.316,3.363 4.676,9.675 5.363,14.347 0.676,4.621 4.25,14.793 8.008,22.801 3.754,8.008 8.023,17.434 9.562,21.129 1.575,3.781 3.891,9.133 5.34,12.348 1.407,3.121 2.856,9.117 3.223,13.343 0.363,4.141 2.871,12.235 5.449,17.571 2.582,5.342 4.785,11.282 4.785,12.902 0,1.6 1.555,3.57 3.336,4.23 1.981,0.72 3.336,4.11 3.336,8.34 0,4 1.168,8.28 2.668,9.79 1.485,1.48 2.918,6.22 3.227,10.67 0.308,4.45 2.09,9.74 4.004,11.9 1.968,2.23 2.968,4.33 2.336,4.91 -1.082,1 3.238,13.44 14.16,40.8 3.375,8.45 9.597,26.75 11.722,34.48 1.164,4.22 3.364,10.17 4.813,13.01 1.476,2.89 2.719,6.32 2.781,7.67 0.258,5.56 8.266,21.58 10.785,21.58 1.809,0 2.895,3.33 2.895,8.9 0,4.89 1.551,10.65 3.445,12.79 1.918,2.16 4.141,9.56 5.004,16.68 0.867,7.12 2.199,12.79 3.004,12.79 0.801,0 2.785,3.22 4.449,7.23 1.637,3.94 5.934,13.9 9.453,21.91 3.52,8 6.449,15.74 6.449,17.01 0,1.27 1.981,7.01 4.34,12.57 3.016,7.12 5.657,10.23 8.672,10.23 2.973,0 6.25,3.78 10.406,12.01 7.418,14.68 46.301,54.04 54.434,55.11 3.781,0.49 5.348,1.97 4.895,4.62 -0.383,2.22 0.855,4.51 2.89,5.33 2.504,1.02 3.164,3.23 2.231,7.46 -1.524,6.89 2.906,11.99 9.336,10.75 4.949,-0.97 9.562,7.26 9.562,17.05 0,5.56 1.082,7.61 4.449,8.45 2.672,0.67 4.45,2.89 4.45,5.56 0,2.45 0.55,5.85 1.222,7.56 0.758,1.93 -1.109,4.18 -4.89,5.9 -5.618,2.55 -6.637,2.22 -12.457,-4 -3.536,-3.79 -8.262,-6.79 -10.676,-6.79 -3.074,0 -4.34,-1.55 -4.34,-5.34 0,-7.17 -9.785,-14.68 -19.129,-14.68 -8.23,0 -11.793,-3.25 -6.004,-5.47 5.098,-1.96 -0.445,-5.6 -6.23,-4.09 -2.703,0.71 -7.227,-1.53 -12.567,-6.23 l -8.34,-7.34 -0.777,6.23 c -0.418,3.33 0.356,7.36 1.668,8.67 1.332,1.34 2.445,4.67 2.445,7.34 0,2.67 1.516,5.45 3.336,6.12 1.782,0.65 2.715,2.78 2.004,4.56 -1.172,2.93 4.16,23.58 11.254,43.59 1.516,4.29 4.609,13.8 6.871,21.14 2.266,7.34 4.719,14.34 5.449,15.57 0.743,1.23 2.672,6.67 4.34,12.23 1.668,5.56 3.844,10.95 4.895,12.12 1.07,1.2 1.89,4.67 1.89,8.01 0,3.25 0.946,8.78 2.114,12.34 1.152,3.53 4.328,14.02 7.004,23.14 2.675,9.12 5.8,17.84 6.894,19.24 1.106,1.41 3,8.89 4.227,16.68 1.226,7.78 4.172,17.92 6.562,22.58 2.399,4.67 4.336,9.94 4.336,11.79 0,1.8 1.633,5.78 3.563,8.67 2.074,3.11 2.953,7.24 2.109,9.9 -1.066,3.37 0.418,6.45 5.672,11.79 5.695,5.78 7.187,9.23 7.453,17.24 0.187,5.56 0.926,11.49 1.668,13.34 0.727,1.82 3.055,8.9 5.117,15.57 2.063,6.67 5.094,13.75 6.672,15.57 1.59,1.84 3.594,7.34 4.449,12.24 0.856,4.89 2.907,11 4.559,13.56 1.617,2.52 3.722,8.68 4.562,13.35 0.836,4.67 2.305,9.7 3.18,10.9 3.254,4.45 11.332,34.6 9.895,36.92 -0.813,1.32 0.929,5.12 3.781,8.23 9.969,10.9 11.437,13.82 11.75,23.36 0.219,6.67 2.023,11.18 6.312,15.79 3.317,3.56 6.008,9.09 6.008,12.34 0,3.34 1.301,7.78 3.004,10.24 1.691,2.44 3.07,5.79 3.156,7.67 0.457,9.79 5.996,33.01 9.024,37.81 1.902,3.02 3.754,9.68 4.054,14.57 0.305,4.9 1.801,12.06 3.278,15.68 5.078,12.46 8.926,28.61 8.746,36.7 -0.067,3.09 1.758,10.9 4.105,17.57 6.731,19.13 -1.097,23.8 -16.683,9.94 z m -273.59,-811.24 c -0.738,-4 -3.219,-9.91 -5.559,-13.23 -2.347,-3.34 -4.226,-8.38 -4.226,-11.35 0,-2.94 -0.899,-8.23 -2.004,-11.79 -1.11,-3.58 -3.188,-10.9 -4.668,-16.45 -1.485,-5.57 -4.055,-13.72 -5.785,-18.36 -1.742,-4.67 -4.028,-11.96 -5.192,-16.57 -1.937,-7.68 -7.297,-23.8 -10.57,-31.8 -0.727,-1.78 -1.211,-4.07 -1.031,-4.9 0.183,-0.85 -2.668,-9.01 -6.34,-18.12 -3.672,-9.13 -6.672,-18.48 -6.672,-20.8 0,-2.33 -2.652,-9.68 -5.895,-16.35 -3.246,-6.67 -6.144,-15.82 -6.453,-20.35 -0.297,-4.45 -2.086,-11.09 -3.89,-14.461 -1.809,-3.379 -5.067,-12.789 -7.117,-20.574 -2.051,-7.785 -5.157,-16.434 -6.786,-18.907 -1.644,-2.496 -4.16,-9.343 -5.558,-15.128 -1.403,-5.782 -3.465,-11.118 -4.563,-11.786 -1.086,-0.664 -2,-4.226 -2,-7.785 0,-3.781 -1.886,-8.164 -4.449,-10.344 -2.453,-2.085 -4.449,-6.671 -4.449,-10.234 0,-6.23 -6.055,-23.351 -12.586,-35.586 -1.781,-3.336 -3.594,-7.984 -4.074,-10.457 -1.219,-6.226 -17.004,-45.355 -19.293,-47.82 -1.004,-1.082 -1.86,-3.895 -1.86,-6.117 0,-2.266 -2.496,-9.008 -5.562,-15.016 -3.063,-6.004 -5.559,-12.297 -5.559,-14.012 0,-1.711 -2.004,-4.914 -4.449,-7.117 -2.746,-2.473 -4.449,-6.894 -4.449,-11.566 0,-6.887 -2.25,-12.68 -8.043,-20.688 -1.305,-1.804 -2.512,-5.781 -2.633,-8.672 -0.121,-2.894 -1.445,-6.105 -2.891,-7.008 -1.484,-0.925 -2.945,-4.335 -3.285,-7.675 -0.66,-6.442 -10.269,-30.473 -22.234,-55.606 -4.235,-8.898 -7.625,-16.656 -7.625,-17.461 0,-0.808 -2.457,-6.562 -5.559,-13.011 -3.101,-6.454 -5.562,-14.813 -5.562,-18.907 0,-4.004 -1.012,-7.34 -2.223,-7.34 -2.402,0 -9.074,-9.566 -9.777,-14.015 -0.25,-1.586 -2.664,-6.004 -5.348,-9.785 -2.683,-3.782 -4.894,-8.254 -4.894,-9.899 0,-1.652 -4.004,-11.011 -8.899,-20.797 -4.89,-9.789 -8.894,-18.945 -8.894,-20.351 0,-1.367 -1.559,-3.805 -3.336,-5.231 -1.836,-1.464 -3.34,-4.668 -3.34,-7.117 0,-5.113 -8.891,-22.176 -12.899,-24.754 -1.484,-0.953 -2.671,-3.492 -2.671,-5.718 0,-8.672 -12.551,-31.364 -17.348,-31.364 -1.781,0 -2.684,-1.668 -2.113,-3.89 0.554,-2.164 -1.766,-8.34 -5.227,-13.903 -3.445,-5.535 -8.762,-14.679 -11.902,-20.465 -3.137,-5.781 -7.657,-11.546 -10.118,-12.898 -2.449,-1.348 -4.449,-3.949 -4.449,-5.785 0,-3.793 -18.453,-33.809 -27.215,-44.262 -3.355,-4.004 -6.152,-8.402 -6.152,-9.676 0,-1.23 -2,-3.39 -4.223,-4.562 -2.328,-1.223 -4.878,-5.672 -5.671,-9.895 -0.797,-4.226 -2.997,-8.976 -4.895,-10.566 -1.906,-1.602 -4.344,-5.227 -5.449,-8.121 -1.098,-2.863 -5.117,-6.949 -8.899,-9.047 -8.675,-4.805 -27.402,-22.543 -29.312,-27.762 -0.731,-2.004 -2.379,-3.781 -3.496,-3.781 -1.16,0 -2.613,-2.004 -3.227,-4.449 -0.601,-2.41 -3.558,-5.547 -6.449,-6.84 -14.012,-6.277 -32.398,-19.684 -33.625,-24.524 -0.566,-2.226 -3.023,-4.804 -5.188,-5.449 -2.304,-0.687 -9.007,-3.508 -15.238,-6.41 -22.019,-10.266 -27.367,-11.016 -43.152,-6.043 -8.008,2.524 -14.703,4.309 -15.012,4 -0.308,-0.305 -0.855,-8.008 -1.222,-17.129 -0.52,-12.898 -1.407,-16.57 -4.004,-16.57 -6.278,0 -8.469,43.375 -2.575,50.937 1.039,1.336 2.059,6.895 2.243,12.235 0.32,9.304 3.265,22.91 7.031,32.472 0.98,2.493 2.976,9.344 4.531,15.571 1.559,6.23 4.297,13.57 6.231,16.683 1.929,3.114 3.683,7.028 3.988,8.899 1.59,9.785 4.097,17.547 7.762,24.019 2.265,4.004 4.152,9.262 4.152,11.567 0,2.226 0.949,4.808 2,5.449 1.121,0.684 2.641,4.562 3.449,8.789 0.809,4.227 2.867,8.738 4.672,10.23 1.777,1.473 2.676,3.567 2,4.672 -0.734,1.2 -0.422,2 0.781,2 1.11,0 2.696,4.118 3.559,9.231 0.867,5.144 4.804,15.238 8.894,22.801 4.094,7.562 8.082,18.492 9.012,24.687 0.934,6.231 2.84,13.082 4.336,15.57 1.488,2.481 5.477,11.344 9.008,20.02 3.531,8.676 7.668,17.148 9.344,19.129 1.668,1.976 3,5.34 3,7.562 0,4.672 6.886,16.684 9.566,16.684 0.988,0 1.492,1.777 1.133,4.004 -0.754,4.672 8.804,24.91 11.765,24.91 1.082,0 2.004,3.227 2.004,7.008 0,4.035 2.36,10.121 5.563,14.347 3.031,4.004 5.558,8.352 5.558,9.563 0,1.238 1.977,5.785 4.45,10.234 2.472,4.446 4.449,9.145 4.449,10.563 0,1.406 2.305,5.117 5.113,8.23 2.867,3.176 6.34,10.567 7.899,16.793 1.554,6.231 5.175,14.793 8.23,19.465 3.051,4.672 5.449,9.465 5.449,10.899 0,1.402 2.375,5.671 5.258,9.453 5.938,7.785 14.762,25.199 14.762,29.136 0,1.375 3.418,6.454 7.785,11.567 4.367,5.117 7.785,11.027 7.785,13.457 0,2.41 2.469,7.008 5.559,10.344 3.09,3.336 5.562,7.589 5.562,9.566 0,2 1.313,5.113 3,7.117 1.641,1.942 5.938,9.121 9.453,15.793 3.52,6.672 7.715,13.043 9.235,14.012 1.496,0.957 2.777,3.113 2.777,4.672 0,1.566 1.887,5.34 4.117,8.23 2.305,2.988 5.434,9.008 7.117,13.68 1.68,4.668 4.371,8.34 6.118,8.34 1.711,0 3.613,2.004 4.226,4.449 0.61,2.445 1.863,4.449 2.777,4.449 0.918,0 2.325,3.113 3.118,6.895 0.777,3.722 4.004,10.121 7.004,13.902 3.004,3.781 7.355,9.41 9.453,12.234 2.156,2.891 5.633,6.817 7.785,8.786 2.226,2.031 3.894,4.703 3.894,6.226 0,1.512 2.411,5.563 5.559,9.344 3.152,3.781 5.563,7.586 5.563,8.785 0,1.176 3.46,5.672 7.785,10.121 4.324,4.449 7.785,9.985 7.785,12.457 0,4.446 5.406,8.012 8.898,5.86 3.414,-2.102 4.93,3.257 1.926,6.816 -2.383,2.824 -1.926,4.09 2.965,8.23 3.113,2.637 6.566,7.461 7.48,10.454 1.618,5.308 10.203,16.46 28.766,37.371 4.738,5.336 8.879,11.101 9.109,12.675 0.653,4.45 10.16,16.462 14.036,17.742 1.968,0.65 6.886,8.17 11.007,16.85 4.864,10.23 9.348,16.53 12.903,18.13 2.89,1.29 5.086,3.43 4.672,4.56 -0.422,1.14 3.082,6.22 7.671,11.12 4.594,4.89 8.454,10.43 8.454,12.12 0,1.66 1.558,3.69 3.335,4.34 1.782,0.65 3.336,2.05 3.336,3 0,1.79 12.903,22.11 15.571,24.53 2.375,2.14 10.351,14.62 11.629,18.17 0.699,1.96 4.386,4.92 8.168,6.57 3.781,1.65 6.894,4.31 6.894,5.89 0,5.56 11.625,23.03 16.906,25.4 2.891,1.31 5.34,3.22 5.34,4.18 0,3.34 13.789,17.7 20.238,21.09 4.45,2.33 6.454,5.04 6.454,8.72 0,3.12 1.851,6.36 4.449,7.79 2.445,1.34 4.445,3.44 4.445,4.67 0,1.76 10.902,12.8 12.902,13.06 0.247,0.03 -0.152,-3.17 -0.89,-7.17"
         style="fill:url(#linearGradient3636);fill-opacity:1;fill-rule:nonzero;stroke:#000000;stroke-width:3.20000005;stroke-miterlimit:4;stroke-opacity:1;stroke-dasharray:none"
         id="path22" /><path
         d="m 2397.8,1854.18 c 0,-6.68 -9.05,-15.14 -13.35,-12.5 -2.16,1.32 -4.67,0.82 -7.12,-1.41 -2.65,-2.41 -5.78,-3.01 -10.45,-2 -3.78,0.82 -8.5,0.48 -10.9,-0.77 -2.33,-1.23 -7.12,-2.73 -10.68,-3.36 -5.61,-0.98 -14.46,-4.41 -34.25,-13.28 -3.12,-1.4 -6.84,-4.21 -8.46,-6.39 -1.64,-2.22 -3.93,-3.89 -5.33,-3.89 -1.34,0 -5.08,-2.78 -8.23,-6.12 -3.16,-3.33 -9.68,-8.08 -14.35,-10.45 -4.67,-2.37 -10.38,-6.66 -12.57,-9.46 -2.16,-2.76 -6.45,-5.14 -9.34,-5.17 -6.23,-0.07 -15.13,-6.97 -15.13,-11.73 0,-1.78 -1.55,-4.58 -3.33,-6.01 -1.78,-1.42 -3.39,-3.86 -3.45,-5.22 -0.06,-1.4 -5.11,-6.1 -11.12,-10.35 -6.01,-4.24 -11.01,-8.64 -11.01,-9.67 0,-1.04 -4,-5.9 -8.9,-10.79 -4.89,-4.89 -8.89,-9.9 -8.89,-11.12 0,-2.92 -19.8,-27.85 -23.14,-29.14 -1.59,-0.61 -4.87,-5.12 -7.3,-10.01 -4.32,-8.71 -18.72,-29.8 -29.31,-42.93 -2.87,-3.55 -6.85,-6.2 -8.87,-5.89 -2.57,0.39 -3.52,-0.78 -3.17,-3.9 0.78,-6.89 -1.4,-14.13 -5.56,-18.46 -2.07,-2.15 -6.2,-8.56 -8.96,-13.9 -2.84,-5.49 -7.67,-14.34 -10.87,-19.9 -9.72,-16.91 -22.57,-40.72 -26.42,-48.94 -2.01,-4.31 -6.02,-12.46 -8.97,-18.24 -2.94,-5.74 -7.85,-17.01 -10.9,-25.02 -3.06,-8.01 -6.46,-16.27 -7.55,-18.35 -1.79,-3.4 -6.99,-16.91 -19.09,-49.6 -5.87,-15.87 -12.54,-43.82 -14.38,-60.28 -1.04,-9.34 -2.47,-18.09 -3.13,-19.24 -0.67,-1.16 -1.37,-13.9 -1.55,-28.14 -0.35,-27.77 -0.68,-26.47 14.17,-55.83 11.14,-22.02 43.49,-57.77 60.44,-66.81 2.45,-1.3 6.46,-3.45 8.9,-4.78 19.75,-10.7 40.04,-14.28 74.52,-13.13 29.58,0.99 50.15,3.87 58.05,8.13 2.61,1.41 8.9,2.52 14.24,2.52 6,0 10.02,1.08 10.79,2.89 0.66,1.58 4.55,3.63 8.56,4.51 8.23,1.82 38.8,15.77 44.04,20.09 1.82,1.51 10.9,6.54 20.02,11.1 18.46,9.23 39.62,23.94 54.94,38.19 5.56,5.18 10.94,9.52 11.79,9.52 2.1,0 24.73,20.69 39.66,36.26 6.61,6.9 13.38,12.68 14.83,12.68 3.4,0 10.01,7.34 10.01,11.12 0,1.72 3.23,6.24 7.23,10.12 3.97,3.85 12.15,12.68 18.13,19.57 5.98,6.9 12.05,12.57 13.45,12.57 1.42,0 3.96,3.56 5.71,8.01 3.15,8.01 9.74,13.69 11.86,10.23 0.68,-1.1 0.26,-10.45 -0.91,-20.69 -2.22,-19.35 -0.85,-43.6 3.01,-53.16 1.25,-3.11 2.46,-7.02 2.74,-8.89 1.14,-7.79 10.99,-30.54 15.69,-36.26 2.8,-3.4 5.62,-8.9 6.5,-12.68 0.88,-3.78 3.39,-7.68 5.79,-9.01 2.22,-1.23 4.22,-3.7 4.22,-5.22 0,-7.3 36.48,-38.82 51.6,-44.58 12.62,-4.81 33.37,-3.71 50.72,2.69 12.01,4.43 35.39,23.36 35.52,28.76 0.04,1.49 1.85,3.23 4.07,3.93 4.54,1.42 13.63,9.87 23.81,22.1 3.65,4.38 10.94,12.79 16.12,18.57 5.17,5.79 9.45,11.82 9.45,13.35 0,1.44 1.45,2.78 3.01,2.78 1.67,0 4.12,2.44 5.55,5.56 1.44,3.11 5.01,6.49 8.12,7.67 3.78,1.44 5.14,3.22 4.23,5.56 -0.86,2.22 1.11,4.83 5.56,7.34 3.78,2.14 6.9,4.7 6.91,5.67 0.01,2.67 25.27,27.24 27.34,26.6 2.98,-0.91 1.79,3.17 -1.78,6.06 -1.78,1.45 -3.33,5.6 -3.33,8.94 0,8.23 -5.38,12.44 -11.79,9.23 -6.67,-3.34 -17.57,-3.87 -36.03,-1.77 -17.13,1.95 -18.75,2.62 -22.44,9.22 -1.4,2.52 -5.37,5.41 -9.15,6.66 -7.78,2.57 -22.91,20.94 -22.91,27.82 0,2.67 -0.86,4.14 -2,3.43 -3.91,-2.42 -20.24,29.26 -20.24,39.27 0,2.23 -0.86,5.69 -1.94,7.79 -6.36,12.46 -8.1,17.37 -7.46,21.13 0.38,2.23 -0.38,5.6 -1.61,7.12 -1.27,1.56 -2.24,5.34 -2.12,8.23 0.13,2.97 -0.41,13.34 -1.22,23.35 -1.1,13.8 -0.56,20.58 2.34,28.92 2.07,5.99 3.98,18.91 4.22,28.69 0.25,9.79 1.2,19.8 2.12,22.24 0.91,2.45 2.45,6.46 3.4,8.9 3.56,9.12 8.94,29.61 8.94,34.03 0,2.5 1.57,8.12 3.56,12.79 2.66,6.23 4.05,7.56 5.49,5.23 2.61,-4.2 7.02,7.79 6.22,16.91 -0.34,3.78 -0.01,7.63 0.75,8.89 0.73,1.23 1.08,8.68 0.77,16.69 -0.34,8.89 0.6,16.25 2.45,19.13 1.72,2.66 2.33,5.33 1.45,6.22 -2.13,2.12 -14.02,1.56 -14.02,-0.67 0,-0.96 -5.78,-6.05 -12.67,-11.16 -11.35,-8.39 -31.81,-32.69 -31.81,-37.77 0,-1.1 -4.01,-5.46 -8.9,-9.67 -4.9,-4.23 -8.9,-9.28 -8.9,-11.24 0,-2.01 -2.89,-5.1 -6.67,-7.12 -3.78,-2.01 -6.67,-4.9 -6.67,-6.67 0,-2.96 -5.6,-9.56 -25.84,-30.47 -4.31,-4.45 -7.31,-9.25 -6.53,-10.45 0.81,-1.24 0.52,-4.01 -0.64,-6.23 -3.77,-7.25 -8.93,-21.58 -12.66,-35.15 -4.41,-16.01 -22.34,-74.13 -26.84,-86.97 -1.72,-4.89 -3.12,-10.5 -3.12,-12.45 0,-5.97 -17.57,-26.22 -28.25,-32.55 -5.56,-3.29 -14.11,-9.15 -19.24,-13.16 -5.11,-4.01 -10.47,-7.23 -12.01,-7.23 -1.56,0 -2.78,-1.22 -2.78,-2.78 0,-1.52 -6.34,-6.23 -13.9,-10.35 -7.56,-4.11 -15.93,-9.36 -18.35,-11.51 -8.26,-7.34 -44.26,-23.94 -62.28,-28.71 -10.77,-2.85 -28.25,-5.19 -44.27,-5.93 -14.45,-0.67 -28.89,-2.13 -31.8,-3.23 -8.24,-3.1 -27.79,-2.36 -32.48,1.23 -2.67,2.04 -6.67,2.75 -10.9,1.92 -6.89,-1.35 -24.02,3.23 -24.02,6.42 0,0.97 -4.45,1.78 -9.79,1.78 -9.12,0 -25.68,6.92 -27.7,11.56 -0.44,1.02 -2.1,1.79 -3.88,1.79 -1.81,0 -3.12,1.44 -3.12,3.44 0,2 -1.44,3.96 -3.44,4.67 -1.87,0.67 -4.98,4.23 -6.79,7.79 -1.81,3.56 -5.88,7.72 -8.9,9.1 -6.41,2.93 -20.25,24.15 -24.3,37.28 -0.95,3.06 -3.74,8.45 -6.21,12 -5.6,8.04 -7.63,42.05 -3.31,55.61 2.47,7.79 3.23,8.37 9.58,7.38 10.45,-1.62 30.57,3.06 36.7,8.55 3.09,2.77 9.12,6.12 13.57,7.54 4.31,1.38 12.01,6.1 16.68,10.23 4.67,4.14 9.91,7.67 11.34,7.67 1.46,0 3.89,2.23 5.34,4.9 1.47,2.69 5.03,7.45 7.9,10.57 2.87,3.11 5.23,6.92 5.23,8.44 0,1.54 2,2.79 4.44,2.79 2.43,0 9.81,5.56 16.24,12.23 6.43,6.67 13.01,12.24 14.46,12.24 1.5,0 2.72,1.22 2.78,2.78 0.06,1.51 5.12,6.82 11.12,11.67 6.01,4.86 11.01,9.71 11.01,10.68 0,1.99 8.01,11.49 18.24,21.63 3.34,3.31 6.23,7.1 6.23,8.18 0,1.11 6.9,8.7 15.57,17.12 8.67,8.43 15.57,16.26 15.57,17.68 0,1.35 2,3.83 4.23,5.23 2.29,1.45 6.57,7.56 9.34,13.35 2.77,5.78 6.24,11.65 7.56,12.8 3.93,3.41 15.43,23.45 19.83,34.57 2.21,5.57 6.34,13.18 9.31,17.13 3,4.01 5.34,8.58 5.34,10.46 0,1.82 1.41,6.67 3.11,10.67 1.7,4.01 4.33,10.38 5.79,14.02 1.46,3.66 2.72,16.01 2.77,27.36 0.11,18.46 -0.43,21.25 -4.92,26.02 -7.13,7.56 -13.42,8.71 -13.42,2.45 z m -99.87,-130.57 c 3.33,-3.34 3.97,-5.37 2.22,-7.12 -1.36,-1.36 -2.45,-5.11 -2.45,-8.45 0,-6.81 -4.67,-11.47 -16.24,-16.21 -6.95,-2.84 -9.89,-2.94 -19.01,-0.58 -6.01,1.54 -12.57,2.16 -14.79,1.38 -4.01,-1.39 -25.54,2.24 -25.45,4.29 0.19,4.54 10.32,12.62 26.56,21.17 15.79,8.33 21.01,9.99 31.69,10.08 10.01,0.09 13.81,-0.9 17.47,-4.56"
         style="fill:url(#linearGradient3628);fill-opacity:1;fill-rule:nonzero;stroke:#000000;stroke-width:3.20000005;stroke-miterlimit:4;stroke-opacity:1;stroke-dasharray:none"
         id="path24" /><path
         d="m 1190.89,1809.8 c -0.61,-1.65 -4.56,-4.9 -8.78,-7.23 -4.23,-2.32 -7.73,-5.72 -7.79,-7.56 -0.06,-1.87 -3.45,-5.79 -7.68,-8.9 -4.08,-3 -9.24,-9.34 -11.23,-13.79 -1.98,-4.44 -6.63,-11.04 -10.12,-14.34 -3.56,-3.38 -6.45,-7.47 -6.45,-9.12 0,-1.72 -1.33,-3.51 -3.11,-4.18 -3.11,-1.18 -11.85,-14.18 -22.27,-33.08 -7.1,-12.9 -19.1,-47.14 -19.1,-54.49 0,-7.13 -4.84,-22.25 -7.12,-22.25 -0.95,0 -1.78,-2.34 -1.78,-5 0,-2.76 -3.6,-15.02 -8.01,-27.25 -4.4,-12.23 -9.01,-25.75 -10.23,-30.03 -1.23,-4.3 -4.97,-16.24 -8.37,-26.69 -11.99,-36.93 -21.4,-69.71 -24.56,-85.64 -0.98,-4.91 -4.41,-21.35 -7.67,-36.7 -3.25,-15.35 -6.29,-32.19 -6.78,-37.59 -0.48,-5.34 -1.39,-11.05 -2,-12.57 -0.61,-1.52 0.45,-10.67 2.34,-20.24 1.88,-9.56 3.98,-20.88 4.63,-25.02 2.79,-17.75 34.85,-55.98 58.65,-69.93 14.56,-8.55 37.59,-11.7 61.16,-8.38 16.91,2.39 28.84,5.78 32.08,9.13 1.13,1.18 3.51,2.73 19.75,12.92 11.12,6.98 26.91,21.33 26.91,24.45 0,1.19 1.56,2.8 3.34,3.45 1.78,0.65 3.39,2.57 3.45,4.11 0.06,1.56 4.12,5.98 8.78,9.57 4.68,3.59 9.86,9.5 11.24,12.79 1.76,4.22 4.21,6.12 7.89,6.12 5.34,0 7.07,3.06 3.12,5.52 -6.89,4.27 3.78,23.12 15.12,26.72 2.96,0.94 4.63,4.12 5.56,10.57 0.75,5.12 2.63,10.26 4.23,11.54 3.83,3.06 3.34,18.91 -0.67,21.45 -4.6,2.92 -13.79,2.48 -22.46,-1.08 -4.18,-1.71 -17.13,-3.85 -28.92,-4.77 -20.02,-1.56 -22.15,-1.3 -34.03,4.23 -6.9,3.2 -13.9,5.89 -15.35,5.89 -5.01,0 -16.17,13.12 -18.91,22.24 -1.46,4.9 -4.62,9.95 -7,11.24 -2.53,1.36 -4.34,4.55 -4.34,7.67 0,3.51 -2.67,7.49 -7.79,11.6 -8,6.44 -9.64,11.23 -5.33,15.53 1.73,1.74 1.41,4.01 -1.11,7.79 -4.6,6.89 -5.77,19.35 -3.29,35.14 5.6,35.82 6.41,41.52 6.51,45.6 0.06,2.47 2.15,10.9 4.67,18.91 2.63,8.31 4.78,22.02 5.07,32.25 0.46,16.24 2.52,26.1 8.59,41.15 1.24,3.08 2.45,10.24 2.69,16.02 0.25,5.78 1.49,11.74 2.78,13.34 1.3,1.61 2.78,7.34 3.34,12.9 1.7,17.05 6.64,33.81 18.27,62.06 3.21,7.79 5.26,16.05 4.53,18.24 -0.85,2.55 0.44,5.49 3.55,8.09 12.02,10.04 12.26,10.64 4.68,11.39 -7.57,0.74 -8.65,2.34 -4.45,6.55 2.13,2.13 1.89,2.66 -1.23,2.66 -2.22,0 -4.36,-1.28 -5,-3"
         style="fill:url(#linearGradient3634);fill-opacity:1;fill-rule:nonzero;stroke:#000000;stroke-width:3.20000005;stroke-miterlimit:4;stroke-opacity:1;stroke-dasharray:none"
         id="path26" /><path
         d="m 3646.74,1654.23 c -6.23,-1.13 -12.59,-2.92 -14.46,-4.07 -3.04,-1.86 -5.78,-3.15 -18.9,-8.92 -5.92,-2.6 -11.79,-6.33 -19.58,-12.44 -3.56,-2.79 -7.8,-5.06 -9.45,-5.06 -1.62,0 -4.33,-1.89 -5.9,-4.12 -1.56,-2.22 -4.63,-5.07 -6.67,-6.2 -7.12,-3.94 -44.04,-39.11 -44.04,-41.95 0,-2.89 -19.49,-23.36 -22.24,-23.36 -0.88,0 -4.01,-3.67 -7.12,-8.34 -3.11,-4.67 -9.13,-11.96 -13.68,-16.57 -4.43,-4.49 -11.2,-14.34 -14.9,-21.68 l -6.79,-13.46 4.02,-8.23 c 6.97,-14.3 17.78,-19.66 46.03,-22.82 13.57,-1.52 30.2,-3.17 36.92,-3.67 42.27,-3.13 95.52,-16.14 122.56,-29.93 4.67,-2.38 9.75,-4.31 11.35,-4.31 1.61,0 8.56,-4.44 15.68,-10.01 7.11,-5.57 13.28,-10 13.9,-10 2.89,0 43.37,-31.98 43.37,-34.26 0,-0.72 4.52,-6.01 9.9,-11.56 5.38,-5.57 10.61,-12.42 11.46,-15.02 0.87,-2.68 3.85,-7.56 6.78,-11.12 2.93,-3.56 5.23,-7.95 5.23,-10.01 0,-2.02 1.37,-7.67 3.06,-12.57 5.42,-15.78 2.72,-22.21 -13.96,-33.23 -8.01,-5.29 -19.74,-12.02 -25.8,-14.81 -6.23,-2.87 -15.19,-7.86 -20.36,-11.35 -5.11,-3.45 -9.97,-6.23 -10.9,-6.23 -0.92,0 -8.45,-3.46 -16.9,-7.78 -8.45,-4.32 -17.66,-7.79 -20.69,-7.79 -2.89,0 -6.03,-0.93 -6.68,-2 -2.64,-4.26 -28.12,-11.4 -43.69,-12.24 -9.13,-0.49 -21.92,-1.87 -28.7,-3.1 -6.67,-1.22 -16.78,-1.88 -22.24,-1.45 -37.81,2.95 -63.08,7.86 -78.96,15.34 -6.23,2.93 -15.04,7 -20.02,9.24 -4.84,2.17 -13.57,7.35 -19.13,11.34 -5.56,3.99 -10.85,7.34 -11.57,7.34 -3.47,0 -0.94,-4.89 6.33,-12.23 8.6,-8.67 9.33,-13.33 3.33,-21.13 -3.99,-5.2 -4.32,-5.26 -12.55,-2.11 -10.46,4.01 -16.5,13.3 -12.65,19.46 1.81,2.89 1.94,4.93 0.42,6.45 -2.94,2.93 6.22,20.68 10.67,20.68 3.34,0 8.66,10.47 6.45,12.68 -0.86,0.87 -5.67,0.02 -10.78,-1.89 -6.46,-2.41 -9.64,-5.05 -10.57,-8.78 -1.1,-4.41 -2.56,-5.23 -8.34,-4.67 -5.34,0.5 -7.59,-0.42 -9.46,-3.9 -1.31,-2.44 -3.78,-4.56 -5.33,-4.56 -3.71,0 -13.67,-8.45 -29.9,-25.35 -6.83,-7.12 -16.4,-17 -20.93,-21.58 -4.61,-4.67 -8.34,-9.65 -8.34,-11.12 0,-1.44 -4,-6.11 -8.68,-10.12 -9.3,-8 -11.78,-15.68 -11.78,-36.59 0,-14.2 5.56,-22.75 21.57,-33.15 40.81,-26.52 106.77,-40.27 154.59,-32.22 4.33,0.73 12.23,1.68 17.8,2.13 16.9,1.39 54.33,12.48 70.51,20.9 2.22,1.15 10.23,4.4 18.01,7.31 7.79,2.9 15.85,6.9 18.13,9 2.22,2.04 6.78,4.45 9.9,5.23 3.11,0.78 6.35,2.32 7,3.34 0.67,1.02 5.9,3.97 11.46,6.45 5.7,2.54 15.01,8.01 21.02,12.34 6,4.34 11.68,7.79 12.79,7.79 3.08,0 24.02,12.49 36.92,22.03 6.23,4.6 14.75,10.07 19.35,12.42 8.05,4.1 26.2,20.49 42.64,38.5 4.67,5.12 9.38,9.35 10.41,9.35 1.02,0 4.26,3.44 7.01,7.45 2.81,4.08 13.91,16.79 24.58,28.13 10.67,11.35 19.46,21.8 19.46,23.14 0,1.37 4.55,7.34 10.34,13.57 5.65,6.06 13.38,16.68 17.02,23.35 6.07,11.14 6.7,14.24 6.89,34.48 0.18,16.9 -0.71,24.22 -3.66,30.47 -2.11,4.45 -3.9,9.4 -3.9,10.79 0,1.4 -4.31,8.23 -9.56,15.13 -5.25,6.89 -12.2,17.08 -15.4,22.57 -5.8,9.96 -28.64,33.23 -39.54,40.29 -3.2,2.08 -13.68,7.97 -23.47,13.21 -9.79,5.23 -20.06,11.29 -23.02,13.56 -2.89,2.23 -6.77,4.12 -8.45,4.12 -1.71,0 -7.34,1.92 -12.46,4.25 -13.79,6.26 -41.8,15.77 -46.48,15.77 -2.23,0 -4.01,0.79 -4.01,1.78 0,0.98 -9.12,3.03 -20.46,4.6 -34.48,4.75 -36.39,5.89 -23.14,13.74 5.11,3.02 9.14,8.35 13.24,17.47 3.2,7.12 7.42,14.34 9.23,15.79 1.78,1.42 3.33,4.07 3.33,5.67 0,1.67 1.79,3.55 4.01,4.23 5.45,1.67 4.98,6.11 -2.26,21.24 -3.73,7.78 -8.14,13.46 -11.75,15.12 -3.12,1.44 -5.1215,4.0442 -4.4615,5.1842 0.3257,8.6102 -6.8446,15.5687 -20.0085,14.6358"
         style="fill:url(#linearGradient3622);fill-opacity:1;fill-rule:nonzero;stroke:#000000;stroke-width:3.20000005;stroke-miterlimit:4;stroke-opacity:1;stroke-dasharray:none"
         id="path28"
         sodipodi:nodetypes="csssssssssscccssssssssssssssssssssssssssssssssssssssssssssssssssssssssssssssssssssssssssssssssssscc" /><path
         d="m 4149.43,1636.04 c -6.23,-1.53 -13.08,-3.76 -15.57,-5.07 -2.4,-1.26 -8.45,-4.22 -13.12,-6.41 -14.68,-6.9 -16.91,-8.35 -16.91,-11.05 0,-1.47 -4.33,-5.41 -9.67,-8.79 -5.34,-3.37 -10.57,-8.21 -11.68,-10.79 -1.09,-2.54 -8.68,-9.72 -16.68,-15.79 -7.99,-6.05 -21.68,-18.57 -30.03,-27.47 -8.35,-8.9 -19.66,-20.76 -24.8,-26.02 -5.22,-5.34 -9.45,-10.33 -9.45,-11.13 0,-0.79 -6.06,-9.45 -13.46,-19.23 -7.4,-9.79 -15.91,-22.7 -18.91,-28.7 -3,-6 -6.35,-10.9 -7.45,-10.9 -1.11,0 -3.24,-3.22 -4.78,-7.23 -1.56,-4.05 -5.96,-12.12 -10.01,-18.35 -7.39,-11.37 -21.57,-40.26 -34.4,-70.06 -3.94,-9.16 -8.47,-23.91 -10.2,-33.26 -1.73,-9.34 -4.13,-21.72 -5.42,-27.91 -3.82,-18.46 -3.85,-61.28 -0.03,-67.84 1.81,-3.11 3.01,-6.34 2.73,-7.34 -0.52,-1.9 9.59,-32.48 12.94,-39.15 1.01,-1.99 2.85,-6.01 4.2,-9.12 5.6,-12.9 17.49,-32.69 23.4,-38.93 17.07,-18.01 24.76,-25.57 26.02,-25.57 0.83,0 4.45,-2.43 7.78,-5.23 8.68,-7.27 40.43,-23.69 45.82,-23.69 2.23,0 6.13,-1 8.23,-2.11 4.84,-2.54 26.7,-4.71 49.38,-4.89 29.37,-0.24 100.14,10.52 122.12,18.56 5.01,1.83 43.59,10.67 60.06,13.75 8,1.51 17.23,3.91 20.68,5.39 3.34,1.43 7.98,2.72 10.01,2.77 2.08,0.07 7.79,1.59 12.68,3.38 10.01,3.68 15.24,5.23 23.36,6.92 3.11,0.65 7.51,1.9 10,2.83 2.44,0.91 12.02,3.99 21.13,6.78 9.12,2.8 18.2,5.82 20.02,6.68 1.82,0.84 8.9,2.8 15.57,4.29 11.57,2.59 19.29,4.89 30.03,8.94 9.91,3.74 20.69,6.58 34.25,9.05 8.01,1.45 16.5,3.72 19.02,5.08 2.52,1.35 9.79,2.69 16.24,3 6.45,0.3 13.62,1.6 16.02,2.89 2.42,1.31 6.78,2.34 9.9,2.34 3.11,0 6.09,0.83 6.78,1.89 0.69,1.07 4.11,2.47 7.89,3.23 9.12,1.84 18.26,8.19 16.94,11.78 -0.74,2.02 0.41,3.11 3.3,3.11 7.12,0 21.9,13.63 21.95,20.24 0.05,6.45 3.89,10.9 9.42,10.9 3.96,0 21.8,24.03 21.8,29.37 0,5.14 -14.69,15.12 -22.25,15.12 -6.23,0 -6.76,0.41 -4.32,3.34 3.72,4.45 1.65,6.22 -7.25,6.22 -12.23,0 -35.82,-3.13 -39.81,-5.29 -2.1,-1.14 -9.12,-2.48 -15.79,-3.02 -17.13,-1.38 -36.48,-4.99 -41.59,-7.75 -5.84,-3.16 -15.35,-2.87 -23.58,0.71 -3.78,1.64 -8.6,2.16 -11.12,1.2 -17.97,-6.85 -68.51,-18.83 -88.98,-21.08 -7.34,-0.81 -17.1,-2.42 -21.68,-3.58 -4.58,-1.16 -21.13,-2.51 -36.7,-3 -15.66,-0.5 -43.16,-1.49 -61.39,-2.23 -18.25,-0.73 -34.13,-0.51 -35.48,0.5 -2.42,1.82 -11.79,4.9 -26.03,8.56 -8.45,2.17 -41.65,18.79 -44.57,22.31 -1.47,1.77 -3.87,3.11 -5.58,3.11 -1.66,0 -4.11,2 -5.45,4.45 -1.35,2.45 -3.85,4.45 -5.57,4.45 -1.78,0 -3.87,1.19 -4.89,2.78 -0.97,1.51 -4.56,4.55 -7.89,6.67 -4.54,2.89 -6.12,5.67 -6.12,10.79 0,4.67 -1.29,7.23 -4.01,7.93 -5.59,1.44 -15.07,17.87 -22.12,38.33 l -5.9,17.13 6.56,9.23 c 3.64,5.12 10.43,11.42 15.24,14.13 8.45,4.78 54.71,50.1 54.71,53.6 0,0.96 1.34,1.78 2.9,1.78 3.05,0 14.9,13.79 14.9,17.35 0,1.23 7.24,9.79 16.19,19.13 17.04,17.79 20.36,21.77 29.84,35.81 3.29,4.85 9.91,14.46 14.58,21.13 4.67,6.67 10.18,14.76 12.12,17.8 1.98,3.08 6.39,9.67 9.9,14.79 3.51,5.11 6.34,9.78 6.34,10.45 0,0.68 -3.56,1.52 -8.01,1.89 -8.92,0.74 -11.07,3.34 -13.09,15.79 -1.11,6.9 -2.8,9.13 -9.15,12.13 -4.67,2.2 -8.32,5.8 -9.12,9 -0.98,3.91 -5.56,7.37 -17.13,12.93 -16.9,8.12 -19.11,8.38 -35.81,4.27 z m -56.05,-102.65 c 3.85,-1.9 11.46,-7.7 16.57,-12.64 7.56,-7.29 9.44,-10.72 9.41,-17.13 -0.09,-18.01 -15.64,-38.62 -31.1,-41.21 -4.89,-0.82 -9.44,-2.39 -10.12,-3.49 -0.66,-1.09 -4.22,-2 -7.78,-2 -3.56,0 -6.56,-1.02 -6.56,-2.23 0,-1.2 -4.56,-2.22 -9.9,-2.22 -8.23,0 -10.14,-0.81 -11.35,-4.78 l -1.44,-4.79 -3,5.34 c -2.51,4.45 -2.47,6.15 0.22,10.23 1.76,2.67 3.22,6.36 3.22,8.12 0,1.72 1.56,4.47 3.34,5.9 1.78,1.42 3.34,4.12 3.34,5.78 0,5.12 20.8,45.14 25.35,48.8 1.42,1.13 3.34,3.91 4.09,5.92 1.84,4.9 6.37,5.02 15.71,0.4"
         style="fill:url(#linearGradient3620);fill-opacity:1;fill-rule:nonzero;stroke:#000000;stroke-width:3.20000005;stroke-miterlimit:4;stroke-opacity:1;stroke-dasharray:none"
         id="path30" /><path
         d="m 3086.77,1392.41 c -3.11,-2.44 -8.18,-4.45 -11.23,-4.45 -4.45,0 -5.32,-0.93 -4.36,-4.67 1.76,-6.85 -3.87,-15.29 -13.43,-20.15 -10.24,-5.19 -24.21,-19.57 -22.79,-23.44 0.54,-1.45 -2.01,-4.81 -5.57,-7.34 -3.56,-2.54 -6.57,-5.69 -6.57,-6.9 0,-2.36 -9.19,-14.46 -17.75,-23.35 -2.56,-2.67 -4.49,-5.58 -4.49,-6.79 0,-1.16 -3.11,-5.07 -6.89,-8.68 -3.74,-3.55 -8.84,-10.89 -11.13,-16.01 -2.28,-5.11 -5.04,-9.45 -6,-9.45 -2.56,0 -18.24,-23.13 -18.24,-26.91 0,-1.85 6.67,-7.75 14.9,-13.18 29.81,-19.66 42.4,-22.35 51.82,-11.07 3.16,3.78 6.73,6.67 8.24,6.67 3.99,0 11.79,9.12 11.79,13.79 0,2.03 2.89,6.16 6.23,8.9 3.46,2.85 9.13,10.79 12.79,17.91 3.65,7.11 7.3,12.78 8.23,12.78 0.94,0 1.66,2.23 1.66,5.12 0,5.43 9.12,13.75 20.47,18.69 6.69,2.91 7.98,8.67 3.7,16.68 -1.99,3.74 -1.4,5.45 3.75,10.78 3.43,3.57 8.06,6.13 10.56,5.86 5.79,-0.62 7.14,3.66 2.61,8.27 -2.64,2.68 -3.33,5.78 -2.38,10.67 1.03,5.34 0.27,7.63 -3.34,10.13 -3.43,2.37 -4.29,4.67 -3.23,8.67 0.95,3.56 0.26,6.61 -2,8.79 -1.93,1.87 -3.44,5.78 -3.44,8.89 0,6.23 -3.63,14.24 -6.46,14.24 -0.97,0 -4.33,-2 -7.45,-4.45"
         style="fill:url(#linearGradient3624);fill-opacity:1;fill-rule:nonzero;stroke:#000000;stroke-width:3.20000005;stroke-miterlimit:4;stroke-opacity:1;stroke-dasharray:none"
         id="path36" /></g></g></svg>