<?xml version="1.0" encoding="UTF-8" standalone="no"?>
<!-- Created with Inkscape (http://www.inkscape.org/) -->

<svg
   xmlns:dc="http://purl.org/dc/elements/1.1/"
   xmlns:cc="http://creativecommons.org/ns#"
   xmlns:rdf="http://www.w3.org/1999/02/22-rdf-syntax-ns#"
   xmlns:svg="http://www.w3.org/2000/svg"
   xmlns="http://www.w3.org/2000/svg"
   xmlns:sodipodi="http://sodipodi.sourceforge.net/DTD/sodipodi-0.dtd"
   xmlns:inkscape="http://www.inkscape.org/namespaces/inkscape"
   id="svg2"
   version="1.1"
   inkscape:version="0.47 r22583"
   width="584.08588"
   height="91.346489"
   xml:space="preserve"
   sodipodi:docname="background.eps"><metadata
     id="metadata8"><rdf:RDF><cc:Work
         rdf:about=""><dc:format>image/svg+xml</dc:format><dc:type
           rdf:resource="http://purl.org/dc/dcmitype/StillImage" /><dc:title></dc:title></cc:Work></rdf:RDF></metadata><defs
     id="defs6"><inkscape:perspective
       sodipodi:type="inkscape:persp3d"
       inkscape:vp_x="0 : 0.5 : 1"
       inkscape:vp_y="0 : 1000 : 0"
       inkscape:vp_z="1 : 0.5 : 1"
       inkscape:persp3d-origin="0.5 : 0.33333333 : 1"
       id="perspective10" /></defs><sodipodi:namedview
     pagecolor="#ffffff"
     bordercolor="#666666"
     borderopacity="1"
     objecttolerance="10"
     gridtolerance="10"
     guidetolerance="10"
     inkscape:pageopacity="0"
     inkscape:pageshadow="2"
     inkscape:window-width="1892"
     inkscape:window-height="1572"
     id="namedview4"
     showgrid="false"
     inkscape:zoom="1.7938242"
     inkscape:cx="321.70012"
     inkscape:cy="104.67676"
     inkscape:window-x="0"
     inkscape:window-y="26"
     inkscape:window-maximized="0"
     inkscape:current-layer="g12" /><g
     id="g12"
     inkscape:groupmode="layer"
     inkscape:label="ink_ext_XXXXXX"
     transform="matrix(1.25,0,0,-1.25,0.03380207,91.054902)"><g
       id="g14"
       transform="scale(0.1,0.1)"><path
         style="fill:#000000;fill-opacity:1;fill-rule:nonzero;stroke:none"
         d="m 823.508,727.441 c -14.86063,-27.12584 -6.89442,-60.48099 -18.86475,-80.123 7.72989,-33.60536 -19.73321,-111.1444 -25.52625,-131.502 -4.11584,-2.67591 -35.21189,-49.8158 -38.414,-72.039 -25.2414,-28.47419 -27.19592,-82.03376 -22.78562,-121.753 -1.56789,-26.25791 5.79498,-78.61577 -2.52638,-118.462 4.51979,-23.57172 1.74846,-72.16247 1.961,-105.394 C 708.45986,90.217639 732.93462,-8.9519798 726.47592,4.0897195 673.77982,10.175699 622.86319,3.124908 581.92813,8.8798825 553.70156,14.478847 525.61706,13.936315 502.246,13.4453 472.30906,17.280157 448.37393,6.8507623 419.172,14.0586 395.96558,4.174572 373.4086,13.588777 347.31077,12.678877 309.00843,-10.89089 288.19925,62.003083 297.58709,103.90404 c 6.97304,49.34071 9.21254,76.16135 33.34691,116.52596 17.53421,54.33134 63.14677,94.88303 74.375,151.816 51.39235,16.33819 -48.54886,47.96368 -41.55025,90.85925 -37.17091,17.11399 -45.15509,63.97116 -47.94975,93.35975 -2.62498,28.47815 51.33576,21.45565 72.414,-3.738 36.43925,-6.46684 87.97595,34.77641 128.765,-1.18037 35.95008,0.29036 130.42865,28.38634 87.356,-43.65563 -14.41497,-39.41683 -39.90397,-29.35256 -27.266,-47.496 -10.79671,-29.48221 -60.62252,-87.30264 -14.469,-101.211 18.56023,-33.73424 37.99785,-101.64412 34.762,-85.739 -6.35612,-37.79583 20.64473,-81.10151 11.281,-122.32312 C 600.75837,116.616 599.00881,41.311156 595.07663,36.819813 607.7663,-0.80373205 611.53741,87.563924 618.312,105.777 c -1.6993,26.41649 8.67913,84.90266 -0.152,125.18 -1.67801,51.4248 -39.45045,112.35048 -43.621,152.027 15.7623,19.14733 -0.65133,65.81794 28.031,91.235 36.74881,25.30932 46.69264,122.57554 -27.648,100.687 -52.02045,-25.96699 -105.48975,19.33125 -154.945,2.551 -27.57054,-29.40185 -67.62274,29.77611 -101.33987,16.58788 -18.59182,-26.65191 -10.3742,-28.48022 -17.16725,-47.95713 6.99389,-35.39807 21.73922,-69.69473 52.82312,-91.37387 2.89426,-37.52991 43.30127,-61.92965 29.97275,-91.0205 C 370.86789,344.70673 353.09929,316.8502 347.35563,290.85175 323.79336,270.78511 325.26972,234.11131 306.93,209.207 c -5.44771,-36.13395 -27.87876,-57.32981 -25.239,-93.793 -0.29401,-27.703059 1.28072,-60.23799 -40.906,-31.832 -59.33391,27.38886 -81.2926,106.54351 -48.004,163.102 10.401,38.27846 50.03801,100.26969 38.367,127.589 -3.2248,-30.60394 -30.32766,-92.85902 -20.687,-19.148 11.75942,47.2324 -31.40037,107.23645 -46.598,123.469 -40.9235,-2.8406 -29.99193,44.45249 15.219,28.98 28.44513,-16.09001 77.64831,-111.08734 42.871,-36.082 -12.63022,32.52336 -67.3146,72.66108 -88.93363,37.23038 -27.68996,-23.61016 15.33474,-66.11996 39.95988,-74.32263 27.15467,-34.11828 33.09758,-82.03554 14.24775,-120.36875 -1.03609,-13.7498 -34.17087,-78.98611 -12.977,-56.945 24.04712,22.41459 -16.23465,-32.7101 -10.641,-37.098 -13.6908,-19.24488 -8.67257,-73.38967 0.762,-104.574 C 186.57661,83.038523 196.61712,80.479347 214.914,57.0742 244.63242,33.986474 285.61186,37.905562 288.918,11.2891 265.23876,3.2377703 222.5962,3.8680539 230.832,9.89453 206.04419,5.8993117 177.32229,14.852153 148.03,7.960455 127.30211,15.261402 97.980637,8.9983845 79.0156,12.1758 48.123781,11.796202 57.984918,9.1454457 32.3906,12.5547 53.540121,-16.588155 150.22835,8.9423966 198.58137,-0.02372587 303.31233,1.2590975 414.31227,-2.7178347 515.5,3.86719 686.73676,-3.3086857 862.13519,0.9078864 1035.0631,-0.63873986 1343.5751,0.20365545 1652.1529,-1.6457302 1960.62,3.42578 1926.7457,13.948073 1900.4192,0.00490691 1878.4,7.5468725 1861.0428,17.950948 1830.8098,54.157507 1797.46,52.1289 c -0.9155,37.379056 -11.6803,79.87891 -1.36,110.3401 1.0213,35.90403 -13.4399,44.97396 10.6,79.269 31.3722,33.03868 28.399,41.4309 46.6155,75.83386 3.3157,41.88865 4.3574,85.73925 -10.3455,124.97252 -31.1757,17.11389 -54.641,-0.35274 -80.1562,8.33299 -53.2214,13.82657 -67.1762,-49.80906 -55.0925,-84.61062 -6.0949,-34.94109 -5.5559,-96.8112 33.9087,-115.14175 23.6681,-14.05989 28.0768,-55.86655 33.35,-16.047 -4.6347,-37.08994 3.6088,-85.33651 3.94,-131.14 12.0048,-44.28712 -14.229,-60.849496 -40.08,-68.9341 6.0478,-4.922658 -43.6302,7.732407 -33.67,-29.29687 -62.5434,-4.5002109 -126.2281,-1.8451411 -188.95,0.7001988 20.4313,33.7598482 29.1513,89.6711062 27.46,136.4047712 15.2754,78.92329 18.8423,159.81313 24.295,239.58 26.1168,9.18489 55.8517,14.21469 34.145,40.128 -17.0695,11.04967 -45.7776,24.73827 -78,30.074 -29.1146,9.17716 -69.5976,18.10911 -84.6,3.867 -1.5688,6.38009 -73.3792,6.68274 -68.81,1.711 -9.2767,15.07912 -4.3037,-12.56538 -18.0663,4.00525 -14.7158,-14.72067 -32.0134,11.10017 -54.5337,-4.32225 -32.9662,16.24595 -31.5851,-13.50632 -46.93,9.641 -9.4828,51.05958 -86.6505,66.62592 -104.2725,13.112 0.301,-35.31043 -63.9656,-24.13754 -58.7075,-21.862 -28.4745,0.40385 -43.6907,-9.71942 -67.47,-3.36875 -28.45416,-4.01386 -44.70714,-0.8093 -59.359,-7.66225 -12.30537,4.86765 -53.59734,60.34552 -61.387,100.383 -17.84381,41.8975 19.62942,104.4133 -22.449,125.371 0.4038,50.79075 -7.64725,58.16392 -54.027,53.972 z M 849,710.25 C 900.23764,682.75083 822.60389,631.34199 830.01963,696.97862 822.05214,713.54114 840.79818,712.23085 849,710.25 z m 21.688,-7.559 c 5.5445,-6.95703 -16.57642,5.71988 0,0 z m 0.632,-8.929 c -3.22733,-4.55645 -3.25316,4.54803 0,0 z m 7.688,-42.364 c 11.77881,-39.29169 -7.30579,-90.76798 17.14325,-134.17112 9.21235,-31.40092 72.65436,-80.6681 27.68875,-62.79288 -28.13909,-12.38796 -95.50712,-8.87851 -123.922,-44.774 -43.55668,-41.19569 68.56348,-7.28343 39.824,-62.844 -3.29053,-38.05138 6.18876,-81.92842 4.56275,-121.57725 5.4603,-44.06692 2.68777,-86.69303 9.94525,-132.01995 C 860.40541,48.380323 871.89786,16.873486 895.90288,6.6367175 841.60456,14.29447 731.09326,-30.334114 727.211,52.6328 c -3.06572,41.901399 9.43164,101.55656 -0.461,121.8872 -5.96658,-10.0346 0.7114,61.60699 4.043,81.996 5.83733,63.937 -5.60613,130.95466 25.1795,189.7045 21.00422,43.57153 56.80824,78.77167 63.25275,126.51738 4.66219,71.22305 -39.63586,76.18785 59.78275,78.66012 z M 415.367,560.59 c -1.6296,-4.96919 -4.50193,4.78436 0,0 z m 391.145,-19.723 c -10.46951,-7.53039 4.92949,10.83633 0,0 z M 1214.13,474.09 c -9.4861,-39.91809 -2.8974,29.18782 0,0 z m 9.78,-2.981 c -3.9065,-4.62066 -2.4186,6.3559 0,0 z m 14.59,-2.98 c -3.8163,-9.86287 -3.415,11.35898 0,0 z m -17.76,-3.297 c -5.3253,-10.92625 -2.6357,10.61799 0,0 z M 156.129,464.199 c 59.40629,-41.33194 -27.89209,0.56423 0,0 z m 1328.421,-6.344 c -1.5733,-4.62872 -3.1139,4.51936 0,0 z m -5.96,-4.554 c -7.6547,-1.44506 -1.3752,9.02408 0,0 z m -252.14,-2.926 c -3.7833,-11.80559 -3.0091,8.49024 0,0 z m -190.88,-0.129 c -4.6776,-9.38272 -0.7283,-2.79246 0,0 z m 48.83,-1.965 c -3.9154,-4.63879 -2.4428,6.36772 0,0 z m 113.76,-2.093 c -2.4055,0.53969 1.7429,5.52176 0,0 z m 99.88,-0.192 c 66.6524,-4.08534 135.6529,8.2188 202.87,-2.219 25.1648,0.26854 31.0557,-7.63595 65.25,-26.761 7.6699,-20.668 -59.453,-4.7649 -75.91,-14.774 -37.1183,2.77041 -43.8608,0.79106 -86.7863,4.81662 -28.8353,-8.66187 -64.3551,4.43709 -97.285,0.91188 -53.3978,0.15265 -121.4708,-1.23644 -180.3082,-4.18053 -51.9257,-2.36355 -104.9475,-6.85827 -150.5465,-5.54397 -18.43531,2.82119 -52.61626,-1.42418 -71.851,0.192 -34.2079,-9.2858 -80.27794,22.41864 -19.91128,24.25427 106.95226,6.71651 217.26758,14.82192 322.58828,17.40973 29.9849,0.63382 72.6427,2.73503 91.89,5.894 z m 453.48,-2.789 c -3.9233,-4.62659 -2.4344,6.36335 0,0 z m -668.39,-3.105 c -3.2323,-4.55179 -3.258,4.54335 0,0 z m 745.38,-7.082 c 26.5988,-43.42076 -7.159,-57.23176 -30.88,-53.926 -30.3709,7.85641 -53.078,-7.70946 -76.1538,-0.52375 -27.3321,77.5866 65.2349,50.0149 107.0338,54.44975 z M 191.984,427.926 c 1.74409,-19.91463 -11.88467,9.95689 0,0 z m 1388.316,-6.09 c -1.97,-13.36076 -7.4387,4.14335 0,0 z m 5.08,-7.102 c -3.1101,-4.51425 -1.574,4.62658 0,0 z M 828.008,404.652 c -4.21413,-8.91444 -4.01207,11.44129 0,0 z m 5.265,1.266 c 17.64604,-11.02222 -8.68352,-0.22743 0,0 z m 597.617,-1.902 c -3.4462,-6.03566 -3.5677,5.89235 0,0 z m -59.48,-14.52 c 45.7875,-17.01374 98.0777,4.7304 148.39,-1.144 49.2473,8.32438 27.9561,-55.057 28.35,-93.661 4.7933,-26.07224 -7.2541,-64.29332 -5.1763,-97.388 -16.9784,-33.14723 1.8502,-67.56581 -17.6537,-98.6311 -9.1783,-27.178924 -22.5633,-41.705281 -7.36,-35.4453 -9.0752,-31.520362 -87.2229,-45.086594 -74.3163,-34.815487 -24.578,13.729351 -29.6753,-37.8450206 -32.7837,-1.692313 -8.6531,-15.859869 -32.9681,14.439108 -61.39,-3.8907 -21.8966,6.518957 -57.4171,2.025093 -73.1825,-8.4331 -10.3449,10.794036 -31.8516,-0.840714 -53.5138,1.499025 -7.2032,-4.727655 -46.8786,1.136694 -73.41,-4.177744 -43.6985,-2.999982 -95.8315,2.388122 -139.1637,4.518119 -32.06155,6.389133 -46.4499,-1.509481 -76.074,6.720675 -43.26711,-4.215796 -63.42293,42.271051 -65.517,81.931925 -3.28525,63.79131 -0.47529,128.38587 -9.4785,191.503 -0.0143,34.16091 -27.10795,98.31704 34.2605,86.637 37.71047,-9.64218 72.91152,5.24161 106.04512,-5.90437 45.39188,2.4869 95.14608,14.08419 140.26388,4.43937 27.9256,8.23388 98.4421,11.54066 84.3095,4.73567 45.65,-2.38566 88.6851,-0.0992 126.7905,2.37433 6.1734,3.45018 14.1199,2.85081 20.61,0.824 z m 339.53,-9.641 c -4.251,-6.69868 -3.1495,8.47603 0,0 z m 122.11,-6.722 c -8.7145,-6.83721 2.0033,11.27381 0,0 z m 6.87,-4.375 c -2.1876,1.27214 2.0331,6.98859 0,0 z m -115.29,0.168 c 38.0788,-18.36385 125.9156,24.80866 117.2962,-34.0625 -11.2471,-25.62038 -27.415,-69.56001 -48.0462,-76.8245 -1.9906,-21.22164 -56.6169,2.22739 -65.88,29.93 -13.1817,19.44239 -16.9,67.97405 -3.37,80.957 z m 90.31,-2.387 c -3.1035,-4.51467 -1.5564,4.6337 0,0 z m 6.97,-1.269 c -4.879,-4.54943 -3.258,4.70256 0,0 z M 383.262,346.625 c -8.7445,-16.90872 -4.14174,22.23322 0,0 z m -157.504,-5.453 c -3.24419,-4.53952 -3.22891,4.5446 0,0 z m 148.965,-8.75 c -0.83592,-8.50647 -10.5486,5.14755 0,0 z m -5.649,-14.711 c -4.8595,-6.82334 -4.8595,6.82334 0,0 z m -8.879,-4.441 c -3.23736,-4.55988 -3.24252,4.55819 0,0 z m -151.179,-8.559 c -10.24054,-17.56406 -5.70026,11.33307 0,0 z m 152.449,-5.899 c -5.87865,-18.28629 -7.39117,8.74868 0,0 z M 191.957,284.098 c -5.21976,-3.90561 3.71182,16.60654 0,0 z m 1630.683,-3.676 c -2.9098,-22.42279 -3.2045,9.78626 0,0 z M 188.406,273.066 c -4.2402,-11.37709 -0.72577,18.11334 0,0 z m 159.11,3.457 c -10.4969,-4.87951 5.04702,5.1159 0,0 z m -169.192,-7.39 c -6.09365,1.658 -0.34487,9.02489 0,0 z m 157.395,-3.106 c -2.19827,1.26882 2.04131,6.97935 0,0 z m 8.586,0.317 c -7.90137,-8.37723 2.9053,12.48893 0,0 z m -3.86,-5.582 c -8.94197,-8.93692 -6.21029,5.58842 0,0 z m -5.511,-16.106 c -4.32776,-8.1611 2.44172,13.57486 0,0 z m 272.582,-7.484 c -3.23542,-4.5508 -3.24052,4.54911 0,0 z M 1798.45,225.375 c -7.2419,-15.95381 -3.4531,6.9843 0,0 z M 612.082,219.688 c -6.28188,0.57986 3.84507,8.85863 0,0 z m 0.508,-7.376 c -4.63032,-4.6866 -1.56419,8.19223 0,0 z m -443.438,-8.878 c -4.20781,-4.74098 1.5515,6.44973 0,0 z M 612.543,169.57 c -1.18851,-13.87134 -5.69887,6.49949 0,0 z m 109.121,-5.961 c -1.57053,-4.62565 -3.09714,4.51748 0,0 z M 293.039,141.922 c -9.09632,-9.23159 6.89698,17.05573 0,0 z m 1488.921,2.726 c -2.429,-6.37061 -3.9075,4.64377 0,0 z M 167.414,138.246 c -1.55351,-4.62843 -3.11066,4.50523 0,0 z m 10.274,-6.66 c 29.77674,-38.544837 7.55309,-48.647155 -4.395,-5.137 l 1.38,6.18238 3.015,-1.04538 0,0 z M 1534.58,101.527 c -4.9855,-1.924375 -3.4037,13.3746 0,0 z M 221.953,84.8477 c -4.38353,-2.255793 -2.1112,5.888885 0,0 z M 209.27,79.8398 c -3.89646,-6.884675 -2.27711,8.586658 0,0 z m 28.281,-3.75 c 44.85695,-27.655143 -32.25428,6.571781 0,0 z M 1441.81,23.9727 c -10.6167,-7.324085 -5.6792,9.400512 0,0 z m 338.25,-2.9961 c 27.9653,1.39517 109.3585,-4.4234 37.92,-15.87504 -14.2531,-2.5358275 -116.5508,3.9748748 -56.1763,17.004365 l 8.8952,-0.353191 9.3611,-0.776134 0,0 z m -412.83,-6.4532 c -5.9281,-11.6217146 -2.2915,13.325718 0,0 z M 1259.42,11.668 c -0.943,-5.5875172 -3.7179,9.616679 0,0 z m 59.61,-1.6485 c 4.4801,-13.7164976 -18.814,5.934026 0,0 z m -16.49,0.125 c -3.0598,-8.817205 -3.0467,8.825672 0,0 z M 336.098,8.30859 c -2.96619,-4.3359183 -3.64487,2.450228 0,0 z m 897.122,-4.375 c -6.1324,0.081731 0.3934,11.158366 0,0 z M 179.465,6.33984 c -3.24652,-4.5390203 -3.22656,4.545655 0,0 z m 766.055,0 c -4.76198,-4.7531554 -6.89471,4.64274 0,0 z m 99.56,-0.57031 c -2.9619,-4.3269954 -3.6549,2.4472321 0,0 z M 399.133,4.3125 c -4.96372,-2.6800576 -1.19846,2.7801746 0,0 z M 1747.72,4.50391 c -2.9725,-4.33264671 -3.6472,2.4484261 0,0 z"
         id="path16" /><path
         d="m 799.027,608.086 c 0,-1.141 0.535,-1.645 1.27,-1.203 0.762,0.457 1.269,1.242 1.269,1.965 0,0.722 -0.507,1.203 -1.269,1.203 -0.735,0 -1.27,-0.824 -1.27,-1.965"
         style="fill:#000000;fill-opacity:1;fill-rule:nonzero;stroke:none"
         id="path18" /><path
         style="fill:#000000;fill-opacity:1;fill-rule:nonzero;stroke:none"
         d="m 3831.91,583.324 c -33.1991,-8.38785 -24.0784,-48.83568 -61.24,-49.625 -23.8209,-14.0412 -32.5446,-18.54421 -68.19,-49.652 -44.0518,6.95235 -11.0773,-71.61411 -27.47,-101.149 -3.8613,-61.23385 -14.2375,-68.97436 -66.06,-41.066 -38.2577,22.76301 -81.7546,32.75743 -122.8792,49.33914 -76.9531,-66.70766 44.6716,-52.30132 85.4692,-82.34314 50.9586,-25.80117 41.6856,-33.03339 63.47,-61.129 41.2284,-39.96877 42.1308,-101.80575 36.17,-143.57 8.7793,-15.653325 -12.761,-26.207265 -4.08,-54.2852 3.1057,-32.727562 10.3911,-50.67183412 -43.5588,-44.9526888 -80.3676,-23.6998442 -48.4594,51.1803068 -46.0737,97.9907588 -11.7434,33.50521 -30.0122,43.18459 -49.6275,77.47013 -41.9158,60.47735 -125.3058,34.97893 -178.7588,11.75852 -18.5314,-52.80685 -6.164,-75.66757 -52.5112,-78.47752 -3.1067,-27.995417 47.467,-150.467977 47.94,-96.0041 -26.3956,23.424475 -35.7086,124.68071 -0.51,52.7617 2.8874,-55.499534 73.7592,-104.448978 18.9875,-27.780238 -42.5816,66.965218 43.0924,89.754808 36.7425,8.756838 19.9453,-79.281047 30.6749,-49.1410579 10.73,6.9766 -22.1761,10.239743 19.3509,91.35759 50.84,36.0195 C 3459.0632,60.896051 3491.2948,-5.9791232 3444.9119,0.50580556 3734.3954,1.3796943 4024.527,-3.367043 4313.62,2.72656 4251.7774,5.2880004 4185.654,2.6363662 4127,6.088385 c 70.9772,53.188419 -11.3074,64.316131 -38.45,72.165515 9.4068,21.672063 74.9548,20.782861 54.35,75.7191 -23.2829,47.90465 -45.7678,-4.54736 -60.75,48.449 -51.2018,26.63168 56.4529,56.06685 15.6487,85.04688 -20.5707,-26.47474 -65.0172,-86.24478 -62.935,-13.55888 -0.6723,54.53513 -29.8406,94.17697 3.3501,133.73038 78.1937,-19.72481 132.8165,-107.27886 96.9262,-181.50338 -1.5762,-42.5685 17.9107,-12.15041 32.54,19.281 6.4717,33.18228 -4.3205,113.61939 -44.5,139.828 -10.1661,19.66926 -56.8325,56.9884 -88.72,46.609 -33.4193,-2.60368 2.7617,74.55874 -59.5991,49.16761 -27.0227,26.39934 -59.9636,49.88056 -99.0747,61.73501 -15.833,33.67596 -24.2381,34.02232 -43.8762,40.56638 z m 17.25,-23.719 c 27.0103,-42.29428 -68.3147,14.1649 0,0 z m -35.38,-6.691 c -3.9317,-4.62855 -2.424,6.37263 0,0 z m -22.2,-13.887 c -1.5606,-4.633 -3.1001,4.51773 0,0 z m 78.76,-13.257 c 28.5203,4.28151 103.0916,-51.61219 46.64,-41.18864 -59.0527,2.98629 -120.5611,1.11854 -176.2573,-1.05428 -10.5271,31.34535 67.6102,44.55828 99.3473,42.02742 l 17.84,1.4255 12.43,-1.21 z m -109.83,-13.375 c -3.0929,-4.51701 -1.5699,4.62488 0,0 z m 100.2,-42.418 c 47.7704,-10.99526 129.8069,16.32031 143.44,-48.903 12.7825,-40.04812 -2.4324,-72.22064 17.6087,-96.16238 -16.1845,-24.81339 -1.8542,-46.09559 1.9213,-80.95462 18.3911,-55.58445 -69.9216,-19.65541 -102.22,-28.863 -26.526,-3.64469 -68.3193,4.19303 -83.46,-14.703 -2.9403,-37.39772 9.8145,-81.28347 23.09,-111.6722 64.3308,-60.133827 -146.9598,0.377716 -87.985,-27.038483 -9.4943,-26.094504 71.9667,-73.281715 -12.975,-57.652977 -79.7478,-29.461487 -72.5477,50.161834 -71.35,100.98866 4.5238,35.51786 -3.3608,76.75669 6.79,118.078 15.5392,54.06651 -14.5383,140.16044 3.9875,202.082 -22.2583,82.86891 116.7819,26.43057 161.1525,44.801 l 0,0 z m 138.24,-15.926 c -3.2423,-4.55521 -3.2474,4.55352 0,0 z m -492.23,-86.149 c 45.7067,-18.26551 96.4477,-36.61971 141.55,-54.632 32.3449,2.19146 36.1585,-115.99603 3.79,-64.38525 -19.3913,35.85685 -62.0464,74.71316 -104.63,87.84925 -15.983,25.43683 -72.3124,3.05001 -60.24,23.461 5.531,3.7264 12.0739,11.60525 19.53,7.707 z m 175.16,-3.898 c -3.2348,-4.55264 -3.2553,4.54589 0,0 z m 457.32,-15.348 c 1.0957,-6.70878 -5.8444,5.63075 0,0 z m -455.51,-8.75 c 12.7564,-25.29923 -19.9331,13.50973 0,0 z m -5.62,-15.793 c -2.28,-8.57208 -3.8779,6.87929 0,0 z m 12.68,-3.234 c -3.1065,-4.50476 -1.5528,4.62767 0,0 z m -136.97,-2.027 c -4.0312,-4.36877 -0.5509,6.23729 0,0 z m 138.24,-5.582 c -3.2423,-4.55521 -3.2474,4.55352 0,0 z m 332.74,-14.586 c -2.953,-6.6518 -1.1153,6.68562 0,0 z m -332.43,-36.399 c -10.5488,-10.03691 2.8297,16.58389 0,0 z m -0.12,-9.449 c -4.1028,-5.35432 1.8123,11.55759 0,0 z m -0.19,-5.516 c -3.0963,-4.51394 -1.5656,4.62557 0,0 z m 0,-13.828 c -5.6419,-18.1697 -4.6343,14.24311 0,0 z m 380.49,1.145 c -3.0929,-4.51701 -1.5699,4.62488 0,0 z m -34.62,-5.328 c -2.4262,0.52306 1.7313,5.53176 0,0 z m -371.23,-4.821 c -3.1308,-4.50404 -1.552,4.63217 0,0 z m 396.97,0.254 c -4.8157,-7.79735 -2.0105,4.52356 0,0 z m 83.71,-2.027 c -4.1841,-8.30032 -5.4385,6.68566 0,0 z m -478.48,-4.949 c -5.0748,-6.63148 -3.6432,7.2837 0,0 z m 381.71,-4.184 c -4.9626,-2.68179 -1.1995,2.78245 0,0 z m -567.82,-12.625 c 43.707,-11.47992 80.1492,-129.400275 20.23,-70.957 -24.3711,5.86449 -50.0203,-21.60892 -77.75,1.648 -33.1605,-22.32904 -108.1562,-7.63905 -59.67,44.645 17.0116,37.33681 54.1269,-20.69766 62.91,-0.746 -28.1859,42.68773 26.1066,8.59481 54.28,25.41 z m 424.82,-5.32 c 53.5356,-1.56187 106.7998,-13.47278 158.79,-9.703 29.4168,-20.25746 9.6988,-126.029479 -44.39,-119.477 -38.7552,-12.58003 -62.2932,5.528149 -96.39,0.4453 -55.3945,6.214681 -115.5664,155.14969 -18.01,128.7347 l 0,0 z m -521.21,-2.856 c -3.1035,-4.51467 -1.5564,4.6337 0,0 z m 304.39,-33.039 c -3.9065,-4.62066 -2.4186,6.3559 0,0 z m -152.26,-12.937 c -2.8383,-20.53899 -5.714,29.6248 0,0 z m 578.29,8.984 c 47.8863,-30.10157 -55.3196,-70.488678 -12.18,0.027 l 12.18,-0.027 0,0 z m -614.75,-40.086 c 61.8995,-33.855854 -30.3064,-182.86437 -22.07,-68.4569 6.369,22.464477 -20.1081,68.6127 22.07,68.4569 z m 58.29,-10.055 c 29.2727,-44.19238 -56.9156,-155.442135 -33.74,-59.8628 3.4246,24.97412 8.414,54.026138 33.74,59.8628 z m 11.22,-5.453 c -3.2469,-4.55403 -3.2428,4.55538 0,0 z m 301.17,-7.6091 c -7.3837,-7.692941 1.8644,9.12152 0,0 z M 3312.1,87.4492 c -5.5752,-2.540534 -0.5829,6.103091 0,0 z m 360.71,-26.5703 c -4.7541,-13.292177 -0.6766,13.27356 0,0 z m 378.14,3.2344 c -2.9722,-4.33268 -3.6474,2.448383 0,0 z M 3831.54,48.8281 c 99.8869,-5.660988 198.5328,-0.157766 298.05,-7.7343 -29.7552,-73.390592 -130.963,-23.864466 -195.26,-36.01958 -48.2092,-8.238593 -141.1285,5.163305 -142.43,42.80468 13.2442,-1.415661 26.3414,5.078658 39.64,0.9492 z"
         id="path20" /><path
         d="m 394.188,543.215 c 0.886,-0.344 2,-0.285 2.41,0.125 0.398,0.402 -0.379,0.699 -1.649,0.633 -1.523,-0.078 -1.804,-0.36 -0.761,-0.758"
         style="fill:#000000;fill-opacity:1;fill-rule:nonzero;stroke:none"
         id="path22" /><path
         d="m 199.125,484.746 c 0,-1.523 2.324,-3.383 3.168,-2.539 0.34,0.34 -0.254,1.375 -1.266,2.219 -1.144,0.953 -1.902,1.078 -1.902,0.32"
         style="fill:#000000;fill-opacity:1;fill-rule:nonzero;stroke:none"
         id="path24" /><path
         d="m 1305.08,464.895 c 0,-1.141 0.53,-1.965 1.27,-1.965 0.76,0 1.27,0.48 1.27,1.203 0,0.722 -0.51,1.512 -1.27,1.969 -0.74,0.441 -1.27,-0.067 -1.27,-1.207"
         style="fill:#000000;fill-opacity:1;fill-rule:nonzero;stroke:none"
         id="path26" /><path
         d="m 1310.79,465.465 c -0.44,-0.723 -0.19,-1.266 0.57,-1.266 0.76,0 1.33,0.543 1.33,1.266 0,0.762 -0.23,1.269 -0.57,1.269 -0.34,0 -0.87,-0.507 -1.33,-1.269"
         style="fill:#000000;fill-opacity:1;fill-rule:nonzero;stroke:none"
         id="path28" /><path
         d="m 1284.73,463.5 c -1.19,-1.488 -0.96,-1.84 1.2,-1.84 3.17,0 4.55,2.039 2.03,3 -0.98,0.375 -2.43,-0.144 -3.23,-1.16"
         style="fill:#000000;fill-opacity:1;fill-rule:nonzero;stroke:none"
         id="path30" /><path
         d="m 1293.16,464.387 c -0.42,-0.727 -0.13,-1.723 0.63,-2.192 1.91,-1.172 3.12,0.532 1.53,2.129 -0.89,0.887 -1.68,0.91 -2.16,0.063"
         style="fill:#000000;fill-opacity:1;fill-rule:nonzero;stroke:none"
         id="path32" /><path
         d="m 233.879,430.715 c -0.438,-1.16 -0.359,-2.981 0.187,-4.25 0.528,-1.235 1.594,-6.149 2.407,-11.098 1.043,-6.34 2.004,-8.879 3.363,-8.879 2.027,0 1.93,12.684 -0.117,15.223 -0.574,0.707 -1.219,3.168 -1.465,5.578 -0.481,4.695 -3.113,6.758 -4.375,3.426"
         style="fill:#000000;fill-opacity:1;fill-rule:nonzero;stroke:none"
         id="path34" /><path
         d="m 236.27,402.559 c -0.918,-2.411 1.343,-4.985 3.312,-3.77 2.137,1.32 1.648,5.797 -0.633,5.797 -1.07,0 -2.242,-0.887 -2.679,-2.027"
         style="fill:#000000;fill-opacity:1;fill-rule:nonzero;stroke:none"
         id="path36" /><path
         d="m 235.145,392.855 c 0.101,-2.281 -0.446,-2.777 -2.731,-2.472 -2.152,0.289 -2.852,-0.254 -2.852,-2.219 0,-1.777 0.786,-2.602 2.473,-2.602 1.574,0 2.621,-1.015 2.883,-2.789 0.562,-3.804 3.039,-4.281 3.969,-0.761 1.707,6.468 0.867,13.699 -1.586,13.699 -1.524,0 -2.242,-0.953 -2.156,-2.856"
         style="fill:#000000;fill-opacity:1;fill-rule:nonzero;stroke:none"
         id="path38" /><path
         d="m 230.832,379.223 c 0,-0.762 0.508,-1.27 1.266,-1.27 0.761,0 1.269,0.508 1.269,1.27 0,0.761 -0.508,1.265 -1.269,1.265 -0.758,0 -1.266,-0.504 -1.266,-1.265"
         style="fill:#000000;fill-opacity:1;fill-rule:nonzero;stroke:none"
         id="path40" /><path
         d="m 715.32,301.793 c 0,-0.762 0.543,-1.008 1.27,-0.57 0.762,0.457 1.269,0.988 1.269,1.332 0,0.34 -0.507,0.57 -1.269,0.57 -0.727,0 -1.27,-0.57 -1.27,-1.332"
         style="fill:#000000;fill-opacity:1;fill-rule:nonzero;stroke:none"
         id="path42" /><path
         style="fill:#000000;fill-opacity:1;fill-rule:nonzero;stroke:none"
         d="m 2195.05,292.09 c -38.5546,-9.22394 -6.93,-62.00374 -66.905,-53.29013 -33.8979,10.85198 -124.8538,-90.69619 -63.225,-45.44787 55.6446,43.01123 127.8294,46.46344 192.23,30.628 48.7541,10.99924 81.8651,-47.15863 99.42,-32.468 -33.6873,49.92211 -101.4743,52.89803 -128.68,97.66 l -15.98,1.14 -16.86,1.778 0,0 z m 42.2,-20.547 c 49.0909,-54.15453 -123.242,-1.25543 -18.42,-0.254 5.71,-2.18054 14.7668,5.28975 18.42,0.254 z m 24.56,-42.234 c -8.2007,-0.88764 1.3605,10.78996 0,0 z M 2052,181.875 c -8.6211,-6.72464 -0.1325,14.67656 0,0 z"
         id="path44" /><path
         style="fill:#000000;fill-opacity:1;fill-rule:nonzero;stroke:none"
         d="m 4418.76,263.871 c -4.2045,-76.47227 -92.2798,43.56333 -78.9563,-44.00838 7.7554,-28.90831 81.4091,-31.88883 43.4463,-55.99962 -35.8612,16.91987 -81.167,-30.57228 -68.3,-20.925 -36.2235,-42.47648 -18.2113,-114.175045 21.24,-137.22706 -18.0316,-7.6773054 97.142,-4.465339 136.0549,-5.70866441 C 4527.8846,1.0551039 4686.9842,13.586314 4671.34,5.07422 4615.2816,1.7885631 4550.2645,5.0184156 4491.43,3.99609 c -10.3139,17.164527 41.6172,80.310805 12.3,113.44891 -4.4037,86.10648 -123.6499,9.30014 -88.02,97.024 4.5624,26.82745 52.7565,45.09921 3.05,49.402 z m -58.98,-25.969 c 92.3415,-40.64304 -23.5607,-44.24262 0,0 z m 32.98,-14.679 c -1.5486,-4.62838 -3.1098,4.50171 0,0 z m -44.39,-65.953 c -3.2761,-4.68906 -4.845,4.54406 0,0 z m -23.85,-13 c -2.1873,1.27171 2.0328,6.98631 0,0 z m 107.96,-4.758 c 52.3784,15.59727 67.1059,-30.04333 54.77,-74.8284 -25.8353,-61.4962108 -83.045,-14.930833 -134.8462,-31.31935 -84.147,31.024771 -3.9723,148.18041 64.9562,96.14375 11.4773,-7.06733 7.3162,19.11091 15.12,10.004 z m 73.79,-36.907 c -6.8152,-4.966501 -2.2989,9.9655 0,0 z m -105.9,-81.0425 c -1.5637,-4.636894 -3.1242,4.504145 0,0 z m -9.83,-12.17578 c -5.532,-9.9409538 2.5826,12.811 0,0 z m 74.45,2.02738 c -0.7104,-6.1363997 -3.8387,4.402229 0,0 z M 4355.34,4.4375 c -3.1491,-6.6827023 -3.1491,6.682702 0,0 z m 69.25,-2.89844 c -3.686,5.7823162 1.8138,6.32783 0,0 z m 23.97,2.26563 c -9.8355,-6.9553621 6.6325,8.397659 0,0 z"
         id="path46" /><path
         d="m 164.879,256.195 c 0,-0.757 0.508,-1.265 1.269,-1.265 0.762,0 1.266,0.508 1.266,1.265 0,0.762 -0.504,1.27 -1.266,1.27 -0.761,0 -1.269,-0.508 -1.269,-1.27"
         style="fill:#000000;fill-opacity:1;fill-rule:nonzero;stroke:none"
         id="path48" /><path
         d="m 2111.72,239.645 c 0,-0.762 0.54,-1.004 1.27,-0.571 0.76,0.457 1.27,0.988 1.27,1.332 0,0.344 -0.51,0.571 -1.27,0.571 -0.73,0 -1.27,-0.571 -1.27,-1.332"
         style="fill:#000000;fill-opacity:1;fill-rule:nonzero;stroke:none"
         id="path50" /><path
         d="m 1773.08,226.391 c 0,-2.157 2.15,-3.614 3.81,-2.582 1.68,1.043 0.13,4.484 -2.03,4.484 -0.95,0 -1.78,-0.887 -1.78,-1.902"
         style="fill:#000000;fill-opacity:1;fill-rule:nonzero;stroke:none"
         id="path52" /><path
         d="m 1795.28,211.805 c -0.44,-0.723 -0.19,-1.266 0.57,-1.266 0.76,0 1.33,0.543 1.33,1.266 0,0.761 -0.23,1.269 -0.57,1.269 -0.34,0 -0.88,-0.508 -1.33,-1.269"
         style="fill:#000000;fill-opacity:1;fill-rule:nonzero;stroke:none"
         id="path54" /><path
         style="fill:#000000;fill-opacity:1;fill-rule:nonzero;stroke:none"
         d="m 2683.47,211.449 c -17.1211,-6.19673 -42.9797,-4.80548 -72.8,-10.422 -38.4864,3.50068 -72.0835,-35.87158 -99.08,-30.441 -14.3886,-5.59407 -57.2553,-18.51446 -45.89,-8.688 -27.1112,4.22093 -51.8545,-7.17647 -74.28,1.586 -50.315,-6.97236 -130.3622,15.09157 -190.67,0.192 -58.6115,3.02061 -136.6057,-8.36269 -175.53,-2.727 -41.12,-22.6121 -4.9232,-50.78098 15.5825,-88.400163 47.2858,-2.661866 90.3709,10.035817 135.6311,0.810416 10.6109,11.523266 69.8247,-5.708153 110.6864,0.01185 42.8002,1.620938 112.5552,-9.762019 126.08,54.972897 47.2224,15.72224 122.4139,7.43685 174.62,17.004 37.3677,-7.33981 80.2518,-2.93867 118.41,5.898 37.9695,19.77226 9.21,58.91128 -22.76,60.203 z m -61.89,-15.371 c -8.1562,-8.89319 -7.5037,5.49563 0,0 z m 38.04,0.508 c -3.1001,-4.51773 -1.5606,4.633 0,0 z m -13.94,-10.02 c 28.7342,-9.04655 68.9221,-7.77096 18.26,-27.406 -19.5774,4.20454 -63.745,-16.90651 -77.24,14.102 8.8487,22.98628 54.4851,4.88506 58.98,13.304 z m -111.62,-24.289 c -3.925,-4.63379 -2.4087,6.37798 0,0 z m -78.63,-9.257 c -7.8693,-4.85933 -8.864,17.69989 0,0 z m -251.13,4.375 c -13.8739,-6.57991 0.5494,6.39996 0,0 z m -94.54,-0.125 c -0.7285,-6.13323 -3.8445,4.39776 0,0 z m 33.67,0.125 c -6.6791,-8.7024 -1.9453,5.03527 0,0 z m 108.42,0 c 1.5916,-22.1582 -8.8877,6.13565 0,0 z m 65.33,-0.696 c -2.9566,-4.3411 -3.6414,2.45505 0,0 z M 2503.62,156 c -4.8813,-4.5502 -3.2553,4.70494 0,0 z m -456.58,-1.266 c -3.2705,-4.68342 -4.8512,4.53528 0,0 z m 589.76,0 c -3.1173,-4.51629 -1.569,4.62941 0,0 z m -610.69,-3.808 c -1.5656,-4.62557 -3.0963,4.51394 0,0 z m 57.71,0 c -3.2529,-4.54503 -3.2375,4.55009 0,0 z m -59.63,-5.707 c -1.4405,-17.35075 -15.4693,15.00143 0,0 z m 282.15,-2.028 c 0.667,-2.29236 46.1968,-20.36155 52.5425,-11.0175 32.6163,19.88267 10.604,-45.016942 -25.0325,-47.4508 -23.0042,11.235061 -88.6128,-4.032237 -127.0562,6.630325 -35.8883,-2.256459 -73.864,-7.3299 -111.5638,-3.142125 -40.2557,1.525852 -84.7504,23.35297 -57.3175,51.1556 47.4867,-10.53928 69.0677,8.49943 115.6575,1.4145 47.2827,-4.32071 111.188,-0.82124 152.77,2.41 z m -275.79,1.524 c -6.677,-8.69619 -1.9492,5.02239 0,0 z m 54.79,-3.235 c -3.4624,-6.05616 -3.5847,5.90764 0,0 z m 328.23,-9.578 c -1.5699,-4.62488 -3.0929,4.51701 0,0 z m -370.34,-31.707 c -4.872,-4.558702 -3.2643,4.70842 0,0 z m -3.64,-5.0739 c 46.282,-68.363598 -19.3303,0.577436 0,0 l 0,0 z m 158.37,-6.9727 c -3.1383,-6.689628 -3.1379,6.68982 0,0 z m -148.77,-3.4882 c -2.1883,1.269993 2.0333,6.979593 0,0 z"
         id="path56" /><path
         d="m 3667.67,170.969 c 0.82,-0.821 1.55,-2.731 1.58,-4.125 0.07,-2.535 0.11,-2.539 1.89,-0.188 2.8,3.723 2.24,5.832 -1.57,5.832 -2.66,0 -3.08,-0.336 -1.9,-1.519"
         style="fill:#000000;fill-opacity:1;fill-rule:nonzero;stroke:none"
         id="path58" /><path
         d="m 2001.01,149.66 c 0.65,-2.539 1.81,-3.137 3.28,-1.695 1.17,1.14 -0.5,4.23 -2.28,4.23 -0.99,0 -1.39,-1.015 -1,-2.535"
         style="fill:#000000;fill-opacity:1;fill-rule:nonzero;stroke:none"
         id="path60" /><path
         d="m 156,136.977 c 0,-0.762 0.508,-1.27 1.27,-1.27 0.761,0 1.269,0.508 1.269,1.27 0,0.761 -0.508,1.269 -1.269,1.269 -0.762,0 -1.27,-0.508 -1.27,-1.269"
         style="fill:#000000;fill-opacity:1;fill-rule:nonzero;stroke:none"
         id="path62" /><path
         d="m 3332.71,131.031 c -1.34,-1.324 -1.14,-6.738 0.25,-6.738 1.78,0 3.18,5.074 1.78,6.469 -0.68,0.683 -1.49,0.793 -2.03,0.269"
         style="fill:#000000;fill-opacity:1;fill-rule:nonzero;stroke:none"
         id="path64" /><path
         d="m 3669.7,119.43 c -2.28,-1.469 -4.45,-6.368 -3.17,-7.16 0.69,-0.43 2.2,0.988 3.33,3.144 2.2,4.188 2.15,5.496 -0.16,4.016"
         style="fill:#000000;fill-opacity:1;fill-rule:nonzero;stroke:none"
         id="path66" /><path
         d="m 3574.07,71.6602 c 0,-1.0157 0.59,-1.9024 1.27,-1.9024 0.68,0 1.27,0.8867 1.27,1.9024 0,1.0117 -0.59,1.9023 -1.27,1.9023 -0.68,0 -1.27,-0.8906 -1.27,-1.9023"
         style="fill:#000000;fill-opacity:1;fill-rule:nonzero;stroke:none"
         id="path68" /><path
         style="fill:#000000;fill-opacity:1;fill-rule:nonzero;stroke:none"
         d="m 2386.56,67.0312 c -55.4804,-6.026138 -120.2625,-6.587056 -176.55,-9.1328 -14.1354,-3.536863 -116.2307,0.394042 -74.3538,1.387763 -42.8481,-2.603755 -85.4149,0.595967 -128.5662,-3.481463 -64.0729,17.492242 -29.4105,-40.337891 -35.1506,-55.46009645 78.6505,-6.19016365 7.3109,0.11770403 13.9754,39.00654645 37.861,-2.362759 151.5759,-5.581578 127.0739,2.38325 31.7341,9.882897 56.6161,-8.2044 81.6813,-1.0938 36.7489,8.257699 69.3991,5.376184 104.12,6.8906 24.9839,0.482007 72.2302,6.837463 94.005,-5.161075 73.2956,34.827186 49.5055,-67.775819 -7.125,-32.729505 -37.7334,-7.9913827 -102.4431,-4.0150053 -149.66,-6.54296 -86.5302,-4.2533384 139.9567,-3.48088745 110.6975,-2.87353887 285.587,-0.21079081 571.1774,-0.59094137 856.7625,0.40869087 -151.089,12.343871 -303.5015,3.2487726 -455.06,5.390628 -99.0551,1.0213816 -199.6155,-1.9075369 -298.7625,1.6464775 20.7999,51.6587855 -5.2494,57.5744835 -49.8313,58.2382825 -7.2776,-6.037602 -7.8892,2.076705 -13.2562,1.123 z"
         id="path70" /><path
         d="m 2450.36,59.6094 c 0,-0.7227 0.57,-1.2656 1.33,-1.2656 0.76,0 1.01,0.5429 0.57,1.2656 -0.46,0.7617 -0.99,1.2695 -1.33,1.2695 -0.34,0 -0.57,-0.5078 -0.57,-1.2695"
         style="fill:#000000;fill-opacity:1;fill-rule:nonzero;stroke:none"
         id="path72" /><path
         d="m 2148.5,40.5234 c 0,-0.7617 0.54,-1.0078 1.27,-0.5703 0.76,0.4531 1.27,0.9883 1.27,1.3281 0,0.3438 -0.51,0.5743 -1.27,0.5743 -0.73,0 -1.27,-0.5743 -1.27,-1.3321"
         style="fill:#000000;fill-opacity:1;fill-rule:nonzero;stroke:none"
         id="path74" /><path
         d="M 0.730469,18.2617 C -1.28516,13.0625 -0.191406,10.0781 3.42578,10.9062 10.3984,12.5 23.4258,12.1172 24.875,10.2734 c 1.7734,-2.24996 4.2969,-0.76168 4.2969,2.5352 0,2.5391 -1.8633,3.2148 -3.1446,1.1445 -0.5117,-0.8242 -1.6132,-0.8242 -3.1328,0 -1.3007,0.6992 -5.5195,1.6328 -9.4492,2.0899 C 9.51172,16.5 5.6875,17.6602 4.875,18.6445 3,20.918 1.71484,20.8008 0.730469,18.2617"
         style="fill:#000000;fill-opacity:1;fill-rule:nonzero;stroke:none"
         id="path76" /><path
         d="m 476.879,19.0234 c 0,-0.7226 0.574,-1.2656 1.332,-1.2656 0.762,0 1.008,0.543 0.574,1.2656 -0.457,0.7618 -0.992,1.2696 -1.332,1.2696 -0.344,0 -0.574,-0.5078 -0.574,-1.2696"
         style="fill:#000000;fill-opacity:1;fill-rule:nonzero;stroke:none"
         id="path78" /><path
         d="m 255.641,12.8086 c -0.399,-0.6406 0.175,-1.4805 1.316,-1.9219 2.539,-0.97264 3.629,-0.2344 2.461,1.668 -1.016,1.6484 -2.828,1.7734 -3.777,0.2539"
         style="fill:#000000;fill-opacity:1;fill-rule:nonzero;stroke:none"
         id="path80" /><path
         d="m 1684.3,6.33984 c 0,-0.72265 0.58,-1.26562 1.33,-1.26562 0.76,0 1.01,0.54297 0.57,1.26562 -0.45,0.76172 -0.99,1.26954 -1.32,1.26954 -0.35,0 -0.58,-0.50782 -0.58,-1.26954"
         style="fill:#000000;fill-opacity:1;fill-rule:nonzero;stroke:none"
         id="path82" /><path
         d="m 1885.96,6.33984 c 0,-0.75781 0.51,-1.26562 1.27,-1.26562 0.76,0 1.27,0.50781 1.27,1.26562 0,0.76172 -0.51,1.26954 -1.27,1.26954 -0.76,0 -1.27,-0.50782 -1.27,-1.26954"
         style="fill:#000000;fill-opacity:1;fill-rule:nonzero;stroke:none"
         id="path84" /><path
         d="M 7.60938,4.25 C 8.37109,3.83203 8.58984,3.09375 8.16016,2.41016 7.17578,0.835938 2.92578,1.01562 2.13281,2.66406 1.80469,3.34766 1.66797,3.17188 1.83984,2.28125 2.01953,1.35156 4.3125,0.46875 7.10156,0.253906 10.2734,0.0078125 11.4336,0.28125 10.3359,1.01562 9.44922,1.60547 8.74609,2.70703 8.87891,3.29688 9.01562,3.92188 8.49609,4.55469 7.73828,4.69141 6.84766,4.85547 6.80078,4.69141 7.60938,4.25"
         style="fill:#000000;fill-opacity:1;fill-rule:nonzero;stroke:none"
         id="path86" /><path
         d="m 2150.85,4.4375 c -0.39,-0.41797 -9.07,-1.05078 -19.35,-1.40625 -34.6,-1.19922 -25.74,-2.859375 15.1,-2.824219 37.16,0.027344 44.83,1.113279 20.29,2.871089 -5.58,0.39844 -11.32,1.03907 -12.75,1.42579 -1.39,0.37109 -2.92,0.34375 -3.29,-0.06641"
         style="fill:#000000;fill-opacity:1;fill-rule:nonzero;stroke:none"
         id="path88" /><path
         d="m 17.7578,2.53516 c 0,-0.65235 -0.9531,-1.38282 -2.2226,-1.710941 C 14.2891,0.503906 15.0938,0.191406 17.375,0.113281 21.6875,-0.0351562 23.0469,1.65234 19.6602,2.94922 18.6445,3.33984 17.7578,3.14453 17.7578,2.53516"
         style="fill:#000000;fill-opacity:1;fill-rule:nonzero;stroke:none"
         id="path90" /><path
         d="M 2019.77,2.78906 C 2017.61,0.632812 2020.4,0 2032.07,0 c 7.48,0 12.4,0.492188 11.67,1.16797 -1.4,1.28515 -22.86,2.73828 -23.97,1.62109"
         style="fill:#000000;fill-opacity:1;fill-rule:nonzero;stroke:none"
         id="path92" /><path
         d="m 2067.07,3.10547 c -0.35,-0.31641 -4.69,-0.64453 -9.76,-0.74219 C 2036.27,1.96875 2048.94,0 2072.53,0 c 28.03,0 32.2,0.796875 10.52,2.01562 -7.6,0.42579 -14.16,0.97266 -14.58,1.21876 -0.45,0.26562 -1.01,0.21484 -1.4,-0.12891"
         style="fill:#000000;fill-opacity:1;fill-rule:nonzero;stroke:none"
         id="path94" /><path
         d="m 3252.55,1.26953 c -2.26,-1.01953 -2.15,-1.148436 1.02,-1.20703 2.03,-0.0351562 3.23,0.480469 2.79,1.20703 -0.46,0.75781 -0.86,1.24219 -1.01,1.20313 -0.14,-0.03516 -1.4,-0.57813 -2.8,-1.20313"
         style="fill:#000000;fill-opacity:1;fill-rule:nonzero;stroke:none"
         id="path96" /><path
         d="m 26.3164,0.378906 c 1.5234,-0.269531 3.8906,-0.238281 5.0742,0.066406 1.2188,0.3125 -0.0625,0.539063 -2.8554,0.507813 C 25.7461,0.917969 24.7461,0.660156 26.3164,0.378906"
         style="fill:#000000;fill-opacity:1;fill-rule:nonzero;stroke:none"
         id="path98" /><path
         d="m 2190.1,0.378906 c 0.89,-0.3398435 2,-0.2812498 2.41,0.128906 0.4,0.398438 -0.38,0.699218 -1.65,0.632808 -1.52,-0.07812 -1.8,-0.35937 -0.76,-0.761714"
         style="fill:#000000;fill-opacity:1;fill-rule:nonzero;stroke:none"
         id="path100" /><path
         d="m 3218,0.378906 c 1.26,-0.3593748 2.89,-0.3593748 3.8,0 0.9,0.359375 -0.07,0.636714 -2.22,0.636714 -2.15,0 -2.84,-0.277339 -1.58,-0.636714"
         style="fill:#000000;fill-opacity:1;fill-rule:nonzero;stroke:none"
         id="path102" /><path
         d="m 3233.85,0.378906 c 2.28,-0.2812498 5.68,-0.2812498 7.61,0 1.92,0.28125 0.06,0.507813 -4.12,0.507813 -4.19,0 -5.76,-0.226563 -3.49,-0.507813"
         style="fill:#000000;fill-opacity:1;fill-rule:nonzero;stroke:none"
         id="path104" /><path
         d="m 3399.36,0.378906 c 1.27,-0.3593748 2.9,-0.3593748 3.81,0 0.9,0.359375 -0.07,0.636714 -2.22,0.636714 -2.16,0 -2.84,-0.277339 -1.59,-0.636714"
         style="fill:#000000;fill-opacity:1;fill-rule:nonzero;stroke:none"
         id="path106" /><path
         d="m 1475.67,405.855 c 0.43,-0.714 1.84,-1.269 3.23,-1.269 1.4,0 2.48,0.555 2.48,1.269 0,0.696 -1.46,1.27 -3.24,1.27 -1.78,0 -2.89,-0.574 -2.47,-1.27"
         style="fill:#000000;fill-opacity:1;fill-rule:nonzero;stroke:none"
         id="path108" /><path
         d="m 1735.04,380.488 c 0,-0.758 0.5,-1.265 1.26,-1.265 0.76,0 1.27,0.507 1.27,1.265 0,0.762 -0.51,1.27 -1.27,1.27 -0.76,0 -1.26,-0.508 -1.26,-1.27"
         style="fill:#000000;fill-opacity:1;fill-rule:nonzero;stroke:none"
         id="path110" /><path
         d="m 1520.18,383.406 c -1.45,-1.457 -0.88,-2.918 1.14,-2.918 1.02,0 1.91,0.535 1.91,1.145 0,1.648 -2,2.816 -3.05,1.773"
         style="fill:#000000;fill-opacity:1;fill-rule:nonzero;stroke:none"
         id="path112" /><path
         d="m 3698.36,453.988 c 0,-0.761 0.55,-1.004 1.27,-0.57 0.76,0.457 1.27,0.988 1.27,1.332 0,0.34 -0.51,0.57 -1.27,0.57 -0.72,0 -1.27,-0.57 -1.27,-1.332"
         style="fill:#000000;fill-opacity:1;fill-rule:nonzero;stroke:none"
         id="path114" /><path
         d="m 4008.08,336.035 c 0.26,-0.887 1.33,-1.957 2.22,-2.219 1.02,-0.3 1.48,0.164 1.14,1.141 -0.3,0.891 -1.33,1.914 -2.22,2.219 -0.97,0.34 -1.44,-0.125 -1.14,-1.141"
         style="fill:#000000;fill-opacity:1;fill-rule:nonzero;stroke:none"
         id="path116" /><path
         d="m 4009.92,326.586 c 0.37,-1.012 0.94,-1.902 1.2,-1.902 0.28,0 0.51,0.89 0.51,1.902 0,1.016 -0.56,1.902 -1.2,1.902 -0.64,0 -0.88,-0.886 -0.51,-1.902"
         style="fill:#000000;fill-opacity:1;fill-rule:nonzero;stroke:none"
         id="path118" /><path
         d="m 3456.22,181.621 c 0.32,-3.172 4.92,-8.574 7.64,-8.957 1.64,-0.23 3.62,-0.984 4.31,-1.641 1.84,-1.757 4.44,-1.199 4.44,0.957 0,1.145 -1.08,2.309 -2.48,2.665 -1.39,0.359 -2.75,1.41 -3.11,2.41 -0.33,0.941 -2.09,1.777 -3.73,1.777 -1.65,0 -3.45,0.891 -3.84,1.902 -0.73,1.903 -3.4,2.637 -3.23,0.887"
         style="fill:#000000;fill-opacity:1;fill-rule:nonzero;stroke:none"
         id="path120" /><path
         d="m 3406.65,172.488 c 0,-0.676 0.89,-1.269 1.91,-1.269 1.01,0 1.9,0.593 1.9,1.269 0,0.676 -0.89,1.27 -1.9,1.27 -1.02,0 -1.91,-0.594 -1.91,-1.27"
         style="fill:#000000;fill-opacity:1;fill-rule:nonzero;stroke:none"
         id="path122" /><path
         d="m 3427.58,164.879 c -0.44,-0.727 -0.19,-1.27 0.57,-1.27 0.76,0 1.33,0.543 1.33,1.27 0,0.762 -0.23,1.269 -0.57,1.269 -0.34,0 -0.87,-0.507 -1.33,-1.269"
         style="fill:#000000;fill-opacity:1;fill-rule:nonzero;stroke:none"
         id="path124" /><path
         d="m 3473.88,152.516 c -4.33,-3.504 -0.77,-11.735 5.07,-11.735 3.63,0 3.65,0.063 1.39,5.391 -1.23,2.918 -2.54,6.176 -2.85,7.101 -0.43,1.286 -1.33,1.094 -3.61,-0.757"
         style="fill:#000000;fill-opacity:1;fill-rule:nonzero;stroke:none"
         id="path126" /><path
         d="m 3392.7,151.816 c 0,-2.664 3.35,-5.234 4.47,-3.425 0.47,0.761 0.66,1.539 0.42,1.711 -0.26,0.183 -1.4,1.027 -2.67,1.968 -1.9,1.414 -2.22,1.375 -2.22,-0.254"
         style="fill:#000000;fill-opacity:1;fill-rule:nonzero;stroke:none"
         id="path128" /><path
         d="m 2098.45,137.355 c -1.01,-2.621 0.08,-3.757 4.64,-4.855 2.92,-0.699 3.56,-0.422 3.56,1.559 0,4.945 -6.55,7.582 -8.2,3.296"
         style="fill:#000000;fill-opacity:1;fill-rule:nonzero;stroke:none"
         id="path130" /></g></g></svg>