<?xml version="1.0" encoding="UTF-8" standalone="no"?>
<svg
   xmlns:dc="http://purl.org/dc/elements/1.1/"
   xmlns:cc="http://creativecommons.org/ns#"
   xmlns:rdf="http://www.w3.org/1999/02/22-rdf-syntax-ns#"
   xmlns:svg="http://www.w3.org/2000/svg"
   xmlns="http://www.w3.org/2000/svg"
   xmlns:sodipodi="http://sodipodi.sourceforge.net/DTD/sodipodi-0.dtd"
   xmlns:inkscape="http://www.inkscape.org/namespaces/inkscape"
   version="1.0"
   width="3479.5107"
   height="2921.4709"
   viewBox="0 0 2783.6086 2337.1768"
   preserveAspectRatio="xMidYMid meet"
   id="svg3106"
   inkscape:version="0.48.2 r9819"
   sodipodi:docname="bowl.svg">
  <defs
     id="defs3154" />
  <sodipodi:namedview
     pagecolor="#ffffff"
     bordercolor="#666666"
     borderopacity="1"
     objecttolerance="10"
     gridtolerance="10"
     guidetolerance="10"
     inkscape:pageopacity="0"
     inkscape:pageshadow="2"
     inkscape:window-width="1920"
     inkscape:window-height="1018"
     id="namedview3152"
     showgrid="false"
     inkscape:zoom="0.1281303"
     inkscape:cx="2287.4986"
     inkscape:cy="1522.7811"
     inkscape:window-x="-8"
     inkscape:window-y="-8"
     inkscape:window-maximized="1"
     inkscape:current-layer="svg3106"
     fit-margin-top="0"
     fit-margin-left="0"
     fit-margin-right="0"
     fit-margin-bottom="0" />
  <metadata
     id="metadata3108">
Created by potrace 1.10, written by Peter Selinger 2001-2011
<rdf:RDF>
  <cc:Work
     rdf:about="">
    <dc:format>image/svg+xml</dc:format>
    <dc:type
       rdf:resource="http://purl.org/dc/dcmitype/StillImage" />
  </cc:Work>
</rdf:RDF>
</metadata>
  <g
     transform="matrix(0.1,0,0,-0.1,-141.66968,2879)"
     id="g3110"
     style="fill:#000000;stroke:none">
    <path
       d="m 19570,28780 c 0,-5 5,-10 10,-10 6,0 10,5 10,10 0,6 -4,10 -10,10 -5,0 -10,-4 -10,-10 z"
       id="path3112"
       inkscape:connector-curvature="0" />
    <path
       d="m 15069.459,25659.977 c -245.153,-440.216 -321.451,-1029.772 -619.313,-1364.494 -339.07,-292.92 -752.949,-500.46 -1011.15,-879.367 -379.853,-464.571 -751.87,-972.753 -881.844,-1570.113 -193.312,-564.307 -282.57,-1194.169 -127.508,-1776.504 147.932,-406.347 254.324,-832.409 474.356,-1208.499 9.367,344.281 -48.837,681.054 -101.629,1023.195 -97.242,495.769 -281.935,1032.449 -43.621,1518.281 125.805,447.726 497.577,746.773 742.113,1125.763 443.725,674.56 529.161,746.048 722.626,966.914 213.905,291.844 417.675,564.023 644.969,865.636 134.243,659.027 89.848,744.235 206.931,1109.107 -6.62,16.986 84.59,307.735 -5.93,190.081 z"
       id="path3114"
       inkscape:connector-curvature="0"
       sodipodi:nodetypes="ccccccccccccc" />
    <path
       d="m 17287,23908 c 246.208,-322.891 -63.189,-775.508 -261.568,-1061.266 -385.105,-530.547 -836.464,-1008.643 -1277.716,-1489.89 -368.663,-449.277 -529.48,-1052.664 -482.716,-1626.844 84.36,-168.154 362.256,-634.867 372.38,-630.658 -126.495,371.352 -261.159,742.145 -173.097,1141.128 34.901,444.665 450.644,684.63 693.296,1013.205 430.191,492.407 885.395,984.634 1156.895,1585.717 90.407,310.316 213.734,659.242 107.855,978.917 -20.285,51.257 -70.552,119.187 -135.329,89.691 z"
       id="path3126"
       inkscape:connector-curvature="0" />
    <path
       d="m 19583.609,22783.241 c 260.958,-404.052 -178.55,-772.835 -334.316,-1037.328 -251.962,-485.748 -248.424,-506.933 -439.536,-712.304 -462.643,-491.099 -822.776,-816.518 -713.518,-1830.576 321.841,-398.205 277.81,-471.762 181.893,-124.209 -102.099,195.828 -101.901,762.296 197.567,1165.396 424.136,503.268 948.911,1021.212 1202.902,1619.685 50.27,227.599 206.579,838.601 -94.992,919.336 z"
       id="path3128"
       inkscape:connector-curvature="0"
       sodipodi:nodetypes="cccccccc" />
    <path
       d="m 17908,18816 c -43,-13 -110,-39 -150,-59 -92,-45 -246,-95 -329,-106 -85,-12 -174,-27 -344,-58 -249,-45 -282,-47 -427,-22 -85,14 -214,9 -291,-13 -65,-18 -81,-25 -144,-65 -15,-10 -55,-34 -89,-53 -34,-19 -86,-53 -115,-76 -87,-66 -304,-286 -322,-326 -10,-20 -30,-43 -44,-50 -18,-8 -29,-24 -34,-44 -3,-17 -13,-42 -22,-55 -33,-47 -20,-92 34,-119 58,-30 74,-26 119,33 22,28 50,63 63,77 13,14 34,42 48,62 13,21 36,42 51,47 15,5 43,26 63,45 51,51 220,159 296,189 89,35 148,40 264,22 153,-23 281,-20 400,10 55,14 125,28 155,31 128,13 310,47 377,70 39,13 77,24 83,24 6,0 35,11 63,24 117,55 241,107 267,113 23,4 36,-2 72,-34 136,-121 221,-162 443,-214 22,-5 85,-16 140,-24 55,-9 132,-22 170,-30 133,-26 340,-47 465,-45 l 125,1 80,-41 c 63,-31 97,-59 160,-124 64,-67 89,-86 118,-91 32,-6 42,-4 63,16 13,12 24,30 24,39 0,9 14,38 31,64 29,43 31,51 24,103 -6,50 -14,64 -71,132 -83,99 -176,161 -241,161 -18,0 -55,9 -83,20 -28,11 -71,20 -96,20 -25,0 -82,7 -127,15 -141,25 -221,37 -257,40 -71,6 -400,67 -520,96 -68,16 -118,46 -189,112 -70,64 -148,107 -196,106 -16,0 -65,-11 -107,-23 z"
       id="path3130"
       inkscape:connector-curvature="0" />
    <path
       d="m 13397,18249 c -437.506,-73.147 -752.581,-429.235 -1176,-543 -372.672,-138.871 -680.366,-336.372 -841,-723 -334.081,-300.467 -747.049,20.868 -1080.479,157.115 -288.23,203.547 -608.7203,496.664 -990.521,339.885 -357.8963,-46.507 -738.2247,101.148 -1015.1562,-223.922 C 7890.7539,17200.65 7593.1501,16934.531 7322,16647 c -248.3579,-334.596 -540.943,-661.422 -669.875,-1064.25 303.3027,144.471 483.2453,585.491 717.875,861.25 262.8623,249.329 547.0185,432.504 894,526 322.1737,311.696 757.2751,64.445 1137,217 375.1254,-126.784 688.551,-441.873 1091,-548 254.852,-40.486 677.967,-376.398 859.875,-62.5 168.126,348.752 393.789,687.177 788.125,788.5 381.105,155.467 709.069,427.04 1108,546 384.053,-134.005 775.778,0.323 1173.25,-127 395.539,-72.511 642.868,-440.539 1038.75,-519 345.549,-54.793 673.507,-20.015 912.576,-329.666 364.212,-204.027 736.414,-461.62 1167.424,-480.334 327.881,-77.24 769.988,454.345 211.25,319.5 -443.874,-4.868 -807.853,282.444 -1182.25,473.5 -216.405,359.846 -589.603,305.974 -941.625,335.75 -428.213,91.64 -686.698,533.776 -1146.375,533 -374.4,141.535 -717.453,-17.683 -1084,132.25 z"
       id="path3132"
       inkscape:connector-curvature="0" />
    <path
       d="m 20685,17999 c -1268.432,-503.877 -2391.259,-1084.985 -2159,-1062 -341.635,-643.871 1451.396,747.557 1240.868,414.44 3088.822,1664.959 5833.499,-2617.557 4911.252,-2503.641 -1700.101,-172.398 -3448.746,-48.63 -5148.12,-233.799 -868.874,-21.631 -1774.471,-191.843 -2621,-108 -1244.645,8.183 -2490.951,-214.245 -3731.812,-31.469 -1335.537,77.786 -2664.102,126.638 -3989.938,277.719 -2096.0954,233.643 -4216.539,469.65 -6264.25,994.75 -835.716,841.564 1026.1293,1027.457 1506.25,1086.5 1285.8182,288.777 2331.4244,235.853 2158.75,256.5 116.5093,113.156 163.4443,250.897 -694.3105,257.756 C 4866.1552,17296.498 3842.1775,17256.817 2844,16976 c -700.7128,-127.455 -1554.1168,-378.472 -1411.5474,-767.918 41.6565,-632.7 172.7209,-1089.568 304.9611,-1601.375 C 2007.6739,13991.836 2238.0302,13358.544 2633,12815 2995.1122,12104.082 3495.8087,11484.123 3931,10824 4484.3318,9831.7856 5201.6907,8825.0595 6332,8460 6717.8595,8237.168 7886.9352,7768.3637 7565,7990 8119.2106,7588.2059 7860.8601,5999.1586 7865.4137,5931.6352 7934.1144,5675.285 8671.7663,5761.3088 9633,5643 c 1885.473,-49.1912 3767.397,-270.5765 5655.375,-216.25 1235.487,53.2942 2490.99,113.8206 3735.125,48.25 995.768,7.0162 2156.615,36.2959 2916.5,38 550.394,108.3707 333.704,759.4871 257.522,1149 103.053,799.7807 485.912,701.5027 1298.478,1073 1183.393,636.2916 2006.567,1746.6733 2974,2648 430.319,621.837 901.441,1225.296 1290,1868 231.638,718.74 752.777,1260.738 967,1986 114.973,592.491 529.608,1236.477 525.757,1552.191 -18.023,263.465 -697.042,511.505 -892.719,607.869 -1309.198,401.274 -2379.156,710.911 -3776.001,545.699 -228.497,-578.255 1142.067,-271.97 1592,-434 443.911,-185.348 1188.438,-312.219 1080.98,-1062.037 -86.374,-342.077 -1547.208,-647.159 -1798.108,-421.233 -622.306,613.003 -965.956,1304.341 -1261.159,1722.511 -570.195,641.629 -2039.147,1051.388 -2184.379,1094.646 -180.218,60.272 -865.366,169.095 -1328.371,156.354 z M 2345,15363 c 1303.3702,-364.317 2648.1654,-540.093 3975,-794 1571.6373,-301.703 3300.4719,-509.196 2705,-459 1434.912,-220.184 2893.069,-124.888 4332,-207 1584.144,-181.253 3190.342,15.736 4783,15 1251.347,87.385 2510.3,100.828 3758,102 915.521,86.125 3645.851,494.783 2747,271 1194.621,216.161 2423.436,327.825 3571,739 -266.191,-743.441 -712.484,-1394.641 -1063,-2088 -331.839,-632.874 -716.399,-1240.091 -1069,-1864 -330.226,-459.891 -669.119,-961.387 -594,-853 -373.919,-531.2447 -796.993,-991.7242 -1334,-1324 -725.536,-546.4719 -1590.973,-972.5943 -2498,-1068 -142.553,-900.343 -92.124,-434.2969 -107,-1183 -58.71,-431.5135 -545.179,-472.0072 -893.112,-422.1865 -734.931,-24.8569 -1388.051,9.7208 -2148.888,76.1865 -1226.709,49.6195 -2508.419,34.2899 -3763,153 -364.714,-16.3404 -241.187,0.9551 -1170,-4 -1700.767,-105.4396 -2471.085,12.2268 -3664.0746,-2.6306 C 9414.2821,6480.0082 8471.7463,6347.541 8537,7059 c 31.7497,682.4275 -132.6449,1169.2508 -78,1076 -405.6003,134.6735 -606.8925,92.7658 -1215,325 -428.2784,193.9833 -626.4733,375.0621 -902,568 -336.3802,145.4396 -531.4569,278.1703 -767,623 -139.5848,157.9838 -344.3269,351.672 -433,535 -300.0833,346.804 -1157.3155,1453.279 -842,1107 -449.397,759.365 -852.2479,1570.896 -1220,2336 -307.08,543.015 -510.6808,1080.322 -810,1605 -48.0802,113.375 -124.3243,217.643 75,129 z"
       id="path3134"
       inkscape:connector-curvature="0"
       sodipodi:nodetypes="ccccccccccccccccccccccccccccccccccccccccccccccccccccccccccccccccccc" />
    <path
       d="m 13675,16535 c -16,-9 -37,-22 -45,-29 -8,-7 -35,-18 -60,-25 -25,-7 -74,-32 -110,-55 -36,-24 -86,-55 -112,-70 -60,-35 -128,-109 -128,-139 0,-30 18,-47 50,-47 30,0 50,16 50,41 0,47 276,228 372,244 54,9 289,-41 353,-76 56,-30 111,-43 120,-29 18,29 -162,133 -287,167 -124,34 -166,37 -203,18 z"
       id="path3138"
       inkscape:connector-curvature="0" />
    <path
       d="m 20737,16178 c -22,-8 -27,-15 -25,-36 2,-14 10,-28 18,-33 29,-14 96,-30 145,-34 28,-2 102,-9 165,-15 126,-12 163,-8 158,17 -5,24 -244,103 -268,88 -5,-3 -33,1 -62,10 -59,17 -91,18 -131,3 z"
       id="path3140"
       inkscape:connector-curvature="0" />
    <path
       d="m 24627,15675 c 6,-44 9,-50 16,-38 2,4 -2,24 -9,43 l -13,35 6,-40 z"
       id="path3142"
       inkscape:connector-curvature="0" />
    <path
       d="m 9366,15478 c -9,-12 -16,-35 -16,-50 0,-26 8,-32 95,-74 102,-48 128,-52 133,-17 2,16 -7,28 -36,47 -21,13 -50,37 -63,53 -25,30 -72,63 -88,63 -5,0 -17,-10 -25,-22 z"
       id="path3144"
       inkscape:connector-curvature="0" />
    <path
       d="m 16345,15234 c -22,-8 -69,-18 -105,-21 -56,-6 -69,-11 -104,-44 l -41,-37 26,-26 c 15,-14 35,-25 45,-24 11,1 38,-1 62,-6 37,-7 47,-5 65,12 12,11 32,23 45,27 15,4 22,14 22,30 0,16 11,30 38,46 20,13 40,27 44,33 19,29 -32,34 -97,10 z"
       id="path3146"
       inkscape:connector-curvature="0" />
    <path
       d="m 7337,15164 c -4891.3333,-10109.3333 -2445.6667,-5054.667 0,0 z"
       id="path3148"
       inkscape:connector-curvature="0"
       sodipodi:nodetypes="cc" />
    <path
       d="m 7470,15125 c -4980,-10083.3333 -2490,-5041.667 0,0 z"
       id="path3150"
       inkscape:connector-curvature="0"
       sodipodi:nodetypes="cc" />
  </g>
</svg>
