<?xml version="1.0" encoding="UTF-8" standalone="no"?>
<!-- Created with Inkscape (http://www.inkscape.org/) -->

<svg
   xmlns:dc="http://purl.org/dc/elements/1.1/"
   xmlns:cc="http://creativecommons.org/ns#"
   xmlns:rdf="http://www.w3.org/1999/02/22-rdf-syntax-ns#"
   xmlns:svg="http://www.w3.org/2000/svg"
   xmlns="http://www.w3.org/2000/svg"
   xmlns:xlink="http://www.w3.org/1999/xlink"
   xmlns:sodipodi="http://sodipodi.sourceforge.net/DTD/sodipodi-0.dtd"
   xmlns:inkscape="http://www.inkscape.org/namespaces/inkscape"
   id="svg2"
   version="1.1"
   inkscape:version="0.47 r22583"
   width="544.15222"
   height="634.72711"
   xml:space="preserve"
   sodipodi:docname="list2.eps"><metadata
     id="metadata8"><rdf:RDF><cc:Work
         rdf:about=""><dc:format>image/svg+xml</dc:format><dc:type
           rdf:resource="http://purl.org/dc/dcmitype/StillImage" /><dc:title></dc:title></cc:Work></rdf:RDF></metadata><defs
     id="defs6"><linearGradient
       id="linearGradient3644"><stop
         style="stop-color:#00713d;stop-opacity:1;"
         offset="0"
         id="stop3646" /><stop
         style="stop-color:#79c579;stop-opacity:1;"
         offset="1"
         id="stop3648" /></linearGradient><inkscape:perspective
       sodipodi:type="inkscape:persp3d"
       inkscape:vp_x="0 : 0.5 : 1"
       inkscape:vp_y="0 : 1000 : 0"
       inkscape:vp_z="1 : 0.5 : 1"
       inkscape:persp3d-origin="0.5 : 0.33333333 : 1"
       id="perspective10" /><linearGradient
       inkscape:collect="always"
       xlink:href="#linearGradient3644"
       id="linearGradient3650"
       x1="344.52167"
       y1="347.68906"
       x2="341.36813"
       y2="1050.1349"
       gradientUnits="userSpaceOnUse" /></defs><sodipodi:namedview
     pagecolor="#ffffff"
     bordercolor="#666666"
     borderopacity="1"
     objecttolerance="10"
     gridtolerance="10"
     guidetolerance="10"
     inkscape:pageopacity="0"
     inkscape:pageshadow="2"
     inkscape:window-width="2558"
     inkscape:window-height="1572"
     id="namedview4"
     showgrid="false"
     inkscape:zoom="1.2684253"
     inkscape:cx="-97.411606"
     inkscape:cy="279.67336"
     inkscape:window-x="0"
     inkscape:window-y="26"
     inkscape:window-maximized="0"
     inkscape:current-layer="layer2" /><g
     inkscape:groupmode="layer"
     id="layer3"
     inkscape:label="bg-solid"
     style="display:none"
     transform="translate(-17.194164,-404.52001)"><rect
       style="fill:#595959;fill-opacity:1;fill-rule:nonzero;stroke:#ffffff;stroke-width:5;stroke-miterlimit:4;stroke-opacity:1;stroke-dasharray:none"
       id="rect3666"
       width="823.93805"
       height="1111.5917"
       x="-18.95392"
       y="-18.95392" /></g><g
     inkscape:groupmode="layer"
     id="layer1"
     inkscape:label="bg"
     style="display:none"
     transform="translate(-17.194164,-404.52001)"><rect
       style="fill:url(#linearGradient3650);fill-opacity:1;fill-rule:nonzero;stroke:none"
       id="rect3642"
       width="741.86475"
       height="702.4458"
       x="-0.78837913"
       y="347.68906" /></g><g
     id="g12"
     inkscape:groupmode="layer"
     inkscape:label="ink_ext_XXXXXX"
     transform="matrix(1.25,0,0,-1.25,-17.194164,647.97999)"><g
       id="g14"
       transform="scale(0.1,0.1)"><path
         style="fill:#ffffff;fill-opacity:1;fill-rule:nonzero;stroke:#ffffff;stroke-width:77;stroke-miterlimit:4;stroke-opacity:1;stroke-dasharray:none"
         d="m 3904.1,5144.38 c -272.9362,23.7745 -301.5973,-402.863 -540.7588,-306.7212 -170.6311,-91.9695 -219.1833,58.6725 -56.565,150.3709 42.6604,149.7507 382.6979,-49.8058 220.1321,88.4016 -213.0286,13.4073 -289.8543,-100.3216 -384.307,-257.5341 -126.2552,-8.5154 -510.931,-75.2965 -274.9585,142.941 45.4176,159.0647 448.4588,-58.7942 230.7277,119.8561 -249.6074,78.2851 -289.6959,-248.4111 -470.5006,-304.8828 -155.8345,-15.1058 -318.986,-50.7227 -171.3983,149.7496 86.6193,167.3385 406.6197,-16.7638 208.6084,148.8489 -210.7893,20.2265 -268.7776,-238.1029 -372.8114,-329.8293 -141.4915,1.2108 -424.9197,-66.2511 -263.57,170.2465 29.4745,197.4847 477.1897,-15.1852 231.9995,155.4695 -272.0789,78.2641 -276.8377,-406.9331 -481.3981,-344.5267 -229.0299,-135.9534 -223.2936,295.9849 -1.3519,245.0611 85.362,-57.767 215.1029,-22.12 59.2476,46.471 -143.7469,102.7747 -286.4684,-158.9329 -379.3745,-298.7263 -163.3846,13.1532 -358.653,33.3847 -301.2413,-194.2742 25.0213,-204.8667 67.228,-340.8337 38.5433,-585.6688 C 1155.3282,3430.6748 1049.2397,2930.104 940.32985,2432.4016 887.68822,2268.065 870.95144,2132.5255 798.258,1982.6 724.606,1789.313 637.11993,1608.9172 542.62722,1394.7597 469.77682,1184.6617 360.81598,984.54252 258.86189,784.81494 180.3174,684.04298 103.02087,568.22395 302.53994,571.65575 444.53591,576.94235 174.9817,503.38137 374.66258,476.48056 839.81719,346.15099 1311.4127,229.96972 1795.173,200.2018 c 402.3277,-63.24519 810.123,-71.23887 1215.1001,-30.94716 199.4571,25.12845 353.2169,39.0385 520.6298,70.93015 110.3197,168.3134 168.6257,380.64256 248.0139,570.83084 288.0113,811.48547 553.5731,1651.23457 562.4632,2520.12437 90.6246,310.3967 36.7572,639.6153 -13.9355,952.0935 26.2853,13.3789 -67.624,291.8277 -18.2645,108.3965 -105.5644,232.8067 -19.2811,-252.9983 -9.222,-262.5532 62.3501,-429.5881 1.1505,-863.9343 -26.1227,-1293.6283 C 4163.399,1986.7174 3892.9926,1165.4039 3558.3628,380.75148 3332.4293,161.30134 2951.6482,240.02916 2656.791,194.50904 2214.7206,180.90228 1777.4604,265.6358 1338.9981,307.92485 1038.8424,355.73662 747.12483,442.92725 453.988,521.156 c 233.65012,-16.72465 423.66109,-60.27533 641.3153,-61.48947 515.9649,-52.23929 1041.2012,-85.99035 1554.9263,-3.96401 195.7317,32.82738 416.4861,16.20822 595.9057,70.95223 160.1841,181.966 224.6978,426.40158 333.5468,643.83695 225.7137,582.4643 445.9024,1174.3105 521.9986,1798.2563 87.9439,550.062 108.8306,1109.7088 94.2336,1665.6277 62.5268,358.8801 -353.0931,159.527 -570.1018,216.6605 6.4299,287.0129 361.4644,245.5135 495.3221,160.4069 -3.9058,140.5305 -168.429,120.0722 -175.0048,131.1437 l -42.0298,1.7932 0,0 z m 48.8,-330.64 c 288.2477,54.2554 188.7215,-330.7253 201.8611,-499.8417 6.6322,-537.0059 -25.9039,-1074.4123 -131.5509,-1601.9068 -46.1122,-214.825 -57.7764,-377.4828 -127.4566,-537.8235 C 3749.2235,1713.1178 3593.8926,1248.3002 3372.1075,816.14031 3307.1871,475.88318 2912.8014,562.21856 2659.7886,500.72823 2009.3332,396.67653 1351.5357,497.58221 701.14235,546.96183 550.28443,601.76152 117.74716,560.66216 295.06992,824.10565 429.24551,991.81883 545.91218,1262.7769 633.223,1492.8 c 186.91908,424.0809 372.7169,854.5524 440.2127,1316.6955 112.3458,504.2122 194.7471,1019.8142 171.5331,1537.6784 -4.7275,149.9349 -97.7688,409.7947 145.988,332.8831 114.5663,11.1082 212.7343,-179.8433 234.8921,-21.2816 183.6718,62.8328 437.0558,-22.0244 358.09,-29.2945 55.3502,98.8765 375.4147,118.2899 407.3121,-34.323 -53.4911,185.2033 381.499,236.6658 345.249,25.2521 82.4772,34.8708 -5.6492,203.7009 167.9443,155.7435 163.9189,5.4904 233.8908,-10.3274 296.2588,-147.9591 31.3205,47.0712 -1.1428,194.8395 151.4108,165.7585 139.4905,44.4107 215.7261,16.7925 230.3401,-129.0205 88.198,-6.8378 6.8028,240.7759 178.7447,144.0375 63.8621,2.4 127.7589,8.4148 191.7013,4.7701 z"
         id="path16" /><path
         style="fill:#ffffff;fill-opacity:1;fill-rule:nonzero;stroke:#ffffff;stroke-width:40;stroke-miterlimit:4;stroke-opacity:1;stroke-dasharray:none"
         d="m 4427.82,3878.73 c -12.1868,-84.1218 -6.059,-175.6606 -3.46,-264.73 9.7639,-135.6031 3.0509,-272.0822 -10.7955,-407.2676 7.4148,-130.0228 -9.9236,-259.043 -8.667,-388.9861 -9.8634,-167.0639 -19.0237,-333.5576 -41.3075,-499.5763 -1.259,-56.125 -16.5837,-108.2374 -14.75,-157.67 -5.4189,-29.4216 -24.1688,-114.8761 -19.1025,-103.0513 8.8708,-28.7946 -9.3989,-127.1364 -13.0975,-96.5987 -5.8872,-53.2579 -28.1741,-166.0302 -22.38,-134.9 -18.7971,-115.0409 -45.5763,-215.1487 -64.54,-331.15 -61.1283,-260.9672 -103.4555,-526.41317 -183.93,-782.425 -31.2988,-102.6828 -47.2047,-208.94224 -88.16,-302.238 -60.9671,-115.74103 53.7215,-98.15542 54.82,12.922 45.2166,108.42703 57.5968,233.33134 97.39,338.808 8.5096,41.83808 24.6123,96.24866 39.21,141.278 48.497,214.3537 93.537,430.3846 142.36,644.975 -26.7626,-59.4985 21.0337,132.4618 -0.61,15.83 13.3533,50.7305 55.9704,312.8481 58.15,282.03 -25.7529,-88.8006 26.8585,154.9144 29.2561,160.0433 11.143,89.6337 18.9845,195.6714 37.5239,275.9367 -11.0629,-2.5794 6.6204,-16.1962 3.8412,21.3387 5.5249,59.866 4.6211,126.9945 -3.4012,29.4313 2.3817,115.437 25.1324,225.2977 22.5562,341.03 11.9589,153.2468 10.3514,312.1152 31.5738,461.05 1.2946,115.6024 -0.309,230.7226 -2.0213,346.475 3.9333,130.3635 -11.7749,261.0569 -29.1787,389.555 -3.7269,-0.5205 -4.6502,18.6731 -11.28,7.89 z"
         id="path18" /><path
         style="fill:#ffffff;fill-opacity:1;fill-rule:nonzero;stroke:#ffffff;stroke-width:24;stroke-miterlimit:4;stroke-opacity:1;stroke-dasharray:none"
         d="m 2161.68,4123.21 c -32.5338,-58.3546 -80.2433,-122.8741 -159.5612,-106.7321 -59.4751,3.7485 -71.847,86.6719 -102.7588,101.0921 -41.8581,-65.1505 -5.7076,-152.3463 -23.4778,-227.2502 2.9786,-59.0434 -21.3382,-108.0087 -29.8122,-163.4098 -0.744,-35.322 -37.6499,-45.6185 -16.56,-62.8937 -28.0481,-22.003 -14.9976,-106.0665 19.74,-52.6563 27.4614,75.3243 41.6487,154.8051 61.9703,232.39 19.9778,37.62 -25.1878,182.376 47.7864,123.9156 63.4888,-35.0575 153.3411,6.0126 182.2033,53.9244 12.5667,-115.0066 11.3031,-238.6079 78.3888,-338.3325 38.9214,-50.8918 72.2598,-131.0121 140.6237,-138.9425 50.2366,57.5295 -44.3533,99.3461 -67.3425,146.295 -52.7317,69.0626 -89.3588,153.614 -94.08,239.18 -8.2058,55.8882 -3.2506,111.8695 -16.6975,165.355 -2.513,9.0494 -1.3085,50.9213 -20.4225,28.065 z"
         id="path24" /><path
         style="fill:#ffffff;fill-opacity:1;fill-rule:nonzero;stroke:#ffffff;stroke-width:24;stroke-miterlimit:4;stroke-opacity:1;stroke-dasharray:none"
         d="m 2912.35,4078.45 c -32.5162,-51.4916 4.0266,-148.0364 -43.0067,-192.7383 -48.7304,29.475 -127.1502,-53.1213 -47.3683,-60.9967 91.8591,12.0996 15.6211,-114.408 63.6125,-163.4138 25.0819,-53.433 84.4834,-86.6116 141.7725,-72.1412 39.5588,-13.3222 65.7373,96.2571 -7.1042,62.1373 -69.7938,0.8889 -106.4036,71.5287 -109.18,133.6322 -7.2479,68.4556 138.206,-7.4386 138.5742,76.9905 -47.3277,27.7682 -164.5358,-11.7068 -114.4563,88.2475 2.131,31.5949 36.7867,159.8098 -22.8437,128.2825 z"
         id="path26" /><path
         style="fill:#ffffff;fill-opacity:1;fill-rule:nonzero;stroke:#ffffff;stroke-width:24;stroke-miterlimit:4;stroke-opacity:1;stroke-dasharray:none"
         d="m 2515.78,3932.69 c -50.3714,-6.144 -136.039,-88.4047 -103.95,-124.3425 37.0582,63.7229 142.6139,96.8666 177.6088,12.7525 29.4343,-43.7478 -79.4217,10.3244 -94.7688,-37.19 -51.7367,-24.4564 -98.0512,-92.7691 -63.69,-149.08 33.0267,-25.0672 65.8991,-57.5087 117.37,-39.06 55.8932,-11.7192 91.3603,78.3624 133.1306,7.6773 40.4789,-23.8091 99.9017,-57.2125 106.9794,-3.5286 -2.4863,63.5709 -113.0963,52.5239 -112.13,121.5313 -1.6922,71.8722 -30.2674,149.1116 -87.95,194.33 -22.5962,9.5567 -47.891,18.4599 -72.6,16.91 z m 41.68,-174.49 c 74.2752,-10.418 56.8125,-124.1949 -23.6739,-105.4112 -51.7386,7.3331 -95.1073,68.4298 -22.7227,94.3838 13.9242,4.5481 31.7837,20.8245 46.3966,11.0274 z"
         id="path28" /><path
         d="m 1786.85,3522.57 c -4.49,-0.8 -14.92,-1.5 -23.11,-1.55 -8.19,-0.05 -16.97,-0.88 -19.47,-1.82 -2.47,-0.94 -9.46,-2.11 -15.29,-2.55 -5.82,-0.44 -14.6,-2.15 -19.19,-3.73 -5.65,-1.94 -11.25,-2.53 -16.83,-1.76 -16.92,2.32 -29.98,-8.58 -29.91,-24.99 0.04,-11.25 30.09,-18.75 82.86,-20.68 31.66,-1.16 46.65,-2.62 64.23,-6.25 9.64,-1.99 23.01,-4.17 29.48,-4.82 6.55,-0.65 14.67,-1.87 18.19,-2.73 3.48,-0.84 10.92,-1.98 16.38,-2.49 20.38,-1.93 26.58,-2.89 36.39,-5.58 5.54,-1.53 15.28,-3.53 21.83,-4.48 6.59,-0.97 17.47,-2.9 24.57,-4.37 7.01,-1.45 22.11,-3.17 33.57,-3.82 11.47,-0.65 21.49,-1.59 22.29,-2.08 4.91,-3.03 64.96,-5.44 87.52,-3.51 4.9,0.42 14.74,0 21.84,-0.95 17.83,-2.36 48.39,-5.31 64.6,-6.24 7.45,-0.43 16.42,-1.19 20.1,-1.69 3.69,-0.5 10.28,-1.31 14.83,-1.82 4.52,-0.5 18.38,-2.13 30.93,-3.64 12.56,-1.5 30.9,-3.28 40.95,-3.97 20.18,-1.37 17.65,-1.11 54.59,-5.41 19.27,-2.24 39.84,-3.15 70.05,-3.08 27.11,0.06 49.42,-0.84 60.96,-2.45 21.79,-3.03 34.93,-3.93 78.06,-5.32 17.83,-0.58 33.14,-1.41 33.84,-1.83 4.36,-2.65 42.94,-2.78 60.05,-0.2 15.17,2.29 65.32,4.06 83.7,2.95 1.49,-0.09 10.55,0.73 20.02,1.8 39.48,4.46 65.45,6.63 99.16,8.26 10.05,0.49 26.75,1.37 37.3,1.97 10.56,0.61 23.59,1.31 29.12,1.58 10.55,0.51 40.79,4.15 45.49,5.48 1.5,0.42 27.66,2.44 58.23,4.5 30.57,2.05 57.53,4.26 60.04,4.91 2.55,0.67 5.15,1.06 5.92,0.91 0.74,-0.15 6.91,0.51 13.64,1.46 6.79,0.95 19.2,2.14 27.75,2.65 31.66,1.9 59.54,4.82 72.79,7.64 7.46,1.58 16.78,3.23 20.56,3.63 3.82,0.4 7.69,1.17 8.64,1.73 0.95,0.54 8.92,1.78 17.65,2.72 8.74,0.95 19.99,2.19 24.93,2.73 4.91,0.55 9.87,1.67 10.92,2.46 1.06,0.81 5.55,1.93 10.1,2.51 7.16,0.92 14.19,3.42 23.65,8.42 1.49,0.79 3.64,3.26 4.73,5.45 1.73,3.45 2.31,3.63 4.27,1.27 6.79,-8.2 15.67,13.83 12.02,29.84 -3.59,15.77 -20.66,19.57 -60.14,13.4 -10.01,-1.57 -21.88,-3.17 -26.38,-3.57 -4.56,-0.41 -10.22,-1.26 -12.74,-1.91 -2.55,-0.66 -6.55,-1.33 -9.1,-1.51 -10.37,-0.74 -27.96,-2.95 -29.11,-3.66 -2.15,-1.33 -30.75,-4.42 -83.16,-8.99 -28.39,-2.48 -52.19,-4.9 -53.04,-5.4 -0.85,-0.5 -10.1,-1.37 -20.47,-1.92 -10.37,-0.54 -22.63,-1.49 -27.11,-2.09 -4.51,-0.6 -13.11,-1.29 -19.11,-1.54 -5.97,-0.25 -17.11,-1.4 -24.56,-2.55 -7.5,-1.15 -21.11,-2.46 -30.21,-2.91 -9.1,-0.45 -18.65,-1.36 -21.2,-2 -2.55,-0.66 -11.46,-1.43 -19.83,-1.73 -8.37,-0.3 -21.33,-0.96 -28.84,-1.46 -7.51,-0.5 -25.11,-1.41 -39.12,-2.03 -28.75,-1.26 -63.93,-4.17 -66.06,-5.46 -0.79,-0.48 -15.82,-1.35 -33.29,-1.94 -46.77,-1.55 -62.88,-2.62 -67.87,-4.5 -6.65,-2.49 -42.22,-2.53 -71.15,-0.06 -14.01,1.19 -39.03,2.45 -55.59,2.8 -16.56,0.35 -35.44,1.62 -41.94,2.81 -14.01,2.58 -59.84,3.36 -62.96,1.07 -1.22,-0.9 -3.19,-1 -4.46,-0.24 -1.26,0.76 -13.28,1.57 -26.93,1.82 -13.65,0.25 -27.5,0.9 -31.02,1.46 -3.51,0.55 -11.28,1.49 -17.29,2.09 -6,0.6 -13,1.91 -15.56,2.91 -2.58,1.02 -7.82,1.62 -11.82,1.37 -4.01,-0.26 -12.83,0.1 -19.93,0.81 -6.97,0.7 -20.1,1.69 -29.02,2.19 -8.92,0.5 -19.21,1.69 -22.74,2.64 -3.65,0.97 -8.06,1.72 -10.11,1.72 -2.01,0 -8.91,0.45 -15.46,1 -6.53,0.56 -20.38,1.41 -30.93,1.9 -22.09,1.04 -25.48,1.41 -57.32,6.24 -21.47,3.25 -34.58,3.52 -52.77,1.06 -3.01,-0.4 -9.01,0.08 -13.38,1.09 -5.64,1.29 -8.64,1.19 -10.46,-0.37 -1.93,-1.65 -5.09,-1.68 -13.1,-0.09 -5.76,1.14 -18.74,2.48 -28.56,2.94 -22.02,1.04 -42.75,3.94 -53.32,7.46 -4.34,1.45 -12.19,2.61 -17.65,2.61 -5.46,0 -10.27,0.77 -10.83,1.73 -0.55,0.96 -3.63,1.32 -6.91,0.82 -3.26,-0.5 -10.83,0.44 -16.83,2.09 -6.04,1.66 -23.11,4.59 -38.21,6.55 -15.11,1.97 -35.83,4.65 -46.4,6.01 -10.56,1.35 -22.12,3.75 -25.84,5.35 -7.21,3.1 -12.01,3.28 -25.11,0.93"
         style="fill:#ffffff;fill-opacity:1;fill-rule:nonzero;stroke:#ffffff;stroke-width:24;stroke-miterlimit:4;stroke-opacity:1;stroke-dasharray:none"
         id="path30" /><path
         style="fill:#ffffff;fill-opacity:1;fill-rule:nonzero;stroke:#ffffff;stroke-width:24;stroke-miterlimit:4;stroke-opacity:1;stroke-dasharray:none"
         d="m 1940.42,3059.13 c -39.6456,-26.7519 -88.216,-93.0402 -121.71,-93.1575 -12.9331,68.2763 -128.2856,22.9988 -181.8802,45.4664 -73.4847,-0.8342 -0.2142,-151.7487 -83.512,-79.3553 -40.5916,-48.0805 70.2221,-73.0156 28.0022,-130.4436 -29.0111,-67.0151 11.6937,-98.7804 74.7536,-87.0001 60.8639,14.7519 163.6031,-71.3898 152.2464,42.0601 -2.8742,67.8971 -7.8441,148.8516 65.87,180.86 23.4936,41.8153 159.6435,83.2685 86.1861,131.2267 -8.0711,2.2434 -14.0786,-6.3061 -19.9561,-9.6567 z m -274.58,-102.37 c 59.5942,3.1857 164.7439,-16.2843 73.7888,-79.02 -27.275,-33.6077 -64.9998,-90.4372 -90.9788,-23.7 -20.8776,13.8687 -31.2586,129.9502 17.19,102.72 z m 105.44,-116.18 c 9.0561,-51.7462 -15.2695,-97.0211 -51.34,-50.4 14.2484,13.3347 36.3795,50.0938 51.34,50.4 z m -127.79,-48.4 c 22.2062,-50.1155 -55.9139,18.4217 -11.1389,13.3361 l 4.7086,-5.599 6.4303,-7.7371 z"
         id="path32" /><path
         d="m 2021.1,2777.8 c -17.9,-19.47 -21.45,-27.46 -18.72,-42.21 2.06,-11.14 23.92,-28.02 36.3,-28.02 3.46,0 6.87,-0.84 7.46,-1.82 0.62,-1.03 2.91,-1.82 5.28,-1.82 2.36,0 4.74,-0.56 5.46,-1.28 1.53,-1.53 3.27,-1.68 26.74,-2.31 14.33,-0.38 18.02,0.34 43.67,8.61 42.59,13.72 61.84,12.37 69.32,-4.84 0.31,-0.7 4.93,-3.93 10.2,-7.15 8.3,-5.05 18.38,-8.43 50.4,-16.89 9.94,-2.62 53.5,-0.78 68.24,2.89 6.55,1.64 16.21,3.68 21.65,4.59 5.46,0.91 10.4,2.53 11.1,3.64 0.72,1.12 2.55,1.48 4.19,0.82 1.61,-0.66 9.64,0.2 18.01,1.92 28.78,5.91 49.49,1.94 85.16,-16.34 15.1,-7.74 20.21,-9.76 30.02,-11.88 6.01,-1.3 12.15,-3.4 13.65,-4.67 6.38,-5.4 52.59,-9.42 72.78,-6.33 7.51,1.15 23.47,3.27 35.49,4.73 12,1.45 26.74,3.95 32.75,5.54 6,1.61 14.19,3.16 18.2,3.46 9.82,0.74 28.07,5.52 30.56,8.01 1.12,1.12 4.01,2 6.55,2 2.45,0 7.37,1.01 10.65,2.19 5.27,1.88 6.75,1.75 11,-1 8.45,-5.46 37.13,-19.02 46.77,-22.12 18.74,-6.02 22.16,-6.8 32.75,-7.39 6.01,-0.34 15.42,0.25 20.93,1.3 5.46,1.04 12.49,2.28 15.46,2.73 3.1,0.46 7.04,1.5 9.1,2.4 4.19,1.82 14.38,3.48 33.67,5.51 17.38,1.82 28.2,4.29 47.12,10.74 21.47,7.32 39.7,7.64 55.32,0.97 23.65,-10.1 28.08,-11.76 40.39,-15.17 31.16,-8.65 72.24,-9.37 117.73,-2.07 33.48,5.36 119.1,-3.37 139.38,-14.22 17.11,-9.15 44.19,3.65 36.81,17.39 -4.6,8.55 -22.79,27.84 -26.25,27.84 -1.55,0 -4.55,1.78 -6.92,4.09 -2.32,2.28 -7.82,5.23 -12.37,6.65 -4.55,1.41 -10.62,3.53 -13.65,4.76 -29.7,12.05 -48.22,15.78 -78.06,15.71 -26.38,-0.05 -50.91,-1.72 -58.41,-3.97 -15.83,-4.75 -66.54,-7.81 -73.69,-4.45 -2.49,1.17 -10.74,3.62 -18.2,5.41 -7.46,1.79 -14.47,3.9 -15.47,4.65 -14.78,11.17 -60.77,12.41 -92.25,2.48 -4.73,-1.5 -9.4,-2.34 -10.19,-1.85 -0.8,0.5 -7.27,-0.24 -14.37,-1.64 -7.1,-1.4 -14.52,-2.09 -16.47,-1.55 -1.93,0.55 -9.01,-0.36 -15.56,-2 -6.55,-1.63 -15.98,-3.25 -20.74,-3.54 -4.8,-0.3 -14.56,-1.6 -21.65,-2.88 -20.6,-3.72 -29.66,-1.71 -58.41,13 -25.84,13.21 -48.54,18.69 -52.27,12.62 -0.67,-1.09 -4.14,-2 -7.6,-2 -3.45,0 -10.37,-2.04 -15.1,-4.46 -4.83,-2.46 -13.01,-4.82 -18.29,-5.28 -5.27,-0.45 -10.45,-1.71 -11.55,-2.82 -1.13,-1.12 -4.82,-2 -8.46,-2 -3.54,0 -9.92,-0.82 -14.1,-1.82 -4.22,-1 -17.29,-2.71 -29.12,-3.82 -11.83,-1.1 -25.15,-2.35 -29.66,-2.79 -12.74,-1.21 -27.97,-0.6 -29.84,1.21 -0.99,0.96 -6.82,1.81 -12.83,1.85 -6,0.05 -13.9,1.21 -17.37,2.55 -3.57,1.38 -10.38,3.94 -15.47,5.82 -5.1,1.89 -10.14,4.37 -11.46,5.64 -1.36,1.31 -3.74,2.28 -5.56,2.28 -1.77,0 -5.91,2.01 -9.37,4.55 -3.45,2.54 -8.19,4.55 -10.73,4.55 -2.52,0 -9.1,1.54 -14.74,3.44 -30.02,10.14 -78.81,9.82 -102.81,-0.69 -3.03,-1.32 -11.28,-2.91 -18.56,-3.57 -7.28,-0.66 -15.77,-2.04 -19.1,-3.11 -24.02,-7.71 -72.35,0.08 -87.71,14.14 -3.64,3.33 -8.78,6.67 -11.19,7.25 -2.36,0.59 -4.46,1.78 -4.46,2.56 0,6.36 -48.1,15.01 -51.64,9.27 -0.61,-0.99 -5.04,-2.39 -9.77,-3.09 -4.73,-0.7 -9.47,-1.85 -10.46,-2.55 -1.01,-0.7 -6.92,-1.72 -13.28,-2.27 -6.37,-0.56 -12.6,-1.95 -14.02,-3.13 -10.31,-8.59 -61.19,-0.79 -70.73,10.86 -12.82,15.65 -15.46,16.9 -21.63,10.19"
         style="fill:#ffffff;fill-opacity:1;fill-rule:nonzero;stroke:#ffffff;stroke-width:24;stroke-miterlimit:4;stroke-opacity:1;stroke-dasharray:none"
         id="path34" /><path
         d="m 1503.9,2373.24 c -14.22,-3.42 -21.26,-18.31 -21.96,-46.52 -0.33,-13.28 -1.4,-28.49 -2.39,-34.02 -2.12,-11.83 -12.12,-58.12 -14.55,-67.33 -0.92,-3.49 -4.13,-15.83 -7.1,-27.29 -8.01,-30.94 -11.29,-42.15 -14.21,-48.59 -1.41,-3.09 -2.57,-7.16 -2.57,-9 0,-1.86 -1.23,-5.74 -2.74,-8.65 -6.82,-13.1 -2.35,-29.21 8.93,-32.22 4.18,-1.11 11.46,-3.46 16.56,-5.33 16.24,-5.97 65.87,-9.03 146.48,-9.03 17.28,0 17.28,0 20.83,-10.92 2.9,-8.91 4.38,-11.1 8.1,-11.91 7.64,-1.68 9.83,-2.31 17.47,-5.09 7.09,-2.58 7.4,-2.53 12.37,2.1 9.8,9.12 10.51,13.27 8.13,47.66 -1.71,24.74 -1.65,34.23 0.33,48.58 1.35,9.83 2.83,25.14 3.28,34.12 0.5,10 1.8,17.68 3.36,19.92 1.44,2.07 2.55,6.01 2.55,9.1 0,3.04 1.64,10.37 3.7,16.56 6.37,19.1 7.22,22.08 7.22,25.29 0,1.69 1.14,4.92 2.52,7.1 10.54,16.74 18.25,76.56 10.22,79.27 -0.99,0.33 -1.82,2.61 -1.82,4.98 0,5.27 -5.57,8.98 -8.74,5.82 -1.66,-1.66 -3.09,-1.64 -6,0.09 -2.09,1.24 -7.46,2.07 -11.83,1.82 -6,-0.34 -8.6,0.36 -10.37,2.82 -1.74,2.4 -5.28,3.39 -13.29,3.73 -6,0.25 -12.47,1.28 -14.37,2.3 -6.97,3.72 -42.58,4.35 -77.33,1.38 -42.22,-3.61 -46.68,-3.52 -51.5,1.02 -3.86,3.64 -4.73,3.81 -11.28,2.24 z m 118.27,-60.54 c 5.46,-2.33 9.47,-3.35 28.03,-7.15 17.05,-3.48 17.55,-6.12 7.01,-36.51 -4.69,-13.52 -7.19,-22.02 -16.02,-54.59 -0.95,-3.5 -2.95,-16.19 -4.43,-28.2 -3.97,-32.03 -4.26,-34.07 -4.94,-34.74 -1.96,-1.94 -110.82,-0.24 -131.74,2.04 -9.46,1.04 -9.46,1.04 -8.73,6.86 2.37,18.74 4.19,29.29 5.8,33.66 6.23,16.93 16.08,59.82 17.55,76.43 0.46,5.27 1.63,10.63 2.57,11.82 0.96,1.21 2.75,8.56 4.01,16.38 2.27,14.19 2.27,14.19 12.46,13.87 11.1,-0.34 57,1.64 57.87,2.51 1.52,1.53 25.83,-0.37 30.56,-2.38"
         style="fill:#ffffff;fill-opacity:1;fill-rule:nonzero;stroke:#ffffff;stroke-width:24;stroke-miterlimit:4;stroke-opacity:1;stroke-dasharray:none"
         id="path36" /><path
         d="m 2176.15,2180.97 c -0.54,-0.49 -7.55,-1.42 -15.38,-2.02 -19.65,-1.54 -31.9,-4.03 -35.48,-7.22 -1.63,-1.46 -3.52,-2.34 -4,-1.85 -0.5,0.5 -8.55,-0.29 -18.01,-1.77 -15.58,-2.43 -33.85,-4.29 -53.5,-5.45 -4,-0.24 -10.55,0.59 -14.56,1.84 -15.46,4.82 -31.84,0.47 -31.84,-8.46 0,-1.8 -1.64,-3.76 -3.64,-4.36 -2,-0.6 -3.64,-1.91 -3.64,-2.91 0,-1.02 -2,-3.82 -4.55,-6.37 -8.37,-8.37 -10.23,-26.2 -2.73,-26.2 2.19,0 4.25,-1.18 4.82,-2.74 0.55,-1.48 2.37,-2.73 4.01,-2.73 1.7,0 5.37,-1.25 8.46,-2.9 10.92,-5.8 103.25,-0.02 107.43,6.73 0.55,0.88 4.11,1.64 7.75,1.64 3.75,0 11.64,1.5 17.83,3.39 12.56,3.84 54.18,5.37 56.2,2.06 0.63,-1.01 3.3,-1.81 6.03,-1.81 6.91,0 24.75,-6.82 51.68,-19.75 12.74,-6.12 23.7,-11.19 24.2,-11.19 0.51,0 4.37,-1.52 8.73,-3.44 15.26,-6.7 54.77,-15.17 86.07,-18.46 23.04,-2.41 38.76,-1.14 77.15,6.21 15.28,2.93 42.91,2.63 46.04,-0.5 1.08,-1.09 3.55,-2.01 5.37,-2.01 1.86,0 7.91,-2.07 13.55,-4.64 40.03,-18.26 89.03,-21.57 118.09,-7.99 6.37,2.98 12.2,5.36 13.11,5.36 0.91,0 6.55,1.61 12.73,3.64 17,5.59 40.58,7.61 57.68,4.95 3.99,-0.62 16.74,-2.09 28.21,-3.25 32.39,-3.27 54.93,-7.18 61.5,-10.68 2.18,-1.16 4.75,-1.67 5.64,-1.12 0.89,0.54 8.19,-0.56 16.01,-2.43 33.47,-7.98 67.87,-8.7 139.75,-2.94 11.82,0.94 73.69,1.12 109.18,0.31 12,-0.27 23.88,0.24 26.38,1.14 2.5,0.91 7.82,1.95 11.83,2.31 13.28,1.23 28.02,23.66 20.37,31.01 -20.44,19.64 -65.87,25.67 -162.3,21.51 -17.11,-0.74 -32.36,-1.25 -34.12,-1.15 -1.77,0.11 -8.82,0.18 -15.92,0.18 -15.71,0 -13.83,-0.11 -35.48,2.09 -22.2,2.24 -24.73,2.6 -28.21,3.95 -1.5,0.59 -14.19,3.19 -28.2,5.79 -14.01,2.6 -32.35,6.04 -40.76,7.63 -40.94,7.75 -94.71,6.08 -126.65,-3.96 -8,-2.52 -19.87,-6.29 -26.38,-8.38 -22.02,-7.07 -54.59,-4.98 -75.88,4.88 -13.04,6.03 -42.39,10.88 -64.23,10.59 -18.01,-0.24 -50.64,-2.07 -55.86,-3.14 -12.74,-2.61 -64.45,-2.74 -72.06,-0.18 -4.2,1.41 -14.19,3.89 -22.19,5.51 -18.2,3.67 -26.06,6.25 -31.67,10.39 -2.36,1.75 -5.82,3.23 -7.55,3.23 -1.78,0 -5.46,1.19 -8.37,2.73 -2.91,1.53 -6.54,2.73 -8.28,2.73 -1.71,0 -10.55,3.28 -19.83,7.36 -31.48,13.84 -49.82,19.64 -65.69,20.76 -6.37,0.45 -15.1,1.29 -19.65,1.9 -4.55,0.61 -8.63,0.69 -9.19,0.18"
         style="fill:#ffffff;fill-opacity:1;fill-rule:nonzero;stroke:#ffffff;stroke-width:24;stroke-miterlimit:4;stroke-opacity:1;stroke-dasharray:none"
         id="path38" /><path
         d="m 1402.91,1754.1 c -13.46,-0.8 -25.22,-1.05 -26.02,-0.56 -3.82,2.37 -36.12,-1.74 -37.18,-4.72 -0.57,-1.6 -5.21,-7.02 -10.31,-12.01 -16.38,-16.05 -18.14,-18.94 -19.4,-31.85 -0.64,-6.55 -3.39,-17.1 -6.16,-23.65 -2.78,-6.55 -6.67,-15.88 -8.74,-20.92 -2.06,-5.02 -6.46,-15.01 -9.83,-22.3 -3.36,-7.27 -6.09,-14.25 -6.09,-15.55 0,-1.27 -0.72,-3.16 -1.55,-4.1 -0.86,-0.96 -2.96,-6.37 -4.73,-12.19 -1.77,-5.82 -3.83,-10.86 -4.64,-11.37 -0.76,-0.48 -1.02,-2.55 -0.55,-4.37 0.49,-1.82 -0.03,-4.01 -1.09,-4.64 -1.1,-0.65 -2,-2.36 -2,-3.82 0,-1.43 -1.58,-6.19 -3.46,-10.37 -1.92,-4.3 -4.86,-11.64 -6.64,-16.56 -1.77,-4.91 -4.27,-9.23 -5.64,-9.73 -1.36,-0.51 -2.45,-2.82 -2.45,-5.19 0,-2.36 -0.73,-4.72 -1.64,-5.28 -0.92,-0.56 -2.2,-4 -2.91,-7.82 -0.72,-3.82 -2.3,-8.03 -3.61,-9.55 -2.05,-2.42 -3.57,-8.19 -5.01,-19.11 -0.38,-2.91 1.16,-4.12 7.71,-6.03 13.28,-3.87 13.63,-4.26 12.99,-14.53 -0.73,-11.86 1.75,-13.54 26.13,-17.77 10.01,-1.73 22.29,-3.86 27.29,-4.72 11.05,-1.91 56.59,-6.85 75.51,-8.2 7.54,-0.54 22.2,-2.56 32.76,-4.52 10.55,-1.96 22.77,-4 27.29,-4.55 4.55,-0.55 9.16,-2.25 10.38,-3.82 1.68,-2.18 2.77,-2.33 4.82,-0.64 1.66,1.38 5,1.75 9,1 11.65,-2.16 31.31,19.72 24.77,27.57 -2.2,2.65 -1.12,14.56 1.84,20.38 2.25,4.42 4.35,9.64 12.92,32.21 4.21,11.1 9.54,24.31 11.97,29.66 2.39,5.27 4.36,10.26 4.36,11 0,0.76 1.63,4.73 3.64,8.92 2.02,4.19 3.65,8.73 3.65,10.19 0,1.45 2.09,6.82 4.63,11.92 2.55,5.1 4.26,9.94 3.79,10.74 -0.8,1.37 2.4,14.55 6.03,24.92 1.06,3.02 3.59,12.38 5.65,20.93 2.06,8.55 4.56,18.31 5.58,21.83 5.4,18.56 7.64,57.6 3.59,62.6 -0.91,1.12 -2.15,4.55 -2.83,7.82 -2.37,11.35 -13.71,14.93 -45.55,14.4 -13.1,-0.21 -26.09,0.27 -29.12,1.09 -14.26,3.85 -46.76,5.19 -79.15,3.26 z m 45.22,-61.69 c 2,-1.07 5.03,-1.5 6.55,-0.91 1.53,0.59 8,0.22 14.19,-0.82 6.19,-1.04 16.35,-2.02 22.29,-2.16 17.29,-0.4 20.93,-1.46 20.93,-6.12 0,-4.39 -6.55,-36.57 -8.37,-41.12 -0.6,-1.5 -3.83,-13.65 -7.17,-26.93 -5.88,-23.45 -8.26,-30.39 -25.75,-74.97 -13.63,-34.75 -14,-35.28 -23.67,-33.88 -46.4,6.71 -74.53,9.7 -106.08,11.26 -27.48,1.35 -49.13,5.95 -49.13,10.43 -0.01,1.83 9.86,33.3 13.17,42.03 1.03,2.73 2.86,6.07 3.93,7.19 1.1,1.15 3.03,7 4.28,13.01 1.25,6.01 3.91,13.13 5.91,15.83 2.02,2.73 3.64,6.13 3.64,7.64 0,4.44 5.17,18.38 12.76,34.4 3.88,8.18 8.79,20.25 10.89,26.74 7.74,24.03 1.46,21.54 52.77,20.92 27.66,-0.33 46.57,-1.31 48.86,-2.54"
         style="fill:#ffffff;fill-opacity:1;fill-rule:nonzero;stroke:#ffffff;stroke-width:24;stroke-miterlimit:4;stroke-opacity:1;stroke-dasharray:none"
         id="path40" /><path
         d="m 2067.98,1532.14 c -20.57,-1.28 -43.29,-4.73 -48.41,-7.36 -9.82,-5.05 -70.21,-21.92 -73.69,-20.58 -1.45,0.55 -3.52,0.19 -4.82,-0.84 -1.54,-1.24 -6.83,-0.88 -16.29,1.08 -16.83,3.49 -23.23,0.19 -38.39,-19.83 -13.77,-18.17 -11.47,-25.73 9.46,-31.08 3.61,-0.92 9.83,-2.51 13.83,-3.54 14.36,-3.7 44.22,0.5 71.87,10.11 21.29,7.39 51.69,16.17 64.6,18.66 24.02,4.63 111.23,-0.94 116.5,-7.43 0.94,-1.16 3.23,-1.87 4.87,-1.53 4.56,0.98 36.39,-14.75 56.04,-27.68 9.46,-6.22 22.64,-14.05 29.11,-17.28 6.55,-3.28 13.86,-6.98 16.38,-8.32 20.83,-10.98 75.7,-17.54 101.9,-12.18 36.57,7.48 101.69,5.13 120.82,-4.36 2.73,-1.36 6.11,-2.53 7.28,-2.53 2.26,0 46.4,-13.7 53.86,-16.72 2.55,-1.03 4.71,-1.81 4.91,-1.77 2.03,0.39 38.58,-13.31 40.76,-15.28 1.64,-1.47 3.29,-2.22 3.77,-1.71 1.05,1.13 14.79,-2.27 31.53,-7.82 30.93,-10.25 66.77,-19.8 80.97,-21.58 3.46,-0.44 9.12,-1.68 12.37,-2.71 3.28,-1.05 10.56,-2.25 16.02,-2.65 5.46,-0.39 11.58,-1.55 13.47,-2.54 1.9,-1.01 8.18,-1.82 14,-1.82 5.84,0 17.47,-1.22 26.03,-2.73 8.55,-1.51 18.31,-2.69 21.83,-2.64 3.51,0.05 16.56,-0.49 29.12,-1.21 38.75,-2.21 108.86,-1.74 111.36,0.76 1.19,1.19 6.55,2.18 11.82,2.18 8.56,0 16.19,2.11 43.67,12.04 8.19,2.96 11.24,9.8 4.37,9.8 -1.92,0 -4.72,1.91 -6.28,4.27 -2.32,3.51 -5,4.5 -15.01,5.55 -6.73,0.7 -13.86,2.45 -15.92,3.92 -2.07,1.46 -7.83,2.63 -12.92,2.63 -5.1,0 -12.84,1.34 -17.38,3.01 -4.53,1.66 -15.1,3.24 -23.65,3.55 -19.65,0.7 -50.83,3.88 -69.88,7.13 -8.18,1.39 -19.91,2.99 -26.38,3.6 -6.37,0.59 -12.47,1.58 -13.46,2.18 -0.99,0.59 -4.73,1.33 -8.19,1.62 -11.17,0.92 -24.57,2.92 -35.85,5.33 -6,1.28 -13.58,2.37 -16.83,2.42 -3.27,0.05 -8.55,0.9 -11.83,1.91 -3.25,1 -10.82,2.81 -16.83,4.01 -6.01,1.2 -11.86,2.92 -13.01,3.82 -1.13,0.89 -6.55,1.84 -11.83,2.09 -5.27,0.25 -11.81,1.75 -14.28,3.27 -2.53,1.57 -8.19,3.84 -12.74,5.1 -4.55,1.26 -11.02,3.41 -14.56,4.82 -3.53,1.42 -12.64,3.76 -20.46,5.28 -7.83,1.51 -15.52,3.46 -17.29,4.37 -1.75,0.9 -11.37,4.13 -21.38,7.18 -10.04,3.07 -30.03,9.19 -44.58,13.66 -22.2,6.83 -29.89,8.97 -40.03,11.17 -0.5,0.1 -5.46,1.56 -10.92,3.19 -24.02,7.19 -75.86,11.92 -88.43,8.07 -1.91,-0.58 -18.56,-3.2 -37.12,-5.84 -32.03,-4.56 -37.97,-4.73 -60.96,-1.81 -2.27,0.29 -12.01,4.12 -15.65,6.16 -1.49,0.83 -5.46,2.13 -8.73,2.85 -8.73,1.94 -22.53,9.33 -25.01,13.41 -1.14,1.88 -7.47,6.04 -13.84,9.1 -6.37,3.06 -12.71,6.81 -13.85,8.19 -3.02,3.63 -49.38,23.11 -55.02,23.11 -1.09,0 -4.64,1.21 -7.74,2.63 -3.2,1.48 -9.73,3 -14.83,3.46 -5,0.45 -15.64,1.68 -23.65,2.73 -8.09,1.06 -21.84,2.36 -30.94,2.91 -9.09,0.56 -17.99,1.29 -20.01,1.64 -2.02,0.35 -12.56,0.08 -23.65,-0.6"
         style="fill:#ffffff;fill-opacity:1;fill-rule:nonzero;stroke:#ffffff;stroke-width:24;stroke-miterlimit:4;stroke-opacity:1;stroke-dasharray:none"
         id="path42" /></g></g><g
     inkscape:groupmode="layer"
     id="layer2"
     inkscape:label="fill"
     transform="translate(-17.194164,-404.52001)"><path
       id="path3682"
       style="fill:#000000;fill-opacity:0.36470588;fill-rule:nonzero;stroke:#ffffff;stroke-width:2.78734112;stroke-miterlimit:4;stroke-opacity:1;stroke-dasharray:none"
       d="m 170.62543,861.40888 c -3.45282,-0.3728 -6.41432,-0.81429 -6.58112,-0.98108 -0.29565,-0.29565 1.42768,-5.15786 4.95797,-13.98847 l 1.74419,-4.36288 5.30828,0.3434 c 9.11559,0.58969 10.60422,0.8558 10.60422,1.89563 0,1.60808 -2.19045,9.08457 -3.98288,13.59445 -1.9887,5.00369 -0.93842,4.69874 -12.05066,3.49895 l 0,0 z M 299.26755,1022.734 c -20.0356,-0.9472 -36.90038,-2.5857 -76.93061,-7.4741 -16.0969,-1.9658 -35.03688,-4.21 -42.08885,-4.9873 -14.99993,-1.6532 -23.51408,-3.1046 -41.81012,-7.1273 l -13.37924,-2.9416 4.3496,-0.1633 c 2.39228,-0.0899 11.1724,0.4722 19.51139,1.2491 38.75304,3.6103 57.84736,4.7369 87.07519,5.1375 36.29527,0.4975 65.3597,-1.1305 90.86732,-5.0898 10.37393,-1.61019 19.42922,-2.54757 35.1205,-3.63556 23.37585,-1.62081 28.48885,-2.24072 40.03611,-4.85409 l 6.58802,-1.491 3.40621,-4.21719 c 9.27781,-11.48674 17.05846,-25.88157 28.4944,-52.71692 3.52786,-8.2784 7.58594,-17.56025 9.01795,-20.62632 2.83248,-6.06461 8.63129,-20.88825 18.20918,-46.5486 23.2208,-62.21141 37.65827,-111.49073 45.32206,-154.69743 2.36004,-13.30538 8.06341,-53.16583 10.01045,-69.96226 3.60775,-31.12294 5.37176,-57.85289 6.78765,-102.85289 l 0.38588,-12.2643 1.03446,4.73848 c 1.30481,5.97685 2.39563,13.71241 3.34097,23.6924 0.97408,10.28333 0.97106,53.60309 -0.005,68.28986 -2.10664,31.70681 -5.84658,76.68416 -7.05718,84.87126 -10.01551,67.73321 -27.18841,134.23181 -53.87906,208.63576 -9.8634,27.49565 -31.98883,82.605 -34.07282,84.8675 -1.67485,1.8184 -8.507,6.4199 -12.55044,8.4529 -4.30645,2.1652 -11.9458,4.7585 -17.45287,5.9247 -10.38469,2.1992 -19.90374,2.9823 -50.96103,4.1926 -8.58501,0.3345 -18.49401,0.965 -22.02,1.4009 -6.88854,0.8518 -21.83355,0.9306 -37.35037,0.197 l 2.7e-4,0 z m -108.05696,-240.87042 -3.03046,-0.0899 0.18448,-1.17484 c 0.10146,-0.64617 0.55315,-2.49187 1.00376,-4.10156 0.45061,-1.60969 1.07156,-4.36915 1.37989,-6.13215 0.30833,-1.76299 0.68949,-3.66255 0.84704,-4.22124 l 0.28644,-1.0158 4.56874,-0.20153 c 4.25724,-0.18779 4.74834,-0.15654 7.20271,0.45833 l 2.63396,0.65987 -1.35418,4.56535 c -0.7448,2.51094 -1.5465,5.83484 -1.78155,7.38645 -0.23505,1.55161 -0.48834,3.10332 -0.56286,3.44825 -0.13377,0.61923 -0.18741,0.62641 -4.2415,0.56796 -2.25831,-0.0326 -5.46972,-0.0997 -7.13647,-0.14914 z m 27.11204,-77.23998 c -0.11839,-0.0333 -0.28614,-0.10369 -0.40586,-0.17043 -0.22723,-0.12667 -0.63535,-0.44049 -0.81327,-0.62535 l -0.0729,-0.0757 0.21842,-0.26132 c 0.12014,-0.14372 0.48953,-0.5984 0.82087,-1.01041 1.05028,-1.30598 1.47107,-1.8105 1.87043,-2.24261 l 0.18888,-0.20437 -3.5e-4,0.32631 c -6.9e-4,0.62963 -0.0814,1.36752 -0.21922,2.00553 -0.14669,0.67881 -0.38846,1.30321 -0.67192,1.73529 -0.11987,0.18271 -0.36079,0.42534 -0.48476,0.48819 -0.11703,0.0593 -0.29257,0.0736 -0.43034,0.0349 z m -9.38614,-7.19752 c -0.23523,-0.26828 -0.6504,-0.92679 -0.92259,-1.46336 -0.27219,-0.53656 -0.7226,-1.28914 -1.00091,-1.6724 -0.78697,-1.08375 -1.35916,-3.78696 -1.35465,-6.39976 0.004,-2.48869 0.42928,-3.86156 1.13362,-3.66207 0.21742,0.0616 1.96319,0.20746 3.87949,0.32417 5.70652,0.34756 9.20369,1.44601 9.42296,2.95971 0.0857,0.59184 -0.60973,1.39985 -3.3148,3.85124 -0.67668,0.61322 -1.96077,1.98264 -2.85355,3.04316 -1.83313,2.17753 -3.38213,3.50709 -4.08594,3.50709 -0.26177,0 -0.6684,-0.2195 -0.90363,-0.48778 z m 107.5799,-103.22585 c -3.59211,-0.84629 -6.56722,-4.11473 -5.52244,-6.06693 0.47139,-0.8808 1.86514,-1.80259 4.62312,-3.05762 l 2.51084,-1.14256 1.44323,0.42307 c 2.86697,0.84042 4.26635,2.44718 4.26635,4.89856 0,1.68249 -0.3781,2.65812 -1.46808,3.78813 -1.31458,1.36286 -3.30782,1.75699 -5.85302,1.15735 l 0,0 z m -89.77,395.52915 c -29.98722,-1.3894 -131.266066,-9.78729 -140.014391,-11.60979 -3.115503,-0.64904 -11.895627,-2.14616 -19.511388,-3.32693 -24.364242,-3.77753 -30.931275,-6.8408 -29.545366,-13.78175 0.38518,-1.92907 3.909108,-8.27375 7.83095,-14.09929 12.067178,-17.92471 23.248917,-40.19575 34.986386,-69.68353 2.440872,-6.13215 8.052159,-19.42777 12.469525,-29.54582 19.268334,-44.13443 32.351484,-80.94792 39.496304,-111.13509 5.06071,-21.3817 18.96643,-93.55764 21.76473,-112.96713 4.9802,-34.54344 6.07037,-49.81585 6.12818,-85.85011 0.031,-19.31627 -0.3851,-41.14115 -0.92464,-48.49973 -0.90453,-12.33664 -0.81563,-13.5816 1.14087,-15.97604 2.10606,-2.57746 2.18423,-2.58501 10.50228,-1.0144 5.97346,1.1279 10.58904,2.91446 16.07026,6.22034 10.58816,6.38601 16.61213,6.1256 19.49858,-0.84291 1.15702,-2.79329 2.20019,-3.45892 6.41027,-4.09026 5.41368,-0.81183 25.61352,-0.0682 26.66329,0.98152 0.35048,0.35048 -1.00209,2.67719 -3.00575,5.17046 -2.00364,2.49327 -3.39756,4.77863 -3.0976,5.07859 1.10641,1.10641 24.91515,-9.25371 25.26761,-10.99493 0.73718,-3.64174 14.55193,-5.23543 24.23886,-2.79623 3.28051,0.82604 6.09943,2.55167 8.34353,5.10756 3.11333,3.54589 3.74844,3.79934 7.80364,3.11422 3.7543,-0.63428 4.41448,-1.15897 4.41448,-3.50846 0,-4.2562 1.8895,-6.85682 6.80316,-9.36358 9.2379,-4.71283 21.43572,-3.82401 25.14168,1.832 1.38699,2.11682 1.59725,4.23378 0.9867,9.93493 -0.42672,3.9847 -0.35964,7.2446 0.14909,7.24421 0.50871,-3.9e-4 3.78781,-2.24819 7.2869,-4.99512 5.09046,-3.99624 6.60656,-5.94586 7.58588,-9.75499 2.91661,-11.34452 1.56218,-10.38044 14.01893,-9.97865 19.31175,0.6229 22.32616,2.24265 29.36986,15.78152 2.56037,4.92137 5.08064,8.94794 5.6006,8.94794 0.91246,0 5.03424,-10.82592 8.06539,-21.18379 1.46785,-5.01589 1.46986,-5.01741 7.60039,-5.73493 3.37269,-0.39474 8.91921,-1.08199 12.32562,-1.52721 8.53671,-1.11577 11.73513,1.5861 13.54615,11.44315 1.39169,7.57462 1.73697,7.80371 8.80358,5.84074 4.39691,-1.22137 6.4995,-4.71513 8.93677,-14.84976 1.16213,-4.83237 1.53688,-5.2922 3.64885,-4.47723 1.29454,0.49954 11.13383,0.95426 21.86509,1.01051 12.27904,0.0644 20.3874,0.57314 21.87467,1.3726 1.2998,0.69869 3.30669,3.16915 4.45974,5.48991 2.79397,5.6234 3.20269,27.87096 1.65474,90.06967 -1.86123,74.78653 -5.71861,109.23606 -20.80683,185.82179 -3.06997,15.58277 -6.56242,28.12665 -14.69345,52.7746 -23.16616,70.2247 -34.67236,100.54248 -52.73836,138.96074 -4.79705,10.20119 -9.24607,20.4942 -9.88671,22.87335 -4.49953,16.70996 -18.33544,24.32036 -49.31848,27.12744 -7.57912,0.68668 -22.30948,2.47971 -32.73414,3.98451 -10.42466,1.50482 -24.72372,3.25169 -31.77569,3.88197 -13.59,1.21459 -60.6515,2.17432 -74.70074,1.52339 l 0,0 z m 149.4253,-101.49154 c 8.97042,-3.58926 3.64214,-6.33693 -18.0124,-9.28859 -9.80714,-1.33677 -22.0687,-3.96652 -31.62609,-6.78287 -14.45484,-4.25952 -16.3487,-4.56093 -25.61062,-4.07594 -9.69587,0.5077 -10.23471,0.40487 -17.63178,-3.36489 -11.05061,-5.63169 -19.71606,-6.8626 -31.39216,-4.4592 -5.10374,1.05055 -10.55674,1.9101 -12.11776,1.9101 -3.17759,0 -7.75075,4.90193 -7.21165,7.7301 0.58975,3.09385 7.63688,3.95021 15.74553,1.91337 12.12223,-3.045 18.95791,-2.49796 28.0463,2.2445 7.3592,3.84014 8.59985,4.11726 21.74126,4.85639 11.1109,0.62492 15.98602,1.46799 24.04375,4.15795 9.20864,3.0742 17.63477,5.18312 25.01346,6.26046 8.36901,1.22194 24.76084,0.59966 29.01216,-1.10138 z m -189.8111,-14.41778 c 1.36288,-0.95459 2.48834,-2.58519 2.50103,-3.62354 0.0127,-1.03836 1.76423,-6.90514 3.89231,-13.03729 4.24299,-12.22637 5.11009,-21.56989 2.224,-23.96514 -1.09822,-0.91143 -6.26987,-1.43244 -15.18878,-1.53019 -13.16508,-0.14428 -13.57169,-0.0763 -15.3376,2.56661 -1.67701,2.50978 -12.4059,29.4224 -12.4059,31.11927 0,0.41345 1.23574,2.08442 2.74608,3.71325 2.2493,2.42578 4.11498,3.10061 10.31316,3.73034 4.1619,0.42284 9.32311,1.16695 11.46936,1.65357 5.89716,1.33705 7.0917,1.26053 9.78634,-0.62688 z m 144.49043,-76.99152 c 4.88135,-1.66324 6.19886,-1.65277 17.75886,0.14112 9.69042,1.50376 15.84162,1.77249 27.47063,1.20015 8.24135,-0.40561 15.64174,-1.28314 16.44531,-1.95004 0.80357,-0.6669 1.46104,-2.34455 1.46104,-3.7281 0,-3.80314 -5.21133,-5.40726 -17.12485,-5.27129 -5.6051,0.064 -15.56443,-0.68899 -22.13183,-1.67322 -10.24326,-1.53514 -13.25471,-1.58561 -21.18379,-0.35504 -6.98297,1.08374 -10.33355,1.13089 -13.70281,0.19285 -2.45286,-0.6829 -9.34008,-1.24444 -15.30492,-1.24785 -8.91034,-0.006 -12.19236,-0.51481 -18.39645,-2.857 -8.4364,-3.18493 -12.06213,-3.46506 -26.38954,-2.03885 -9.00522,0.89642 -10.13195,1.27344 -12.23326,4.0936 -1.80486,2.4223 -2.04612,3.52702 -1.09571,5.01721 1.05152,1.64871 3.26592,1.91097 16.13554,1.91097 13.34334,0 15.56358,0.28441 21.04891,2.69638 5.10612,2.24524 8.18421,2.73493 18.39645,2.92668 6.74536,0.12665 13.76946,0.75161 15.60911,1.38878 4.80519,1.66434 7.28856,1.58059 13.23731,-0.44635 l 0,0 z m -119.75296,-1.47498 c 0.63479,-1.18612 1.15416,-5.41896 1.15416,-9.40633 0,-3.98737 0.97581,-11.33533 2.16847,-16.3288 2.21653,-9.28025 1.81658,-13.91127 -1.23402,-14.28894 -0.82056,-0.10157 -7.21884,-0.50391 -14.2184,-0.89406 -14.28286,-0.79612 -15.7044,-0.16879 -15.7044,6.9303 0,1.96193 -1.25431,8.39468 -2.78734,14.29502 -1.53304,5.90034 -2.78734,11.73748 -2.78734,12.97142 0,2.98337 3.51305,4.19879 14.77799,5.11279 5.05622,0.41025 10.18279,1.42524 11.39236,2.25554 3.09625,2.12539 5.88835,1.87586 7.23852,-0.64694 z m 204.14588,-71.46845 c 4.88902,-2.61654 0.89669,-8.53534 -7.90959,-11.72635 -3.8624,-1.39956 -7.18597,-1.64997 -14.75369,-1.11161 -6.33659,0.45077 -11.33367,0.22586 -14.22435,-0.64021 -3.49377,-1.04676 -6.87307,-1.02708 -15.64732,0.0911 -10.03296,1.27859 -11.70468,1.23008 -16.15298,-0.46874 -4.59425,-1.75457 -5.53598,-1.76435 -12.7124,-0.13211 -10.18684,2.31695 -14.42017,2.2239 -21.24711,-0.46704 -6.14761,-2.42315 -14.46601,-2.82472 -22.08979,-1.06638 -4.05096,0.93431 -5.63141,0.73982 -10.03443,-1.23483 -4.44628,-1.99407 -6.49414,-2.23725 -13.72319,-1.62963 -7.0142,0.58957 -8.81337,0.39787 -10.30975,-1.0985 -2.30432,-2.30433 -5.47998,-1.3348 -7.40411,2.26048 -3.56238,6.65636 5.86249,12.17188 16.30569,9.54225 4.41757,-1.11235 5.7888,-1.02532 9.17702,0.5825 5.52559,2.62206 12.38923,3.19702 20.08669,1.68264 5.87383,-1.15561 7.08867,-1.04889 11.98538,1.05283 7.75933,3.33039 14.14707,3.78748 24.81397,1.77562 8.22896,-1.55205 9.69125,-1.56645 12.48283,-0.12286 3.90513,2.01942 10.54719,2.02904 19.87608,0.0288 6.07763,-1.30315 7.78012,-1.29739 11.56828,0.0391 2.78895,0.98399 9.47216,1.60853 17.95966,1.67831 7.43479,0.0611 14.7721,0.51284 16.30514,1.0038 1.53303,0.49097 2.94575,0.94268 3.13937,1.0038 0.19362,0.0611 1.32249,-0.40823 2.5086,-1.04302 l 0,6e-5 z m -189.13466,-8.40244 c 1.24145,-1.24145 1.75386,-3.92207 1.75827,-9.19823 0.01,-12.47208 1.09755,-14.65845 11.15888,-22.44181 10.31651,-7.98077 11.53576,-9.68899 9.63989,-13.50586 -2.28377,-4.59782 -5.30538,-3.9203 -12.95424,2.90463 -3.87215,3.45506 -7.34806,5.81111 -7.72424,5.23567 -1.54767,-2.3674 -5.64581,-3.38658 -14.62069,-3.63604 -5.21233,-0.14489 -10.27444,-0.1983 -11.24913,-0.11867 -2.07806,0.16975 -4.35998,4.65442 -4.35998,8.5687 0,2.47546 -0.22179,2.60686 -2.26389,1.3412 -1.87191,-1.16017 -2.4481,-1.11354 -3.32774,0.26929 -1.77941,2.79732 -1.23935,5.73634 1.78201,9.69754 2.52752,3.31375 2.7322,4.19983 1.6724,7.23998 -3.11127,8.925 -0.0795,13.09721 9.66304,13.29768 3.52599,0.0726 7.91605,0.51492 9.7557,0.98302 5.57039,1.41742 9.22556,1.20706 11.06972,-0.6371 l 0,0 z m 141.67657,-87.00072 c 28.54805,-2.27282 44.31385,-4.4097 48.49793,-6.57337 2.94962,-1.52531 3.42612,-2.34025 3.13384,-5.35962 -0.31546,-3.2588 -0.71062,-3.59083 -4.65914,-3.9148 -2.37294,-0.19469 -11.65479,0.43236 -20.62633,1.39347 -31.85457,3.41253 -62.93731,5.29258 -76.51844,4.62826 -24.01909,-1.17489 -58.73147,-4.06815 -76.57217,-6.38225 -23.73407,-3.07852 -35.47894,-1.75357 -35.47894,4.00244 0,2.71783 2.84823,3.83481 12.86261,5.04427 5.49647,0.66382 14.50908,1.91214 20.02801,2.77403 5.51894,0.86189 15.3025,1.87224 21.74126,2.24522 6.43876,0.37296 16.22233,1.17914 21.74126,1.79148 30.26582,3.35808 47.20771,3.42732 85.85011,0.35087 l 0,0 z m -69.82802,-20.08166 c 1.76257,-3.86842 0.73391,-6.71472 -4.48876,-12.42046 -10.99608,-12.01316 -14.88176,-21.71279 -17.22456,-42.99695 -0.95213,-8.64987 -2.20107,-16.60512 -2.77544,-17.67834 -1.37874,-2.5762 -3.79739,-1.52629 -6.48431,2.81477 -3.53773,5.71565 -8.39803,9.6843 -12.71881,10.38546 -3.57863,0.58074 -4.46929,0.20876 -7.69985,-3.21582 -2.00923,-2.12989 -4.55457,-5.2037 -5.65632,-6.8307 -4.90488,-7.2432 -7.31438,-1.84093 -8.03891,18.02383 -0.50834,13.9378 -3.58006,31.12093 -6.115,34.20734 -0.50365,0.61322 -1.25841,3.41742 -1.67725,6.23155 -0.60223,4.04645 -0.36376,5.51435 1.14019,7.0183 1.66774,1.66775 2.19289,1.70834 4.26876,0.33002 1.30188,-0.86442 3.02683,-3.77179 3.83321,-6.46083 4.11764,-13.73115 6.91978,-27.252 6.91978,-33.38922 0,-6.09834 0.21639,-6.76899 1.95114,-6.04726 4.91618,2.04533 12.26577,1.88369 17.38874,-0.38245 l 5.17881,-2.29083 0.46353,2.44372 c 0.25494,1.34405 0.99242,6.26349 1.63885,10.93209 0.64643,4.66861 1.99729,10.90942 3.00191,13.86846 4.10191,12.08188 17.38405,28.37278 23.13263,28.37278 1.75774,0 3.07496,-0.96937 3.96166,-2.91546 z m 51.92609,-4.11173 c 1.43281,-4.09924 0.20927,-5.97309 -6.965,-10.66687 -4.76728,-3.11899 -5.84791,-4.44496 -6.36058,-7.80456 -1.51903,-9.95459 -4.20382,-16.3418 -8.80773,-20.95391 -7.43132,-7.44457 -14.98604,-7.85078 -22.54683,-1.21231 -5.60122,4.91793 -7.65499,9.9514 -5.63412,13.80837 l 1.51557,2.89258 2.13209,-2.67582 c 4.90517,-6.1561 12.95763,-8.57432 16.06879,-4.8256 1.18103,1.42306 0.89179,1.67241 -1.94004,1.67241 -6.47914,0 -15.87636,9.60779 -16.71147,17.08593 -0.62178,5.56786 1.93543,9.47903 8.11476,12.41133 4.53399,2.15151 13.84717,1.51943 17.75319,-1.2049 2.47979,-1.72958 6.1628,-2.04959 6.1628,-0.53546 0,1.77178 9.3729,5.75414 12.80165,5.43915 2.50442,-0.23007 3.59415,-1.0764 4.41692,-3.43034 l 0,0 z m 33.14452,-0.3927 c 2.05479,-1.85956 2.61181,-5.39899 1.36217,-8.6555 -0.46742,-1.21807 -2.11507,-1.76359 -5.3266,-1.76359 -5.70506,0 -9.12062,-2.25534 -11.29435,-7.45781 -2.89114,-6.91949 -2.41965,-7.77378 4.75467,-8.61485 7.36787,-0.86375 9.64337,-2.23185 10.68728,-6.42548 0.78286,-3.14492 0.31763,-3.34374 -13.19589,-5.63938 -1.48302,-0.25193 -2.12717,-1.11134 -1.92324,-2.56596 0.16866,-1.20293 0.86131,-5.60675 1.53925,-9.78626 1.37241,-8.46106 0.24066,-13.04002 -3.21565,-13.01014 -3.89227,0.0336 -4.94083,1.91072 -5.97448,10.69524 -1.59866,13.58612 -1.69111,13.81629 -5.54944,13.81629 -3.57321,0 -8.84757,4.20865 -8.84757,7.05989 0,2.20875 2.37626,3.95151 6.51715,4.77969 3.90186,0.78037 3.80549,0.54085 3.99979,9.94061 0.17557,8.49383 4.51763,15.35501 11.74428,18.55789 3.46984,1.53785 12.63516,0.9585 14.72263,-0.93064 l 0,0 z" /></g></svg>